<svg xmlns="http://www.w3.org/2000/svg" viewBox="0 0 354.13 321.18"><defs><style>.cls-1{fill:#d9251c;}.cls-2{fill:#fff;}</style></defs><title>Asset 4</title><g id="Layer_2" data-name="Layer 2"><g id="Layer_1-2" data-name="Layer 1"><g id="_Group_" data-name="&lt;Group&gt;"><path class="cls-1" d="M279.08,76.4l.78,0q.08.78.43.76a20.43,20.43,0,0,0-.25,3l.25,1.37A3.25,3.25,0,0,0,280,83v.21q.1.39.43.37l1.74-.27a8.61,8.61,0,0,0,1.21.12,5.52,5.52,0,0,0,.76-.22,5.18,5.18,0,0,0,1.39.12v-.18a2.25,2.25,0,0,1,1.21.72q.06,1.37-6.61,1.7l-.18.41.1,2.15q.1,1.94.43,4.71a2,2,0,0,1-.72,1.41q-1.37.06-1.51-2.68l-.25-5.3q0-.29-.61-.55l-4.52.2a15.53,15.53,0,0,0-2.15.31q-.8-.27-.82-.55v-.2q0-.72,6.22-1.47l1.57-.08q.65,0,.84-7.12Z"/><path class="cls-1" d="M312.22,65q3.58,1.8,3.58,6.67-1.41,7.4-5.11,11.64a55.56,55.56,0,0,1-7.94,8.59v.55q1.66,2.7,12.29,3.31h1q.37,0,12-1.37,0,2.13-15.12,3.6-4.36,0-14.34-3a18.71,18.71,0,0,1-9,3.6q-1.51,0-2.56-2.5,2.58-5.26,7.69-5.26l5.62,1.1a25.74,25.74,0,0,0,5.11-5.54q7.69-6.83,7.69-15.81-.78-3-1.8-3-3.07,0-8.45,8a4.11,4.11,0,0,0-.76,1.94h-.51q-.65,0-.78-1.1,0-2.9,7.42-9.43A10.14,10.14,0,0,1,312.22,65ZM289.68,95.18V96.3q.08.55.51.55,6.16-1.23,6.16-3l-.78-.55H293A4.48,4.48,0,0,0,289.68,95.18Z"/><path class="cls-1" d="M341.3,63.54a1.75,1.75,0,0,0,.74.25,13.16,13.16,0,0,1,2.45-.25h.25V64q0,1.47-14.73,2.95-2.45,1.72-2.45,2.95v1.72q0,3.58,6.14,13.25a14.93,14.93,0,0,1,1.23,4.17,12.4,12.4,0,0,1-4.17,6.38,23,23,0,0,1-5.4,2.45q-3.44,0-3.44-3.68a1.75,1.75,0,0,0,.25-.74h.25q1.64,2.21,3.44,2.21,6.38-3,6.38-6.87,0-2.29-5.65-11.78-1.47-2.19-1.47-7.85V67Q326.25,64.19,341.3,63.54Z"/><path class="cls-1" d="M348.24,62.31q4.23,0,5.65,9.57a44.7,44.7,0,0,1,.25,5.64v2.7q-1.47,12.91-4.17,15,0,1.54-2.7,2.7-1.74,0-3.93-3.19-1.47-6-1.47-18.41v-.25q0-2.19.25-4.91a11.42,11.42,0,0,1-.25-2.95q1.94-4.42,2.45-4.42A6,6,0,0,1,348.24,62.31Zm-4.42,16q.82,17.43,3.19,17.43,2.56,0,4.66-11.29,0-1.45.74-7.36a19.28,19.28,0,0,1-.49-3.68l.25-1.23q-1.56-7.85-3.19-7.85h-2a7.63,7.63,0,0,0-2.21,5.89Q344,70.16,343.82,78.26Z"/><path class="cls-1" d="M279.78,110.61a.65.65,0,0,0,.28.09v.18a9.51,9.51,0,0,1-.64.92v.09q.08.49,1,3.23v.28q-.3,1.47-1.47,1.47a2,2,0,0,1-.92-.74q.18-.55.37-.55h.18q.36.55.74.55h.09c.09,0,.17-.07.25-.2a1,1,0,0,0,0-.67,18.1,18.1,0,0,0-.82-2.36h-.09a24.24,24.24,0,0,0-2.09,3,3.25,3.25,0,0,1-.77.66h-.18v-.09l1.74-2.62,1.23-1.79Q279.21,110.61,279.78,110.61Z"/><path class="cls-1" d="M282.45,111.82q.8,0,.83,1a4.85,4.85,0,0,1-.83,2.67q.14.37.28.37H283q.67,0,1.38-1.1a.66.66,0,0,1,.09.28q-.67,1.66-1.75,1.66a11,11,0,0,0-1.2-.09q0,.18-.64.37l-.09-.18v-.09a1,1,0,0,0,.46-.74,6.75,6.75,0,0,1-.37-1.84A2.21,2.21,0,0,1,282.45,111.82Zm-.92,2.3a1.31,1.31,0,0,0,.46,1,3.08,3.08,0,0,0,.74-2.21c-.09-.25-.18-.37-.28-.37h-.28Q281.53,112.88,281.53,114.12Z"/><path class="cls-1" d="M286,112.68h.37q.37.19.37.46H287l.46-.28q.46.1.46.74a7,7,0,0,0-.18,1.38v.55H288q2.78-2.22,4.43-2.3.37.14.37.28a.43.43,0,0,1-.26.46l-.38-.09h-.09a9,9,0,0,0-4.25,2.67,1.07,1.07,0,0,0-.18.55v.09a7,7,0,0,0,.09,1.38q0,6.84-4,9.27a3.1,3.1,0,0,1-1.84.34,1.69,1.69,0,0,1-1.05-.64,3,3,0,0,1-.38-1.61q0-3.14,6.26-9.11v-.74h-.18a3.45,3.45,0,0,1-1.29.74q-.88,0-1-1.29A3.63,3.63,0,0,1,286,112.68Zm.55,5.06a22.19,22.19,0,0,0-3.13,3.41q-.28,0-1.56,2.12a5.88,5.88,0,0,0-.68,2.95,1.54,1.54,0,0,0,1.42,1.47q1.63,0,3.46-3.36a15.76,15.76,0,0,0,.77-5.38v-.46Q286.81,117.79,286.53,117.74Zm-1.47-2.49v.28q0,.55.37.55.55,0,1.2-1.66v-.18a2.17,2.17,0,0,0-.64-.74Q285.37,113.51,285.06,115.25Z"/><path class="cls-1" d="M295.07,116.81a1.26,1.26,0,0,1-.64-1h-.09a6.33,6.33,0,0,1-.94,1,.89.89,0,0,1-.43.1q-.84-.28-.84-2.18v-1.38a.87.87,0,0,1,.46-.74.5.5,0,0,1,.37.37,10.78,10.78,0,0,1-.16,1.26,11.23,11.23,0,0,0,.08,1.4q.08.56.26.56a3.11,3.11,0,0,0,1.2-2.67q.19-1,.46-1H295l.09.37-.09,1.47.09.37a.66.66,0,0,0-.09.28q.09,1.2.37,1.2h0v0l.06,0a1.09,1.09,0,0,0,.56-.39,5.69,5.69,0,0,0,.41-.81c.18,0,.23.15.13.42q-.47,1.43-1.15,1.43Z"/><path class="cls-1" d="M299.4,112.36h.37a15.85,15.85,0,0,1,.55,3.87h.37a13.24,13.24,0,0,1,1.47-2.49v.18q-1,2.94-1.93,2.95H300q-.55-.28-.55-2.58v-.46c0-.32-.09-.5-.28-.55h-.09a23.74,23.74,0,0,0-.55,3l-.46.46q-.28-.09-.28-.55V115a6.26,6.26,0,0,0-.28-1.47h-.28q-.64,2-.83,2h-.09v-.09a4.09,4.09,0,0,1,1.1-2.76h.28q.11,0,.64.83h.18A2.43,2.43,0,0,1,299.4,112.36Z"/><path class="cls-1" d="M304.27,102.6h.09c.12,0,.18.08.18.18l-.37,5.52v.55q0,1.44.09,2.39v.37a1.28,1.28,0,0,0,.28.83v.28l-.18.28q.12,2.58,1,3.08a.8.8,0,0,0,.62-.32,4.39,4.39,0,0,0,.57-.95c.18-.25.27-.21.26.11a3,3,0,0,1-.79,1.52,1,1,0,0,1-1.05.21,2,2,0,0,1-.87-1.25l-.18-.09h-.09q-.73,1.93-1.56,1.93t-.83-1.47v-.09a4.27,4.27,0,0,1,2.12-4l-.09-1.1Q303.65,102.6,304.27,102.6Zm-2,13.9q.93,0,1.38-2.76a7.86,7.86,0,0,1-.18-1h-.09q-1,0-1.29,2.39A2.59,2.59,0,0,0,302.24,116.5Z"/><path class="cls-1" d="M309.56,112.5a.72.72,0,0,1,.1.3,14.62,14.62,0,0,1-.2,1.61,10.29,10.29,0,0,0,.31,1.41h.2a7.48,7.48,0,0,0,1.2-1.79h.1l.2.1a6.17,6.17,0,0,1-1.69,2.59h-.21q-.44-.11-.7-1.3h-.11q-1.18,1.81-1.8,1.81c-.34,0-.52-.39-.54-1.16l0-.85q.44-2.52,2.52-2.52Zm-2.51,3.19a2,2,0,0,0,.1.83h.2a4.73,4.73,0,0,0,1.4-2.31.62.62,0,0,0-.7-.71Q307.47,113.51,307.05,115.69Z"/><path class="cls-1" d="M313.56,110.61a.65.65,0,0,0,.28.09v.18a9.48,9.48,0,0,1-.64.92v.09q.08.49,1,3.23v.28q-.3,1.47-1.47,1.47a2,2,0,0,1-.92-.74q.18-.55.37-.55h.18q.36.55.74.55h.09c.09,0,.17-.07.25-.2a1,1,0,0,0,0-.67,18.22,18.22,0,0,0-.82-2.36h-.09a24.35,24.35,0,0,0-2.09,3,3.27,3.27,0,0,1-.77.66h-.18v-.09l1.74-2.62,1.23-1.79Q313,110.61,313.56,110.61Z"/><path class="cls-1" d="M322,111.55h.18l.09.37a24.2,24.2,0,0,1-.74,4.79l-.46.09a10.38,10.38,0,0,1-2.12-3.68c.09-.25.18-.37.28-.37h.18a11.48,11.48,0,0,0,1.66,2.76h.09A39.91,39.91,0,0,1,322,111.55Z"/><path class="cls-1" d="M323.41,112.79c.1.09.15.33.14.71s0,.88,0,1.49.21,1,.5,1.14h.18a2.82,2.82,0,0,0,.84-1c.07-.14.14-.21.19-.18s.06.09,0,.22a2.42,2.42,0,0,1-.38.76,2.06,2.06,0,0,1-.89.82l-.28.05q-.91-.09-.78-2.85Q323.08,112.78,323.41,112.79Zm.43-2.83.28,0c.12,0,.18.09.18.19l0,.28c0,.12-.19.24-.48.34a.5.5,0,0,1-.35-.38Q323.65,110,323.84,110Z"/><path class="cls-1" d="M328.21,112.5a.72.72,0,0,1,.1.3,14.62,14.62,0,0,1-.2,1.61,10.29,10.29,0,0,0,.31,1.41h.2a7.48,7.48,0,0,0,1.2-1.79h.1l.2.1a6.17,6.17,0,0,1-1.69,2.59h-.21q-.44-.11-.7-1.3h-.11q-1.18,1.81-1.8,1.81c-.34,0-.52-.39-.54-1.16l0-.85q.44-2.52,2.52-2.52Zm-2.51,3.19a2,2,0,0,0,.1.83h.2a4.73,4.73,0,0,0,1.4-2.31.62.62,0,0,0-.7-.71Q326.13,113.51,325.71,115.69Z"/><path class="cls-1" d="M332.21,110.61a.65.65,0,0,0,.28.09v.18a9.48,9.48,0,0,1-.64.92v.09q.08.49,1,3.23v.28q-.3,1.47-1.47,1.47a2,2,0,0,1-.92-.74q.18-.55.37-.55H331q.36.55.74.55h.09c.09,0,.17-.07.25-.2a1,1,0,0,0,0-.67,18.22,18.22,0,0,0-.82-2.36h-.09a24.35,24.35,0,0,0-2.09,3,3.27,3.27,0,0,1-.77.66h-.18v-.09l1.74-2.62,1.23-1.79Q331.64,110.61,332.21,110.61Z"/><path class="cls-1" d="M340.66,102.6h.09c.12,0,.18.08.18.18l-.37,5.52v.55q0,1.44.09,2.39v.37a1.28,1.28,0,0,0,.28.83v.28l-.18.28q.12,2.58,1,3.08a.8.8,0,0,0,.62-.32,4.39,4.39,0,0,0,.57-.95c.18-.25.27-.21.26.11a3,3,0,0,1-.79,1.52,1,1,0,0,1-1.05.21,2,2,0,0,1-.87-1.25l-.18-.09h-.09q-.73,1.93-1.56,1.93t-.83-1.47v-.09a4.27,4.27,0,0,1,2.12-4l-.09-1.1Q340,102.6,340.66,102.6Zm-2,13.9q.93,0,1.38-2.76a7.86,7.86,0,0,1-.18-1h-.09q-1,0-1.29,2.39A2.59,2.59,0,0,0,338.64,116.5Z"/><path class="cls-1" d="M344.5,111.82q.8,0,.83,1a4.84,4.84,0,0,1-.83,2.67c.09.25.18.37.28.37h.28q.67,0,1.38-1.1a.66.66,0,0,1,.09.28q-.68,1.66-1.75,1.66a11,11,0,0,0-1.2-.09q0,.18-.64.37l-.09-.18v-.09a1,1,0,0,0,.46-.74,6.76,6.76,0,0,1-.37-1.84A2.21,2.21,0,0,1,344.5,111.82Zm-.92,2.3a1.31,1.31,0,0,0,.46,1,3.08,3.08,0,0,0,.74-2.21c-.09-.25-.18-.37-.28-.37h-.28Q343.58,112.88,343.58,114.12Z"/><path class="cls-1" d="M293.23,121.45h.09c.12,0,.18.08.18.18l-.37,5.52v.55q0,1.44.09,2.39v.37a1.28,1.28,0,0,0,.28.83v.28l-.18.28q.12,2.58,1,3.08a.8.8,0,0,0,.62-.32,4.39,4.39,0,0,0,.57-.95c.18-.25.27-.21.26.11a3,3,0,0,1-.79,1.52,1,1,0,0,1-1.05.21,2,2,0,0,1-.87-1.25l-.18-.09h-.09q-.73,1.93-1.56,1.93t-.83-1.47v-.09a4.27,4.27,0,0,1,2.12-4l-.09-1.1Q292.61,121.45,293.23,121.45Zm-2,13.9q.93,0,1.38-2.76a7.86,7.86,0,0,1-.18-1h-.09q-1,0-1.29,2.39A2.59,2.59,0,0,0,291.21,135.35Z"/><path class="cls-1" d="M297,131.33q1,0,1,2v.34q0,1.78-1.4,2.06-1.11-.17-1.2-1.89v-.58A1.9,1.9,0,0,1,297,131.33Zm-.63,1a2.42,2.42,0,0,0-.2.78,6.38,6.38,0,0,0,0,1,1,1,0,0,0,.53.88h.09a2.92,2.92,0,0,0,.64-2.3q0-.64-.37-.74h-.18A.52.52,0,0,0,296.37,132.34Z"/><path class="cls-1" d="M299.84,131q.47,0,.8.7-.05.33-.31.25c-.17-.33-.33-.51-.5-.52a1.76,1.76,0,0,0-.71,1.45,3,3,0,0,0,.18,1.63.75.75,0,0,0,.74.5q.66-.15,1.53-1.69l.19.22a6.08,6.08,0,0,1-1.13,1.72,1.56,1.56,0,0,1-1.05.43,1.4,1.4,0,0,1-1.09-1,3.24,3.24,0,0,1-.12-1.63,3.41,3.41,0,0,1,.6-1.39A1.32,1.32,0,0,1,299.84,131Z"/><path class="cls-1" d="M304.32,135.66a1.26,1.26,0,0,1-.64-1h-.09a6.33,6.33,0,0,1-.94,1,.89.89,0,0,1-.43.1q-.84-.28-.84-2.18v-1.38a.87.87,0,0,1,.46-.74.5.5,0,0,1,.37.37,10.78,10.78,0,0,1-.16,1.26,11.23,11.23,0,0,0,.08,1.4q.08.56.26.56a3.11,3.11,0,0,0,1.2-2.67q.19-1,.46-1h.18l.09.37-.09,1.47.09.37a.66.66,0,0,0-.09.28q.09,1.2.37,1.2h0v0l.06,0a1.09,1.09,0,0,0,.56-.39,5.69,5.69,0,0,0,.41-.81c.18,0,.23.15.13.42q-.47,1.43-1.15,1.43Z"/><path class="cls-1" d="M309,131.57h.21q.35,0,.73,2.45h.11A7.42,7.42,0,0,1,312,131.7q.47,0,.7,1.41a4.88,4.88,0,0,0,.4,1.59.48.48,0,0,0,.34.18,7.83,7.83,0,0,0,1.37-2c0,.08,0,.12.11.12q-.8,2.69-2.09,2.69l-.3-.18a5.12,5.12,0,0,1-.74-2.39l-.21-.12a7,7,0,0,0-1.46,2.45h-.42q-.24,0-.73-2.69h-.1q-.32,0-.84,2.57l-.42.25q-.34,0-.84-2.57h-.31a6.72,6.72,0,0,0-.71,1.59c-.21,0-.31-.08-.31-.24a4.24,4.24,0,0,1,1.43-2.45h.11q.62.47.62.85H308A9.58,9.58,0,0,0,309,131.57Z"/><path class="cls-1" d="M315.9,130.67q.8,0,.83,1a4.84,4.84,0,0,1-.83,2.67c.09.25.18.37.28.37h.28q.67,0,1.38-1.1a.66.66,0,0,1,.09.28q-.68,1.66-1.75,1.66a11,11,0,0,0-1.2-.09q0,.18-.64.37l-.09-.18v-.09a1,1,0,0,0,.46-.74,6.76,6.76,0,0,1-.37-1.84A2.21,2.21,0,0,1,315.9,130.67ZM315,133a1.31,1.31,0,0,0,.46,1,3.08,3.08,0,0,0,.74-2.21c-.09-.25-.18-.37-.28-.37h-.28Q315,131.73,315,133Z"/><path class="cls-1" d="M320.73,131.21h.37a15.85,15.85,0,0,1,.55,3.87H322a13.24,13.24,0,0,1,1.47-2.49v.18q-1,2.94-1.93,2.95h-.18q-.55-.28-.55-2.58v-.46c0-.32-.09-.5-.28-.55h-.09a23.74,23.74,0,0,0-.55,3l-.46.46q-.28-.09-.28-.55v-1.2a6.26,6.26,0,0,0-.28-1.47h-.28q-.64,2-.83,2h-.09v-.09a4.09,4.09,0,0,1,1.1-2.76h.28q.11,0,.64.83h.18A2.43,2.43,0,0,1,320.73,131.21Z"/><path class="cls-1" d="M323.55,124.67a.66.66,0,0,0,.28.09q0,1.29,0,2t0,1.38q0,.64.06,1.24c0,.4.1.6.24.6q1.69-.09,2.85-.09a.65.65,0,0,0,.28.09q0,.34-3.22.55l-.09.64v.28q0,3.59.64,3.59h.09s.16-.08.33-.25a4,4,0,0,0,.5-.59q.24-.34.25-.1a1.4,1.4,0,0,1-.19.63q-.57,1-1.17,1-1,0-1-2.39,0-.8-.06-1.33t0-1.43l-1.1.09-.42-.06-.18-.09q.05-.4,1.71-.58,0-.66,0-1.46t0-1.32q0-.52,0-1.33A1.5,1.5,0,0,1,323.55,124.67Z"/><path class="cls-1" d="M327.47,131.33q1,0,1,2v.34q0,1.78-1.4,2.06-1.11-.17-1.2-1.89v-.58A1.9,1.9,0,0,1,327.47,131.33Zm-.63,1a2.42,2.42,0,0,0-.2.78,6.38,6.38,0,0,0,0,1,1,1,0,0,0,.53.88h.09a2.92,2.92,0,0,0,.64-2.3q0-.64-.37-.74h-.18A.52.52,0,0,0,326.84,132.34Z"/><path class="cls-1" d="M331.72,129.46a.65.65,0,0,0,.28.09v.18a9.48,9.48,0,0,1-.64.92v.09q.08.49,1,3.23v.28q-.3,1.47-1.47,1.47a2,2,0,0,1-.92-.74q.18-.55.37-.55h.18q.36.55.74.55h.09c.09,0,.17-.07.25-.2a1,1,0,0,0,0-.67,18.22,18.22,0,0,0-.82-2.36h-.09a24.35,24.35,0,0,0-2.09,3,3.27,3.27,0,0,1-.77.66h-.18v-.09l1.74-2.62,1.23-1.79Q331.16,129.46,331.72,129.46Z"/></g><path class="cls-1" d="M291.85,203.83l.78,0q.08.78.43.76a20.38,20.38,0,0,0-.25,3l.25,1.37a3.25,3.25,0,0,0-.31,1.57v.21c.07.26.21.38.43.37l1.74-.27a8.61,8.61,0,0,0,1.21.12,5.57,5.57,0,0,0,.76-.22,5.18,5.18,0,0,0,1.39.12v-.18a2.24,2.24,0,0,1,1.21.72q.06,1.37-6.61,1.7l-.19.41.1,2.15q.1,1.94.43,4.71a2,2,0,0,1-.72,1.41q-1.37.06-1.51-2.68l-.25-5.3c0-.19-.22-.37-.61-.55l-4.52.2a15.53,15.53,0,0,0-2.15.31q-.8-.27-.82-.55v-.2q0-.72,6.22-1.47l1.57-.08q.66,0,.84-7.12Z"/><path class="cls-1" d="M314.82,187.88q2.95,1.31,2.95,3.54,0,1.08-5.65,12.48v.47q4.42,8.22,4.42,10.84l.25.47q-1.15,9.65-7.12,9.65-4.13-1.49-4.66-7.77,0-4.6,3.68-12.95a83.38,83.38,0,0,1-4.66-9q0-1.19,2.95-1.88,0-1.76,5.65-5.42ZM307,196.59q2.33,4.66,2.7,4.7h.74q4.66-8.08,4.66-10.12a1.63,1.63,0,0,1-.25-.7h-1q-2.35,0-5.4,3.52Q307.71,194,307,196.59Zm2.95,10.84q-2.45,6.83-2.45,10.35V218q.8,5.18,2.7,5.17h.25q3.66-1.78,3.68-7.3,0-2.84-3.19-8.47Z"/><path class="cls-1" d="M327.48,189.74q4.23,0,5.65,9.57a44.7,44.7,0,0,1,.25,5.64v2.7q-1.47,12.91-4.17,15,0,1.54-2.7,2.7-1.74,0-3.93-3.19-1.47-6-1.47-18.41v-.25q0-2.19.25-4.91a11.42,11.42,0,0,1-.25-2.95q1.94-4.42,2.45-4.42A6,6,0,0,1,327.48,189.74Zm-4.42,16q.82,17.43,3.19,17.43,2.56,0,4.66-11.29,0-1.45.74-7.36a19.28,19.28,0,0,1-.49-3.68l.25-1.23q-1.56-7.85-3.19-7.85h-2a7.63,7.63,0,0,0-2.21,5.89Q323.23,197.59,323.06,205.69Z"/><path class="cls-1" d="M342.66,189.74q4.23,0,5.65,9.57a44.7,44.7,0,0,1,.25,5.64v2.7q-1.47,12.91-4.17,15,0,1.54-2.7,2.7-1.74,0-3.93-3.19-1.47-6-1.47-18.41v-.25q0-2.19.25-4.91a11.42,11.42,0,0,1-.25-2.95q1.94-4.42,2.45-4.42A6,6,0,0,1,342.66,189.74Zm-4.42,16q.82,17.43,3.19,17.43,2.56,0,4.66-11.29,0-1.45.74-7.36a19.28,19.28,0,0,1-.49-3.68l.25-1.23q-1.56-7.85-3.19-7.85h-2a7.63,7.63,0,0,0-2.21,5.89Q338.41,197.59,338.24,205.69Z"/><path class="cls-1" d="M300.31,239.67q1.6,0,1.93,2.12,0,1.52-2.49,2.3-.12.37-.83.37h-.28q.09,1.1.09,2.39.06,2.91.18,4.88-.09,2.49-.64,2.67a.66.66,0,0,1-.55-.71,4.28,4.28,0,0,1,.37-1.5q-.18-6.62-.18-9.39-.09-1.14-.09-1.2,0-.82,2.21-1.93Zm-1.66,2.12v1.38a1.21,1.21,0,0,0,.92.55q1.73,0,2-2,0-1.08-1.66-1.38A1.41,1.41,0,0,0,298.65,241.79Z"/><path class="cls-1" d="M305.73,239.93a.72.72,0,0,1,.1.3,14.62,14.62,0,0,1-.2,1.61,10.29,10.29,0,0,0,.31,1.41h.2a7.48,7.48,0,0,0,1.2-1.79h.1l.2.1a6.17,6.17,0,0,1-1.69,2.59h-.21q-.44-.11-.7-1.3h-.11q-1.18,1.81-1.8,1.81c-.34,0-.52-.39-.54-1.16l0-.85q.44-2.52,2.52-2.52Zm-2.51,3.19a2,2,0,0,0,.1.83h.2a4.73,4.73,0,0,0,1.4-2.31.62.62,0,0,0-.7-.71Q303.65,240.93,303.23,243.12Z"/><path class="cls-1" d="M309.85,239.78h.37a15.85,15.85,0,0,1,.55,3.87h.37a13.24,13.24,0,0,1,1.47-2.49v.18q-1,2.94-1.93,2.95h-.18q-.55-.28-.55-2.58v-.46c0-.32-.09-.5-.28-.55h-.09a23.74,23.74,0,0,0-.55,3l-.46.46q-.28-.09-.28-.55v-1.2A6.26,6.26,0,0,0,308,241h-.28q-.64,2-.83,2h-.09v-.09a4.09,4.09,0,0,1,1.1-2.76h.28q.11,0,.64.83H309A2.43,2.43,0,0,1,309.85,239.78Z"/><path class="cls-1" d="M313.61,238.2h.18q.18,0,.18.18a15,15,0,0,0-.36,3.41v1.53h.18l1.34-1.26h.09v.18l-1.62,2.25a22.24,22.24,0,0,1-2,10.14q-1.29,1.17-1.79,1.17h-.54a2,2,0,0,1-1.53-2.24v-.72q0-2.52,3.5-6.73,1.62-1.91,1.62-2.52v-1.53h-.09a15,15,0,0,0-1.52,2h-.18v-.36q1.88-2.35,1.88-3.86Q313.22,238.2,313.61,238.2Zm-5.29,15.07q.26,1.89,1.26,1.89h.18q2,0,2.79-6.46a22.22,22.22,0,0,0,.18-3.14v-.08h-.18Q308.32,249.88,308.32,253.27Z"/><path class="cls-1" d="M318.51,229.84q1.29,0,1.29,2.67t-2.21,8.84a4.92,4.92,0,0,0-.64,1.38v.09q.08.73.45.87a.87.87,0,0,0,.69,0,2.21,2.21,0,0,0,.71-.58,4.63,4.63,0,0,0,.73-1.2h.34a7.75,7.75,0,0,1-.53,1.07,3.29,3.29,0,0,1-.8.92,1.89,1.89,0,0,1-.87.43q-.39.05-1.27-.62-.21,0-.83,1.2h-.09c-.06-.18-.12-.28-.18-.28l.74-1.84v-.09q-.33-1.95-.39-2.77t-.07-3.4q.39-5.55,2.63-6.65Zm-2.27,6.69q0,1.12,0,1.87.12,3.31.46,3.31.54,0,2.21-6.17.37-2.65.37-3a8.48,8.48,0,0,0-.12-1.17q-.12-.79-.61-.85l-.31.09q-.87.23-1.72,3.22A17.75,17.75,0,0,0,316.24,236.53Z"/><path class="cls-1" d="M321,239.25q.8,0,.83,1a4.84,4.84,0,0,1-.83,2.67c.09.25.18.37.28.37h.28q.67,0,1.38-1.1a.66.66,0,0,1,.09.28q-.68,1.66-1.75,1.66A11,11,0,0,0,320,244q0,.18-.64.37l-.09-.18v-.09a1,1,0,0,0,.46-.74,6.76,6.76,0,0,1-.37-1.84A2.21,2.21,0,0,1,321,239.25Zm-.92,2.3a1.31,1.31,0,0,0,.46,1,3.08,3.08,0,0,0,.74-2.21c-.09-.25-.18-.37-.28-.37h-.28Q320,240.31,320,241.55Z"/><path class="cls-1" d="M323.49,233.25a.66.66,0,0,0,.28.09q0,1.29,0,2t0,1.38q0,.64.06,1.24c0,.4.1.6.24.6q1.69-.09,2.85-.09a.65.65,0,0,0,.28.09q0,.34-3.22.55l-.09.64v.28q0,3.59.64,3.59h.09s.16-.08.33-.25a4,4,0,0,0,.5-.59q.24-.34.25-.1a1.4,1.4,0,0,1-.19.63q-.57,1-1.17,1-1,0-1-2.39,0-.8-.06-1.33t0-1.43l-1.1.09-.42-.06-.18-.09q.05-.4,1.71-.58,0-.66,0-1.46t0-1.32q0-.52,0-1.33A1.5,1.5,0,0,1,323.49,233.25Z"/><path class="cls-1" d="M327.42,239.9q1,0,1,2v.34q0,1.78-1.4,2.06-1.11-.17-1.2-1.89v-.58A1.9,1.9,0,0,1,327.42,239.9Zm-.63,1a2.42,2.42,0,0,0-.2.78,6.38,6.38,0,0,0,0,1,1,1,0,0,0,.53.88h.09a2.92,2.92,0,0,0,.64-2.3q0-.64-.37-.74h-.18A.52.52,0,0,0,326.79,240.92Z"/><path class="cls-1" d="M331.67,238a.65.65,0,0,0,.28.09v.18a9.48,9.48,0,0,1-.64.92v.09q.08.49,1,3.23v.28q-.3,1.47-1.47,1.47a2,2,0,0,1-.92-.74q.18-.55.37-.55h.18q.36.55.74.55h.09c.09,0,.17-.07.25-.2a1,1,0,0,0,0-.67,18.22,18.22,0,0,0-.82-2.36h-.09a24.35,24.35,0,0,0-2.09,3,3.27,3.27,0,0,1-.77.66h-.18v-.09l1.74-2.62,1.23-1.79Q331.1,238,331.67,238Z"/><path class="cls-1" d="M157.44,250.51l.78,0q.08.78.43.76a20.43,20.43,0,0,0-.25,3l.25,1.37a3.25,3.25,0,0,0-.31,1.57v.21q.1.39.43.37l1.74-.27a8.61,8.61,0,0,0,1.21.12,5.52,5.52,0,0,0,.76-.22,5.18,5.18,0,0,0,1.39.12v-.18a2.25,2.25,0,0,1,1.21.72q.06,1.37-6.61,1.7l-.18.41.1,2.15q.1,1.94.43,4.71a2,2,0,0,1-.72,1.41q-1.37.06-1.51-2.68l-.25-5.3q0-.29-.61-.55l-4.52.2a15.53,15.53,0,0,0-2.15.31q-.8-.27-.82-.55v-.2q0-.72,6.22-1.47L156,258q.65,0,.84-7.12Z"/><path class="cls-1" d="M182,237.38q2.33,0,3.93,4-.49,1.57-1,1.58h-.25q-1.47-2.64-2.7-2.64h-1.72q-5.69,5.09-6.38,9.51a34.63,34.63,0,0,0-2.21,11.64h.25q5.77-6.61,9.08-6.61,2.64,0,3.68,5a12.74,12.74,0,0,1-6.38,11.35q-2.21.49-2.21.8-6.87-2.47-6.87-11.37,0-7.81,5.89-18.49Q179.43,237.38,182,237.38Zm-9.57,27.49q1.21,4.5,4.17,4.5,2.43,0,5.15-4.77a12.25,12.25,0,0,0,.49-4.23q0-2.9-1.72-2.91H180a13.89,13.89,0,0,0-7.36,6.61A2,2,0,0,0,172.39,264.87Z"/><path class="cls-1" d="M195.1,236.42q4.23,0,5.65,9.57a44.77,44.77,0,0,1,.25,5.64v2.7q-1.47,12.91-4.17,15,0,1.54-2.7,2.7-1.74,0-3.93-3.19-1.47-6-1.47-18.41v-.25q0-2.19.25-4.91a11.39,11.39,0,0,1-.25-2.95q1.94-4.42,2.45-4.42A6,6,0,0,1,195.1,236.42Zm-4.42,16q.82,17.43,3.19,17.43,2.56,0,4.66-11.29,0-1.45.74-7.36a19.27,19.27,0,0,1-.49-3.68l.25-1.23q-1.55-7.85-3.19-7.85h-2a7.63,7.63,0,0,0-2.21,5.89Q190.84,244.27,190.68,252.37Z"/><path class="cls-1" d="M210.27,236.42q4.23,0,5.65,9.57a44.77,44.77,0,0,1,.25,5.64v2.7q-1.47,12.91-4.17,15,0,1.54-2.7,2.7-1.74,0-3.93-3.19-1.47-6-1.47-18.41v-.25q0-2.19.25-4.91a11.39,11.39,0,0,1-.25-2.95q1.94-4.42,2.45-4.42A6,6,0,0,1,210.27,236.42Zm-4.42,16q.82,17.43,3.19,17.43,2.56,0,4.66-11.29,0-1.45.74-7.36a19.27,19.27,0,0,1-.49-3.68l.25-1.23q-1.55-7.85-3.19-7.85h-2a7.63,7.63,0,0,0-2.21,5.89Q206,244.27,205.86,252.37Z"/><path class="cls-1" d="M225.57,233.22q3.44.16,3,9.22l0,.74q-.49,8.24-6.65,23.3l-.1,2,.49,0q.45,0,2.19-5.05l1-.7h.25q.43,0,1.28,3.17a17.54,17.54,0,0,0,1.22,3.66,2,2,0,0,0,1.09.74q.73.22,2.42-1.25a.22.22,0,0,0,.23.27,3.33,3.33,0,0,1-1.43,2,2.91,2.91,0,0,1-1.73.63,3.24,3.24,0,0,1-1.64-1q-1-1-1.85-4.51h-.25q-2.48,4.56-3.4,4.52l-.49,0q-1.19-.86-1.19-1-1.9,1.66-2.76,1.62l0-.49a18,18,0,0,0,2.33-2.84l.06-1.47a95.74,95.74,0,0,1-.59-14.52l.1-2.45q.59-14,4.85-16A3,3,0,0,1,225.57,233.22ZM220.93,250q-.41,9.45.41,13.54l.49,0a79.48,79.48,0,0,0,4.33-12.78,63.25,63.25,0,0,0,1.27-8,22.84,22.84,0,0,0-.31-6.16q-.56-2.89-2.83-1.93Q221.38,236.09,220.93,250Z"/><path class="cls-1" d="M154.13,276.7h.09c.12,0,.18.08.18.18l-.37,5.52V283q0,1.44.09,2.39v.37a1.29,1.29,0,0,0,.28.83v.28l-.18.28q.12,2.58,1,3.08a.8.8,0,0,0,.62-.32,4.41,4.41,0,0,0,.57-.95c.18-.25.27-.21.26.11a3,3,0,0,1-.79,1.52,1,1,0,0,1-1.05.21,2,2,0,0,1-.87-1.25l-.18-.09h-.09q-.73,1.93-1.56,1.93t-.83-1.47v-.09a4.27,4.27,0,0,1,2.12-4l-.09-1.1Q153.51,276.7,154.13,276.7Zm-2,13.9q.93,0,1.38-2.76a7.72,7.72,0,0,1-.18-1h-.09q-1,0-1.29,2.39A2.61,2.61,0,0,0,152.1,290.6Z"/><path class="cls-1" d="M158,285.92q.8,0,.83,1a4.85,4.85,0,0,1-.83,2.67q.14.37.28.37h.28q.67,0,1.38-1.1a.66.66,0,0,1,.09.28q-.67,1.66-1.75,1.66a11,11,0,0,0-1.2-.09q0,.18-.64.37l-.09-.18v-.09a1,1,0,0,0,.46-.74,6.75,6.75,0,0,1-.37-1.84A2.21,2.21,0,0,1,158,285.92Zm-.92,2.3a1.31,1.31,0,0,0,.46,1,3.08,3.08,0,0,0,.74-2.21c-.09-.25-.18-.37-.28-.37h-.28Q157,287,157,288.22Z"/><path class="cls-1" d="M167.58,286.61a.72.72,0,0,1,.1.3,14.51,14.51,0,0,1-.2,1.61,10.29,10.29,0,0,0,.31,1.41h.2a7.47,7.47,0,0,0,1.2-1.79h.1l.2.1a6.17,6.17,0,0,1-1.7,2.59h-.21q-.44-.11-.7-1.3h-.11q-1.18,1.81-1.8,1.81t-.54-1.16l0-.85q.44-2.52,2.52-2.52Zm-2.51,3.19a2,2,0,0,0,.1.83h.2a4.73,4.73,0,0,0,1.4-2.31.62.62,0,0,0-.7-.71Q165.49,287.61,165.07,289.8Z"/><path class="cls-1" d="M171.28,286.35q1.6,0,1.93,2.12,0,1.52-2.48,2.3-.12.37-.83.37h-.28q.09,1.1.09,2.39.06,2.91.18,4.88-.09,2.49-.64,2.67a.66.66,0,0,1-.55-.71,4.27,4.27,0,0,1,.37-1.5q-.18-6.62-.18-9.39-.09-1.14-.09-1.2,0-.82,2.21-1.93Zm-1.66,2.12v1.38a1.21,1.21,0,0,0,.92.55q1.73,0,2-2,0-1.08-1.66-1.38A1.41,1.41,0,0,0,169.62,288.47Z"/><path class="cls-1" d="M175.18,286.58q1,0,1,2v.34q0,1.78-1.4,2.06-1.11-.17-1.2-1.89v-.58A1.9,1.9,0,0,1,175.18,286.58Zm-.63,1a2.4,2.4,0,0,0-.2.78,6.48,6.48,0,0,0,0,1,1,1,0,0,0,.53.88H175a2.92,2.92,0,0,0,.64-2.3q0-.64-.37-.74h-.18A.52.52,0,0,0,174.55,287.6Z"/><path class="cls-1" d="M177.33,286.9q.15.14.14.71t0,1.49q.07,1,.5,1.14h.18a2.82,2.82,0,0,0,.84-1q.11-.22.19-.18c.06,0,.06.09,0,.22a2.44,2.44,0,0,1-.38.76,2.07,2.07,0,0,1-.89.82l-.28.05q-.9-.09-.78-2.85Q177,286.88,177.33,286.9Zm.43-2.83.28,0c.12,0,.18.09.18.19l0,.28c0,.12-.19.24-.48.34a.5.5,0,0,1-.35-.38Q177.57,284.1,177.76,284.07Z"/><path class="cls-1" d="M180.61,286.58q1,0,1,2v.34q0,1.78-1.4,2.06-1.11-.17-1.2-1.89v-.58A1.9,1.9,0,0,1,180.61,286.58Zm-.63,1a2.4,2.4,0,0,0-.2.78,6.48,6.48,0,0,0,0,1,1,1,0,0,0,.53.88h.09a2.92,2.92,0,0,0,.64-2.3q0-.64-.37-.74h-.18A.52.52,0,0,0,180,287.6Z"/><path class="cls-1" d="M189.24,286.35q1.6,0,1.93,2.12,0,1.52-2.48,2.3-.12.37-.83.37h-.28q.09,1.1.09,2.39.06,2.91.18,4.88-.09,2.49-.64,2.67a.66.66,0,0,1-.55-.71,4.27,4.27,0,0,1,.37-1.5q-.18-6.62-.18-9.39-.09-1.14-.09-1.2,0-.82,2.21-1.93Zm-1.66,2.12v1.38a1.21,1.21,0,0,0,.92.55q1.73,0,2-2,0-1.08-1.66-1.38A1.41,1.41,0,0,0,187.59,288.47Z"/><path class="cls-1" d="M194.44,284.71a.65.65,0,0,0,.28.09V285a9.51,9.51,0,0,1-.64.92V286q.08.49,1,3.23v.28q-.3,1.47-1.47,1.47a2,2,0,0,1-.92-.74q.18-.55.37-.55h.18q.36.55.74.55H194c.09,0,.17-.07.25-.2a1,1,0,0,0,0-.67,18.1,18.1,0,0,0-.82-2.36h-.09a24.24,24.24,0,0,0-2.09,3,3.25,3.25,0,0,1-.77.66h-.18v-.09L192.1,288l1.23-1.79Q193.87,284.71,194.44,284.71Z"/><path class="cls-1" d="M196.24,286.9q.15.14.14.71t0,1.49q.07,1,.5,1.14H197a2.82,2.82,0,0,0,.84-1q.11-.22.19-.18c.06,0,.06.09,0,.22a2.44,2.44,0,0,1-.38.76,2.07,2.07,0,0,1-.89.82l-.28.05q-.9-.09-.78-2.85Q195.9,286.88,196.24,286.9Zm.43-2.83.28,0c.12,0,.18.09.18.19l0,.28c0,.12-.19.24-.48.34a.5.5,0,0,1-.35-.38Q196.48,284.1,196.67,284.07Z"/><path class="cls-1" d="M199.39,286.23q.48,0,.8.7-.05.33-.31.25c-.17-.33-.33-.51-.5-.52a1.77,1.77,0,0,0-.71,1.45,3,3,0,0,0,.18,1.63.75.75,0,0,0,.74.5q.66-.15,1.53-1.69l.19.22a6.09,6.09,0,0,1-1.14,1.72,1.56,1.56,0,0,1-1.05.43,1.41,1.41,0,0,1-1.09-1,3.25,3.25,0,0,1-.12-1.63,3.39,3.39,0,0,1,.6-1.39A1.32,1.32,0,0,1,199.39,286.23Z"/><path class="cls-1" d="M202.48,286.58q1,0,1,2v.34q0,1.78-1.4,2.06-1.11-.17-1.2-1.89v-.58A1.9,1.9,0,0,1,202.48,286.58Zm-.63,1a2.4,2.4,0,0,0-.2.78,6.48,6.48,0,0,0,0,1,1,1,0,0,0,.53.88h.09a2.92,2.92,0,0,0,.64-2.3q0-.64-.37-.74h-.18A.52.52,0,0,0,201.85,287.6Z"/><path class="cls-1" d="M206.92,276.52q1.29,0,1.29,2.67T206,288a4.92,4.92,0,0,0-.64,1.38v.09q.08.73.45.87a.87.87,0,0,0,.69,0,2.22,2.22,0,0,0,.71-.58,4.6,4.6,0,0,0,.73-1.2h.34a7.69,7.69,0,0,1-.53,1.07,3.27,3.27,0,0,1-.8.92,1.88,1.88,0,0,1-.87.43q-.39.05-1.27-.62-.21,0-.83,1.2h-.09c-.06-.18-.12-.28-.18-.28l.74-1.84v-.09q-.33-1.95-.4-2.77t-.07-3.4q.39-5.55,2.63-6.65Zm-2.27,6.69q0,1.12,0,1.87.12,3.31.46,3.31.54,0,2.21-6.17.37-2.65.37-3a8.43,8.43,0,0,0-.12-1.17q-.12-.79-.61-.85l-.31.09q-.87.23-1.72,3.22A17.67,17.67,0,0,0,204.65,283.21Z"/><path class="cls-1" d="M209.3,286.58q1,0,1,2v.34q0,1.78-1.4,2.06-1.11-.17-1.2-1.89v-.58A1.9,1.9,0,0,1,209.3,286.58Zm-.63,1a2.4,2.4,0,0,0-.2.78,6.48,6.48,0,0,0,0,1,1,1,0,0,0,.53.88h.09a2.92,2.92,0,0,0,.64-2.3q0-.64-.37-.74h-.18A.52.52,0,0,0,208.67,287.6Zm2.24-5.48a.59.59,0,0,0,.29,0q.2.8-2.24,3.14l-.36.09,0-.18Q208.9,285.1,210.9,282.12Z"/><path class="cls-1" d="M212.37,286.78h.37q.37.19.37.46h.28l.46-.28q.46.1.46.74a7,7,0,0,0-.18,1.38v.55h.28q2.78-2.22,4.43-2.3.37.14.37.28a.43.43,0,0,1-.26.46l-.38-.09h-.09a9,9,0,0,0-4.25,2.67,1.07,1.07,0,0,0-.18.55v.09a7,7,0,0,0,.09,1.38q0,6.84-4,9.27a3.1,3.1,0,0,1-1.84.34,1.69,1.69,0,0,1-1.05-.64,3,3,0,0,1-.38-1.61q0-3.14,6.26-9.11v-.74h-.18a3.45,3.45,0,0,1-1.29.74q-.88,0-1-1.29A3.63,3.63,0,0,1,212.37,286.78Zm.55,5.06a22.19,22.19,0,0,0-3.13,3.41q-.28,0-1.56,2.12a5.88,5.88,0,0,0-.68,2.95,1.54,1.54,0,0,0,1.42,1.47q1.63,0,3.46-3.36a15.76,15.76,0,0,0,.77-5.38v-.46Q213.2,291.9,212.92,291.84Zm-1.47-2.49v.28q0,.55.37.55.55,0,1.2-1.66v-.18a2.17,2.17,0,0,0-.64-.74Q211.75,287.61,211.45,289.36Z"/><path class="cls-1" d="M219.26,286.9q.15.14.14.71t0,1.49q.07,1,.5,1.14H220a2.82,2.82,0,0,0,.84-1q.11-.22.19-.18c.06,0,.06.09,0,.22a2.44,2.44,0,0,1-.38.76,2.07,2.07,0,0,1-.89.82l-.28.05q-.9-.09-.78-2.85Q218.92,286.88,219.26,286.9Zm.43-2.83.28,0c.12,0,.18.09.18.19l0,.28c0,.12-.19.24-.48.34a.5.5,0,0,1-.35-.38Q219.49,284.1,219.68,284.07Z"/><path class="cls-1" d="M222.41,286.23q.48,0,.8.7-.05.33-.31.25c-.17-.33-.33-.51-.5-.52a1.77,1.77,0,0,0-.71,1.45,3,3,0,0,0,.18,1.63.75.75,0,0,0,.74.5q.66-.15,1.53-1.69l.19.22a6.09,6.09,0,0,1-1.14,1.72,1.56,1.56,0,0,1-1.05.43,1.41,1.41,0,0,1-1.09-1,3.25,3.25,0,0,1-.12-1.63,3.39,3.39,0,0,1,.6-1.39A1.32,1.32,0,0,1,222.41,286.23Z"/><path class="cls-1" d="M225.5,286.58q1,0,1,2v.34q0,1.78-1.4,2.06-1.11-.17-1.2-1.89v-.58A1.9,1.9,0,0,1,225.5,286.58Zm-.63,1a2.4,2.4,0,0,0-.2.78,6.48,6.48,0,0,0,0,1,1,1,0,0,0,.53.88h.09A2.92,2.92,0,0,0,226,288q0-.64-.37-.74h-.18A.52.52,0,0,0,224.87,287.6Z"/><path class="cls-1" d="M168.22,305.43q1,0,1,2v.34q0,1.78-1.4,2.06-1.11-.17-1.2-1.89v-.58A1.9,1.9,0,0,1,168.22,305.43Zm-.63,1a2.4,2.4,0,0,0-.2.78,6.48,6.48,0,0,0,0,1,1,1,0,0,0,.53.88H168a2.92,2.92,0,0,0,.64-2.3q0-.64-.37-.74h-.18A.52.52,0,0,0,167.58,306.45Z"/><path class="cls-1" d="M172.34,295.55h.09c.12,0,.18.08.18.18l-.37,5.52v.55q0,1.44.09,2.39v.37a1.29,1.29,0,0,0,.28.83v.28l-.18.28q.12,2.58,1,3.08a.8.8,0,0,0,.62-.32,4.41,4.41,0,0,0,.57-.95c.18-.25.27-.21.26.11a3,3,0,0,1-.79,1.52,1,1,0,0,1-1.05.21,2,2,0,0,1-.87-1.25l-.18-.09h-.09q-.73,1.93-1.56,1.93t-.83-1.47v-.09a4.27,4.27,0,0,1,2.12-4l-.09-1.1Q171.72,295.55,172.34,295.55Zm-2,13.9q.93,0,1.38-2.76a7.72,7.72,0,0,1-.18-1h-.09q-1,0-1.29,2.39A2.61,2.61,0,0,0,170.32,309.45Z"/><path class="cls-1" d="M176.12,305.43q1,0,1,2v.34q0,1.78-1.4,2.06-1.11-.17-1.2-1.89v-.58A1.9,1.9,0,0,1,176.12,305.43Zm-.63,1a2.4,2.4,0,0,0-.2.78,6.48,6.48,0,0,0,0,1,1,1,0,0,0,.53.88h.09a2.92,2.92,0,0,0,.64-2.3q0-.64-.37-.74H176A.52.52,0,0,0,175.48,306.45Z"/><path class="cls-1" d="M180.49,305.31h.37a15.92,15.92,0,0,1,.55,3.87h.37a13.24,13.24,0,0,1,1.47-2.49v.18q-1,2.94-1.93,2.95h-.18q-.55-.28-.55-2.58v-.46q0-.48-.28-.55h-.09a23.76,23.76,0,0,0-.55,3l-.46.46q-.28-.09-.28-.55V308a6.28,6.28,0,0,0-.28-1.47h-.28q-.64,2-.83,2h-.09v-.09a4.09,4.09,0,0,1,1.1-2.76h.28q.11,0,.64.83h.18A2.43,2.43,0,0,1,180.49,305.31Z"/><path class="cls-1" d="M183.3,298.78a.66.66,0,0,0,.28.09q0,1.29,0,2t0,1.38q0,.64.06,1.24t.24.6q1.69-.09,2.85-.09a.65.65,0,0,0,.28.09q0,.34-3.22.55l-.09.64v.28q0,3.59.64,3.59h.09s.16-.08.33-.25a4,4,0,0,0,.5-.59q.24-.34.25-.1a1.4,1.4,0,0,1-.19.63q-.57,1-1.17,1-1,0-1-2.39,0-.8-.06-1.33t0-1.43l-1.1.09-.42-.06-.18-.09q.05-.4,1.71-.58,0-.66,0-1.46t0-1.32q0-.52,0-1.33A1.5,1.5,0,0,1,183.3,298.78Z"/><path class="cls-1" d="M187.23,305.43q1,0,1,2v.34q0,1.78-1.4,2.06-1.11-.17-1.2-1.89v-.58A1.9,1.9,0,0,1,187.23,305.43Zm-.63,1a2.4,2.4,0,0,0-.2.78,6.48,6.48,0,0,0,0,1,1,1,0,0,0,.53.88H187a2.92,2.92,0,0,0,.64-2.3q0-.64-.37-.74h-.18A.52.52,0,0,0,186.6,306.45Z"/><path class="cls-1" d="M191.67,295.37q1.29,0,1.29,2.67t-2.21,8.84a4.92,4.92,0,0,0-.64,1.38v.09q.08.73.45.87a.87.87,0,0,0,.69,0,2.22,2.22,0,0,0,.71-.58,4.6,4.6,0,0,0,.73-1.2H193a7.69,7.69,0,0,1-.53,1.07,3.27,3.27,0,0,1-.8.92,1.88,1.88,0,0,1-.87.43q-.39.05-1.27-.62-.21,0-.83,1.2h-.09c-.06-.18-.12-.28-.18-.28l.74-1.84v-.09q-.33-1.95-.4-2.77t-.07-3.4q.39-5.55,2.63-6.65Zm-2.27,6.69q0,1.12,0,1.87.12,3.31.46,3.31.54,0,2.21-6.17.37-2.65.37-3a8.43,8.43,0,0,0-.12-1.17q-.12-.79-.61-.85l-.31.09q-.87.23-1.72,3.22A17.67,17.67,0,0,0,189.4,302.06Z"/><path class="cls-1" d="M194,305.43q1,0,1,2v.34q0,1.78-1.4,2.06-1.11-.17-1.2-1.89v-.58A1.9,1.9,0,0,1,194,305.43Zm-.63,1a2.4,2.4,0,0,0-.2.78,6.48,6.48,0,0,0,0,1,1,1,0,0,0,.53.88h.09a2.92,2.92,0,0,0,.64-2.3q0-.64-.37-.74H194A.52.52,0,0,0,193.42,306.45Zm2.24-5.48a.59.59,0,0,0,.29,0q.2.8-2.24,3.14l-.36.09,0-.18Q193.65,303.94,195.65,301Z"/><path class="cls-1" d="M197.12,305.63h.37q.37.19.37.46h.28l.46-.28q.46.1.46.74a7,7,0,0,0-.18,1.38v.55h.28q2.78-2.22,4.43-2.3.37.14.37.28a.43.43,0,0,1-.26.46l-.38-.09h-.09A9,9,0,0,0,199,309.5a1.07,1.07,0,0,0-.18.55v.09a7,7,0,0,0,.09,1.38q0,6.84-4,9.27a3.1,3.1,0,0,1-1.84.34,1.69,1.69,0,0,1-1.05-.64,3,3,0,0,1-.38-1.61q0-3.14,6.26-9.11V309h-.18a3.45,3.45,0,0,1-1.29.74q-.88,0-1-1.29A3.63,3.63,0,0,1,197.12,305.63Zm.55,5.06a22.19,22.19,0,0,0-3.13,3.41q-.28,0-1.56,2.12a5.88,5.88,0,0,0-.68,2.95,1.54,1.54,0,0,0,1.42,1.47q1.63,0,3.46-3.36a15.76,15.76,0,0,0,.77-5.38v-.46Q197.94,310.75,197.67,310.69Zm-1.47-2.49v.28q0,.55.37.55.55,0,1.2-1.66v-.18a2.17,2.17,0,0,0-.64-.74Q196.5,306.46,196.2,308.21Z"/><path class="cls-1" d="M204,305.75q.15.14.14.71t0,1.49q.07,1,.5,1.14h.18a2.82,2.82,0,0,0,.84-1q.11-.22.19-.18c.06,0,.06.09,0,.22a2.44,2.44,0,0,1-.38.76,2.07,2.07,0,0,1-.89.82l-.28.05q-.9-.09-.78-2.85Q203.67,305.73,204,305.75Zm.43-2.83.28,0c.12,0,.18.09.18.19l0,.28c0,.12-.19.24-.48.34a.5.5,0,0,1-.35-.38Q204.24,302.95,204.43,302.92Z"/><path class="cls-1" d="M207.16,305.08q.48,0,.8.7-.05.33-.31.25c-.17-.33-.33-.51-.5-.52a1.77,1.77,0,0,0-.71,1.45,3,3,0,0,0,.18,1.63.75.75,0,0,0,.74.5q.66-.15,1.53-1.69l.19.22a6.09,6.09,0,0,1-1.14,1.72,1.56,1.56,0,0,1-1.05.43,1.41,1.41,0,0,1-1.09-1,3.25,3.25,0,0,1-.12-1.63,3.39,3.39,0,0,1,.6-1.39A1.32,1.32,0,0,1,207.16,305.08Z"/><path class="cls-1" d="M210.25,305.43q1,0,1,2v.34q0,1.78-1.4,2.06-1.11-.17-1.2-1.89v-.58A1.9,1.9,0,0,1,210.25,305.43Zm-.63,1a2.4,2.4,0,0,0-.2.78,6.48,6.48,0,0,0,0,1,1,1,0,0,0,.53.88h.09a2.92,2.92,0,0,0,.64-2.3q0-.64-.37-.74h-.18A.52.52,0,0,0,209.61,306.45Z"/><path class="cls-1" d="M32.52,203.83l.78,0q.08.78.43.76a20.43,20.43,0,0,0-.25,3l.25,1.37a3.25,3.25,0,0,0-.31,1.57v.21q.1.39.43.37l1.74-.27a8.61,8.61,0,0,0,1.21.12,5.52,5.52,0,0,0,.76-.22,5.18,5.18,0,0,0,1.39.12v-.18a2.25,2.25,0,0,1,1.21.72q.06,1.37-6.61,1.7l-.18.41.1,2.15q.1,1.94.43,4.71a2,2,0,0,1-.72,1.41q-1.37.06-1.51-2.68l-.25-5.3q0-.29-.61-.55l-4.52.2a15.53,15.53,0,0,0-2.15.31q-.8-.27-.82-.55v-.2q0-.72,6.22-1.47l1.57-.08q.65,0,.84-7.12Z"/><path class="cls-1" d="M56.84,191.62a2.8,2.8,0,0,1,1.47,2.62q-.88,9.78-1.17,21.27l.29,2.29-.29,1.64q.29,2.84.29,4.91l-1.17,1q-1.64,0-2.07-9.49.59-4.64.88-10.8a23.84,23.84,0,0,1-.29-3.93h-.29q-.53,0-5,7.53-5.71,7.85-7.34,7.85v-.65q7-8.73,7-9.82a87.41,87.41,0,0,0,7.06-14.07Z"/><path class="cls-1" d="M70,189.74q4.23,0,5.65,9.57a44.77,44.77,0,0,1,.25,5.64v2.7q-1.47,12.91-4.17,15,0,1.54-2.7,2.7-1.74,0-3.93-3.19-1.47-6-1.47-18.41v-.25q0-2.19.25-4.91a11.39,11.39,0,0,1-.25-2.95q1.94-4.42,2.45-4.42A6,6,0,0,1,70,189.74Zm-4.42,16q.82,17.43,3.19,17.43,2.56,0,4.66-11.29,0-1.45.74-7.36a19.27,19.27,0,0,1-.49-3.68l.25-1.23q-1.55-7.85-3.19-7.85h-2a7.63,7.63,0,0,0-2.21,5.89Q65.76,197.59,65.6,205.69Z"/><path class="cls-1" d="M11.57,238.2h.18q.18,0,.18.18a14.93,14.93,0,0,0-.36,3.41v1.53h.18l1.34-1.26h.09v.18l-1.62,2.25a22.22,22.22,0,0,1-2,10.14q-1.29,1.17-1.79,1.17H7.26a2,2,0,0,1-1.53-2.24v-.72q0-2.52,3.5-6.73,1.62-1.91,1.62-2.52v-1.53h-.09a15,15,0,0,0-1.52,2H9.07v-.36q1.88-2.35,1.88-3.86Q11.18,238.2,11.57,238.2ZM6.27,253.27q.26,1.89,1.26,1.89h.18q2,0,2.78-6.46a22.14,22.14,0,0,0,.18-3.14v-.08h-.18Q6.27,249.88,6.27,253.27Z"/><path class="cls-1" d="M16.51,239.93a.72.72,0,0,1,.1.3,14.51,14.51,0,0,1-.2,1.61,10.29,10.29,0,0,0,.31,1.41h.2a7.47,7.47,0,0,0,1.2-1.79h.1l.2.1a6.17,6.17,0,0,1-1.7,2.59h-.21q-.44-.11-.7-1.3H15.7q-1.18,1.81-1.8,1.81t-.54-1.16l0-.85q.44-2.52,2.52-2.52ZM14,243.12a2,2,0,0,0,.1.83h.2a4.73,4.73,0,0,0,1.4-2.31.62.62,0,0,0-.7-.71Q14.42,240.93,14,243.12Z"/><path class="cls-1" d="M21,240.15h.21q.35,0,.73,2.45h.11a7.42,7.42,0,0,1,1.88-2.32q.47,0,.7,1.41a4.91,4.91,0,0,0,.4,1.59.48.48,0,0,0,.35.18,7.83,7.83,0,0,0,1.37-2c0,.08,0,.12.11.12q-.8,2.69-2.09,2.69l-.3-.18a5.13,5.13,0,0,1-.74-2.39l-.21-.12a7,7,0,0,0-1.46,2.45h-.42q-.24,0-.73-2.69h-.1q-.32,0-.84,2.57l-.42.25q-.34,0-.84-2.57H18.4a6.72,6.72,0,0,0-.71,1.59c-.21,0-.31-.08-.31-.24a4.23,4.23,0,0,1,1.43-2.45h.11q.62.47.62.85H20A9.58,9.58,0,0,0,21,240.15Z"/><path class="cls-1" d="M27,240.22q.15.14.14.71t0,1.49q.07,1,.5,1.14h.18a2.82,2.82,0,0,0,.84-1q.11-.22.19-.18c.06,0,.06.09,0,.22a2.44,2.44,0,0,1-.38.76,2.07,2.07,0,0,1-.89.82l-.28.05q-.9-.09-.78-2.85Q26.66,240.2,27,240.22Zm.28-2.16h.18v.37c0,.09-.09.18-.28.28H27.1a.16.16,0,0,1-.18-.18Q27.09,238.1,27.28,238.06Zm2.58-4.48c0,.11.08.17.17.17q-.17.92-2.35,2.78h-.17q.64-.73,2.19-2.86Z"/><path class="cls-1" d="M31.76,229.84q1.29,0,1.29,2.67t-2.21,8.84a4.92,4.92,0,0,0-.64,1.38v.09q.08.73.45.87a.87.87,0,0,0,.69,0,2.22,2.22,0,0,0,.71-.58,4.6,4.6,0,0,0,.73-1.2h.34a7.69,7.69,0,0,1-.53,1.07,3.27,3.27,0,0,1-.8.92,1.88,1.88,0,0,1-.87.43q-.39.05-1.27-.62-.21,0-.83,1.2h-.09c-.06-.18-.12-.28-.18-.28l.74-1.84v-.09q-.33-1.95-.4-2.77t-.07-3.4q.39-5.55,2.63-6.65Zm-2.27,6.69q0,1.12,0,1.87.12,3.31.46,3.31.54,0,2.21-6.17.37-2.65.37-3a8.43,8.43,0,0,0-.12-1.17q-.12-.79-.61-.85l-.31.09q-.87.23-1.72,3.22A17.67,17.67,0,0,0,29.49,236.53Z"/><path class="cls-1" d="M33.33,240.22q.15.14.14.71t0,1.49q.07,1,.5,1.14h.18a2.82,2.82,0,0,0,.84-1q.11-.22.19-.18c.06,0,.06.09,0,.22a2.44,2.44,0,0,1-.38.76,2.07,2.07,0,0,1-.89.82l-.28.05q-.9-.09-.78-2.85Q33,240.2,33.33,240.22Zm.43-2.83.28,0c.12,0,.18.09.18.19l0,.28c0,.12-.19.24-.48.34a.5.5,0,0,1-.35-.38Q33.56,237.42,33.76,237.39Z"/><path class="cls-1" d="M38.13,239.93a.72.72,0,0,1,.1.3,14.51,14.51,0,0,1-.2,1.61,10.29,10.29,0,0,0,.31,1.41h.2a7.47,7.47,0,0,0,1.2-1.79h.1l.2.1a6.17,6.17,0,0,1-1.7,2.59h-.21q-.44-.11-.7-1.3h-.11q-1.18,1.81-1.8,1.81T35,243.5l0-.85q.44-2.52,2.52-2.52Zm-2.51,3.19a2,2,0,0,0,.1.83h.2a4.73,4.73,0,0,0,1.4-2.31.62.62,0,0,0-.7-.71Q36,240.93,35.62,243.12Z"/><path class="cls-1" d="M42.12,238a.65.65,0,0,0,.28.09v.18a9.51,9.51,0,0,1-.64.92v.09q.08.49,1,3.23v.28q-.3,1.47-1.47,1.47a2,2,0,0,1-.92-.74q.18-.55.37-.55h.18q.36.55.74.55h.09c.09,0,.17-.07.25-.2a1,1,0,0,0,0-.67,18.1,18.1,0,0,0-.82-2.36H41.1a24.24,24.24,0,0,0-2.09,3,3.25,3.25,0,0,1-.77.66h-.18v-.09l1.74-2.62L41,239.51Q41.56,238,42.12,238Z"/><path class="cls-1" d="M49.47,239.25q.8,0,.83,1a4.85,4.85,0,0,1-.83,2.67q.14.37.28.37H50q.67,0,1.38-1.1a.66.66,0,0,1,.09.28q-.67,1.66-1.75,1.66a11,11,0,0,0-1.2-.09q0,.18-.64.37l-.09-.18v-.09a1,1,0,0,0,.46-.74,6.75,6.75,0,0,1-.37-1.84A2.21,2.21,0,0,1,49.47,239.25Zm-.92,2.3a1.31,1.31,0,0,0,.46,1,3.08,3.08,0,0,0,.74-2.21c-.09-.25-.18-.37-.28-.37H49.2Q48.55,240.31,48.55,241.55Z"/><path class="cls-1" d="M54.69,240.15h.21q.35,0,.73,2.45h.11a7.42,7.42,0,0,1,1.88-2.32q.47,0,.7,1.41a4.91,4.91,0,0,0,.4,1.59.48.48,0,0,0,.35.18,7.83,7.83,0,0,0,1.37-2c0,.08,0,.12.11.12q-.8,2.69-2.09,2.69l-.3-.18a5.13,5.13,0,0,1-.74-2.39l-.21-.12a7,7,0,0,0-1.46,2.45h-.42q-.24,0-.73-2.69h-.1q-.32,0-.84,2.57l-.42.25q-.34,0-.84-2.57h-.31a6.72,6.72,0,0,0-.71,1.59c-.21,0-.31-.08-.31-.24a4.23,4.23,0,0,1,1.43-2.45h.11q.62.47.62.85h.42A9.58,9.58,0,0,0,54.69,240.15Z"/><path class="cls-1" d="M66,239.55q.48,0,.8.7-.05.33-.31.25c-.17-.33-.33-.51-.5-.52a1.77,1.77,0,0,0-.71,1.45,3,3,0,0,0,.18,1.63.75.75,0,0,0,.74.5q.66-.15,1.53-1.69l.19.22a6.09,6.09,0,0,1-1.14,1.72,1.56,1.56,0,0,1-1.05.43,1.41,1.41,0,0,1-1.09-1,3.25,3.25,0,0,1-.12-1.63,3.39,3.39,0,0,1,.6-1.39A1.32,1.32,0,0,1,66,239.55Z"/><path class="cls-1" d="M70.51,244.24a1.26,1.26,0,0,1-.64-1h-.09a6.3,6.3,0,0,1-.94,1,.89.89,0,0,1-.43.1q-.84-.28-.84-2.18v-1.38A.87.87,0,0,1,68,240a.5.5,0,0,1,.37.37,10.78,10.78,0,0,1-.16,1.26,11.43,11.43,0,0,0,.08,1.4q.08.56.26.56a3.11,3.11,0,0,0,1.2-2.67q.19-1,.46-1h.18l.09.37-.09,1.47.09.37a.66.66,0,0,0-.09.28q.09,1.2.37,1.2h0v0l.06,0a1.09,1.09,0,0,0,.56-.39,5.59,5.59,0,0,0,.41-.81c.18,0,.23.15.13.42q-.47,1.43-1.15,1.43Z"/><path class="cls-1" d="M72.86,239.15h.37a2.8,2.8,0,0,0,1.1,1.84q.76,2.76,2.12,2.76A7.14,7.14,0,0,0,78,242.38a.08.08,0,0,0,.09.09q0,.7-1.84,1.84l-.46.09q-1.1,0-2-2.85a1.11,1.11,0,0,0-.83-.55,11.71,11.71,0,0,1-1.21,2.09l0-.28a7.26,7.26,0,0,0,.79-2.28l-.09-.64Q72.64,239.15,72.86,239.15Z"/><path class="cls-1" d="M80.64,238a.65.65,0,0,0,.28.09v.18a9.51,9.51,0,0,1-.64.92v.09q.08.49,1,3.23v.28q-.3,1.47-1.47,1.47a2,2,0,0,1-.92-.74q.18-.55.37-.55h.18q.36.55.74.55h.09c.09,0,.17-.07.25-.2a1,1,0,0,0,0-.67,18.1,18.1,0,0,0-.82-2.36h-.09a24.24,24.24,0,0,0-2.09,3,3.25,3.25,0,0,1-.77.66h-.18v-.09l1.74-2.62,1.23-1.79Q80.07,238,80.64,238Z"/><path class="cls-1" d="M83.25,239.91q1,0,1,2v.34q0,1.78-1.4,2.06-1.11-.17-1.2-1.89v-.58A1.9,1.9,0,0,1,83.25,239.91Zm-.63,1a2.4,2.4,0,0,0-.2.78,6.48,6.48,0,0,0,0,1,1,1,0,0,0,.53.88h.09a2.92,2.92,0,0,0,.64-2.3q0-.64-.37-.74h-.18A.52.52,0,0,0,82.62,240.92Z"/><path class="cls-1" d="M87.5,238a.65.65,0,0,0,.28.09v.18a9.51,9.51,0,0,1-.64.92v.09q.08.49,1,3.23v.28q-.3,1.47-1.47,1.47a2,2,0,0,1-.92-.74q.18-.55.37-.55h.18q.36.55.74.55h.09c.09,0,.17-.07.25-.2a1,1,0,0,0,0-.67,18.1,18.1,0,0,0-.82-2.36h-.09a24.24,24.24,0,0,0-2.09,3,3.25,3.25,0,0,1-.77.66h-.18v-.09l1.74-2.62,1.23-1.79Q86.93,238,87.5,238Z"/><g id="_Group_2" data-name="&lt;Group&gt;"><path class="cls-1" d="M66.5,63.27q2.33,0,3.93,4-.49,1.57-1,1.58H69.2q-1.47-2.64-2.7-2.64H64.78q-5.69,5.09-6.38,9.51a34.63,34.63,0,0,0-2.21,11.64h.25q5.77-6.61,9.08-6.61,2.64,0,3.68,5A12.74,12.74,0,0,1,62.82,97.1q-2.21.49-2.21.8-6.87-2.47-6.87-11.37,0-7.81,5.89-18.49Q64,63.27,66.5,63.27ZM56.93,90.76q1.21,4.5,4.17,4.5,2.43,0,5.15-4.77a12.25,12.25,0,0,0,.49-4.23q0-2.9-1.72-2.91h-.49A13.89,13.89,0,0,0,57.17,90,2,2,0,0,0,56.93,90.76Z"/><path class="cls-1" d="M3.15,112.5a.72.72,0,0,1,.1.3,14.51,14.51,0,0,1-.2,1.61,10.29,10.29,0,0,0,.31,1.41h.2A7.47,7.47,0,0,0,4.76,114h.1l.2.1a6.17,6.17,0,0,1-1.7,2.59H3.15q-.44-.11-.7-1.3H2.35q-1.18,1.81-1.8,1.81T0,116.07l0-.85q.44-2.52,2.52-2.52ZM.64,115.69a2,2,0,0,0,.1.83h.2a4.73,4.73,0,0,0,1.4-2.31.62.62,0,0,0-.7-.71Q1.07,113.51.64,115.69Z"/><path class="cls-1" d="M7.15,110.61a.65.65,0,0,0,.28.09v.18a9.51,9.51,0,0,1-.64.92v.09q.08.49,1,3.23v.28q-.3,1.47-1.47,1.47a2,2,0,0,1-.92-.74q.18-.55.37-.55h.18q.36.55.74.55h.09c.09,0,.17-.07.25-.2a1,1,0,0,0,0-.67,18.1,18.1,0,0,0-.82-2.36H6.12a24.24,24.24,0,0,0-2.09,3,3.25,3.25,0,0,1-.77.66H3.08v-.09l1.74-2.62L6,112.08Q6.58,110.61,7.15,110.61Z"/><path class="cls-1" d="M11.05,110.61a.65.65,0,0,0,.28.09v.18a9.51,9.51,0,0,1-.64.92v.09q.08.49,1,3.23v.28q-.3,1.47-1.47,1.47a2,2,0,0,1-.92-.74q.18-.55.37-.55h.18q.36.55.74.55h.09c.09,0,.17-.07.25-.2a1,1,0,0,0,0-.67,18.1,18.1,0,0,0-.82-2.36H10a24.24,24.24,0,0,0-2.09,3,3.25,3.25,0,0,1-.77.66H7v-.09l1.74-2.62,1.23-1.79Q10.49,110.61,11.05,110.61Z"/><path class="cls-1" d="M12.86,112.79q.15.14.14.71t0,1.49q.07,1,.5,1.14h.18a2.82,2.82,0,0,0,.84-1q.11-.22.19-.18c.06,0,.06.09,0,.22a2.44,2.44,0,0,1-.38.76,2.07,2.07,0,0,1-.89.82l-.28.05q-.9-.09-.78-2.85Q12.52,112.78,12.86,112.79Zm.43-2.83.28,0c.12,0,.18.09.18.19l0,.28c0,.12-.19.24-.48.34a.5.5,0,0,1-.35-.38Q13.09,110,13.28,110Z"/><path class="cls-1" d="M17.43,110.61a.65.65,0,0,0,.28.09v.18a9.51,9.51,0,0,1-.64.92v.09q.08.49,1,3.23v.28q-.3,1.47-1.47,1.47a2,2,0,0,1-.92-.74q.18-.55.37-.55h.18q.36.55.74.55H17c.09,0,.17-.07.25-.2a1,1,0,0,0,0-.67,18.1,18.1,0,0,0-.82-2.36H16.4a24.24,24.24,0,0,0-2.09,3,3.25,3.25,0,0,1-.77.66h-.18v-.09l1.74-2.62,1.23-1.79Q16.86,110.61,17.43,110.61Z"/><path class="cls-1" d="M19.16,105.82a.66.66,0,0,0,.28.09q0,1.29,0,2t0,1.38q0,.64.06,1.24t.24.6q1.69-.09,2.85-.09a.65.65,0,0,0,.28.09q0,.34-3.22.55l-.09.64v.28q0,3.59.64,3.59h.09s.16-.08.33-.25a4,4,0,0,0,.5-.59q.24-.34.25-.1a1.4,1.4,0,0,1-.19.63q-.57,1-1.17,1-1,0-1-2.39,0-.8-.06-1.33t0-1.43l-1.1.09-.42-.06-.18-.09q.05-.4,1.71-.58,0-.66,0-1.46t0-1.32q0-.52,0-1.33A1.5,1.5,0,0,1,19.16,105.82Z"/><path class="cls-1" d="M22.27,112.79q.15.14.14.71t0,1.49q.07,1,.5,1.14H23a2.82,2.82,0,0,0,.84-1q.11-.22.19-.18c.06,0,.06.09,0,.22a2.44,2.44,0,0,1-.38.76,2.07,2.07,0,0,1-.89.82l-.28.05q-.9-.09-.78-2.85Q21.94,112.78,22.27,112.79ZM22.7,110l.28,0c.12,0,.18.09.18.19l0,.28c0,.12-.19.24-.48.34a.5.5,0,0,1-.35-.38Q22.51,110,22.7,110Z"/><path class="cls-1" d="M26.72,102.6h.09c.12,0,.18.08.18.18l-.37,5.52v.55q0,1.44.09,2.39v.37a1.29,1.29,0,0,0,.28.83v.28l-.18.28q.12,2.58,1,3.08a.8.8,0,0,0,.62-.32,4.41,4.41,0,0,0,.57-.95c.18-.25.27-.21.26.11a3,3,0,0,1-.79,1.52,1,1,0,0,1-1.05.21,2,2,0,0,1-.87-1.25l-.18-.09h-.09q-.73,1.93-1.56,1.93t-.83-1.47v-.09a4.27,4.27,0,0,1,2.12-4l-.09-1.1Q26.1,102.6,26.72,102.6Zm-2,13.9q.93,0,1.38-2.76a7.72,7.72,0,0,1-.18-1H25.8q-1,0-1.29,2.39A2.61,2.61,0,0,0,24.7,116.5Z"/><path class="cls-1" d="M30.5,112.48q1,0,1,2v.34q0,1.78-1.4,2.06-1.11-.17-1.2-1.89v-.58A1.9,1.9,0,0,1,30.5,112.48Zm-.63,1a2.4,2.4,0,0,0-.2.78,6.48,6.48,0,0,0,0,1,1,1,0,0,0,.53.88h.09a2.92,2.92,0,0,0,.64-2.3q0-.64-.37-.74H30.4A.52.52,0,0,0,29.86,113.49Z"/><path class="cls-1" d="M34.75,110.61a.65.65,0,0,0,.28.09v.18a9.51,9.51,0,0,1-.64.92v.09q.08.49,1,3.23v.28q-.3,1.47-1.47,1.47a2,2,0,0,1-.92-.74q.18-.55.37-.55h.18q.36.55.74.55h.09c.09,0,.17-.07.25-.2a1,1,0,0,0,0-.67,18.1,18.1,0,0,0-.82-2.36h-.09a24.24,24.24,0,0,0-2.09,3,3.25,3.25,0,0,1-.77.66h-.18v-.09l1.74-2.62,1.23-1.79Q34.18,110.61,34.75,110.61Z"/><path class="cls-1" d="M37.53,114.33a.57.57,0,0,1,.64.64v.18q-.3,2-.55,2l-1.1,1.66-.83.83H35.5v-.18a15,15,0,0,0,1.56-3,3.52,3.52,0,0,0,.18-.92l-.09-.64Q37.35,114.33,37.53,114.33Z"/><path class="cls-1" d="M46.41,112.5a.72.72,0,0,1,.1.3,14.51,14.51,0,0,1-.2,1.61,10.29,10.29,0,0,0,.31,1.41h.2A7.47,7.47,0,0,0,48,114h.1l.2.1a6.17,6.17,0,0,1-1.7,2.59h-.21q-.44-.11-.7-1.3h-.11q-1.18,1.81-1.8,1.81t-.54-1.16l0-.85q.44-2.52,2.52-2.52Zm-2.51,3.19a2,2,0,0,0,.1.83h.2a4.73,4.73,0,0,0,1.4-2.31.62.62,0,0,0-.7-.71Q44.33,113.51,43.9,115.69Z"/><path class="cls-1" d="M48.65,103.33h.18q-.16.86-.28,6.35v1.93q.09,1.46.09,1.75h.18a2.79,2.79,0,0,1,1.38-2.21h.37a2.16,2.16,0,0,1,.83,1.93v.18A4.3,4.3,0,0,1,49,117.42h-.83q-.13,0-.28-.28v-.28l.92.09h.28a3.55,3.55,0,0,0,1.66-3.31v-.55q-.18-1.29-.64-1.29-.78,0-1.1,4.69h-.28q-.83,0-.86-5.44,0-2.55,0-4.3Q48,103.34,48.65,103.33Z"/><path class="cls-1" d="M52.74,111.73h.37a2.8,2.8,0,0,0,1.1,1.84q.76,2.76,2.12,2.76a7.14,7.14,0,0,0,1.56-1.38A.08.08,0,0,0,58,115q0,.7-1.84,1.84l-.46.09q-1.1,0-2-2.85a1.11,1.11,0,0,0-.83-.55,11.71,11.71,0,0,1-1.21,2.09l0-.28a7.26,7.26,0,0,0,.79-2.28l-.09-.64Q52.53,111.73,52.74,111.73Z"/><path class="cls-1" d="M58.42,112.79q.15.14.14.71t0,1.49q.07,1,.5,1.14h.18a2.82,2.82,0,0,0,.84-1q.11-.22.19-.18c.06,0,.06.09,0,.22a2.44,2.44,0,0,1-.38.76,2.07,2.07,0,0,1-.89.82l-.28.05q-.9-.09-.78-2.85Q58.08,112.78,58.42,112.79Zm.43-2.83.28,0c.12,0,.18.09.18.19l0,.28c0,.12-.19.24-.48.34a.5.5,0,0,1-.35-.38Q58.65,110,58.85,110Z"/><path class="cls-1" d="M61.81,112.68h.37q.37.19.37.46h.28l.46-.28q.46.1.46.74a7,7,0,0,0-.18,1.38v.55h.28q2.78-2.22,4.43-2.3.37.14.37.28a.43.43,0,0,1-.26.46l-.38-.09H67.9a9,9,0,0,0-4.25,2.67,1.07,1.07,0,0,0-.18.55v.09a7,7,0,0,0,.09,1.38q0,6.84-4,9.27a3.1,3.1,0,0,1-1.84.34,1.69,1.69,0,0,1-1.05-.64,3,3,0,0,1-.38-1.61q0-3.14,6.26-9.11v-.74h-.18a3.45,3.45,0,0,1-1.29.74q-.88,0-1-1.29A3.63,3.63,0,0,1,61.81,112.68Zm.55,5.06a22.19,22.19,0,0,0-3.13,3.41q-.28,0-1.56,2.12a5.88,5.88,0,0,0-.68,2.95,1.54,1.54,0,0,0,1.42,1.47q1.63,0,3.46-3.36a15.76,15.76,0,0,0,.77-5.38v-.46Q62.63,117.79,62.36,117.74Zm-1.47-2.49v.28q0,.55.37.55.55,0,1.2-1.66v-.18a2.17,2.17,0,0,0-.64-.74Q61.19,113.51,60.89,115.25Z"/><path class="cls-1" d="M69.51,112.48q1,0,1,2v.34q0,1.78-1.4,2.06-1.11-.17-1.2-1.89v-.58A1.9,1.9,0,0,1,69.51,112.48Zm-.63,1a2.4,2.4,0,0,0-.2.78,6.48,6.48,0,0,0,0,1,1,1,0,0,0,.53.88h.09a2.92,2.92,0,0,0,.64-2.3q0-.64-.37-.74h-.18A.52.52,0,0,0,68.87,113.49Z"/><path class="cls-1" d="M77.14,112.48q1,0,1,2v.34q0,1.78-1.4,2.06-1.11-.17-1.2-1.89v-.58A1.9,1.9,0,0,1,77.14,112.48Zm-.63,1a2.4,2.4,0,0,0-.2.78,6.48,6.48,0,0,0,0,1,1,1,0,0,0,.53.88H77a2.92,2.92,0,0,0,.64-2.3q0-.64-.37-.74H77A.52.52,0,0,0,76.51,113.49Z"/><path class="cls-1" d="M81.49,116.81a1.26,1.26,0,0,1-.64-1h-.09a6.3,6.3,0,0,1-.94,1,.89.89,0,0,1-.43.1q-.84-.28-.84-2.18v-1.38a.87.87,0,0,1,.46-.74.5.5,0,0,1,.37.37,10.78,10.78,0,0,1-.16,1.26,11.43,11.43,0,0,0,.08,1.4q.08.56.26.56a3.11,3.11,0,0,0,1.2-2.67q.19-1,.46-1h.18l.09.37-.09,1.47.09.37a.66.66,0,0,0-.09.28q.09,1.2.37,1.2h0v0l.06,0a1.09,1.09,0,0,0,.56-.39,5.59,5.59,0,0,0,.41-.81c.18,0,.23.15.13.42q-.47,1.43-1.15,1.43Z"/><path class="cls-1" d="M88.38,111.73h.37a2.8,2.8,0,0,0,1.1,1.84q.76,2.76,2.12,2.76a7.14,7.14,0,0,0,1.56-1.38.08.08,0,0,0,.09.09q0,.7-1.84,1.84l-.46.09q-1.1,0-2-2.85a1.11,1.11,0,0,0-.83-.55,11.71,11.71,0,0,1-1.21,2.09l0-.28a7.26,7.26,0,0,0,.79-2.28l-.09-.64Q88.17,111.73,88.38,111.73Z"/><path class="cls-1" d="M94.93,111.82q.8,0,.83,1a4.85,4.85,0,0,1-.83,2.67q.14.37.28.37h.28q.67,0,1.38-1.1A.66.66,0,0,1,97,115q-.67,1.66-1.75,1.66a11,11,0,0,0-1.2-.09q0,.18-.64.37l-.09-.18v-.09a1,1,0,0,0,.46-.74,6.75,6.75,0,0,1-.37-1.84A2.21,2.21,0,0,1,94.93,111.82Zm-.92,2.3a1.31,1.31,0,0,0,.46,1,3.08,3.08,0,0,0,.74-2.21c-.09-.25-.18-.37-.28-.37h-.28Q94,112.88,94,114.12Z"/><path class="cls-1" d="M97.47,105.82a.66.66,0,0,0,.28.09q0,1.29,0,2t0,1.38q0,.64.06,1.24t.24.6q1.69-.09,2.85-.09a.65.65,0,0,0,.28.09q0,.34-3.22.55l-.09.64v.28q0,3.59.64,3.59h.09s.16-.08.33-.25a4,4,0,0,0,.5-.59q.24-.34.25-.1a1.4,1.4,0,0,1-.19.63q-.57,1-1.17,1-1,0-1-2.39,0-.8-.06-1.33t0-1.43l-1.1.09-.42-.06-.18-.09q.05-.4,1.71-.58,0-.66,0-1.46t0-1.32q0-.52,0-1.33A1.5,1.5,0,0,1,97.47,105.82Z"/><path class="cls-1" d="M101.4,112.48q1,0,1,2v.34q0,1.78-1.4,2.06-1.11-.17-1.2-1.89v-.58A1.9,1.9,0,0,1,101.4,112.48Zm-.63,1a2.4,2.4,0,0,0-.2.78,6.48,6.48,0,0,0,0,1,1,1,0,0,0,.53.88h.09a2.92,2.92,0,0,0,.64-2.3q0-.64-.37-.74h-.18A.52.52,0,0,0,100.77,113.49Z"/><path class="cls-1" d="M103.66,111.73H104a2.8,2.8,0,0,0,1.1,1.84q.76,2.76,2.12,2.76a7.14,7.14,0,0,0,1.56-1.38.08.08,0,0,0,.09.09q0,.7-1.84,1.84l-.46.09q-1.1,0-2-2.85a1.11,1.11,0,0,0-.83-.55,11.71,11.71,0,0,1-1.21,2.09l0-.28a7.26,7.26,0,0,0,.79-2.28l-.09-.64Q103.45,111.73,103.66,111.73Z"/><path class="cls-1" d="M111.56,112.36h.37a15.92,15.92,0,0,1,.55,3.87h.37a13.24,13.24,0,0,1,1.47-2.49v.18q-1,2.94-1.93,2.95h-.18q-.55-.28-.55-2.58v-.46q0-.48-.28-.55h-.09a23.76,23.76,0,0,0-.55,3l-.46.46q-.28-.09-.28-.55V115a6.28,6.28,0,0,0-.28-1.47h-.28q-.64,2-.83,2h-.09v-.09a4.09,4.09,0,0,1,1.1-2.76h.28q.11,0,.64.83h.18A2.43,2.43,0,0,1,111.56,112.36Z"/><path class="cls-1" d="M115.26,112.48q1,0,1,2v.34q0,1.78-1.4,2.06-1.11-.17-1.2-1.89v-.58A1.9,1.9,0,0,1,115.26,112.48Zm-.63,1a2.4,2.4,0,0,0-.2.78,6.48,6.48,0,0,0,0,1,1,1,0,0,0,.53.88h.09a2.92,2.92,0,0,0,.64-2.3q0-.64-.37-.74h-.18A.52.52,0,0,0,114.63,113.49Z"/><path class="cls-1" d="M124.41,112.5a.72.72,0,0,1,.1.3,14.51,14.51,0,0,1-.2,1.61,10.29,10.29,0,0,0,.31,1.41h.2A7.47,7.47,0,0,0,126,114h.1l.2.1a6.17,6.17,0,0,1-1.7,2.59h-.21q-.44-.11-.7-1.3h-.11q-1.18,1.81-1.8,1.81t-.54-1.16l0-.85q.44-2.52,2.52-2.52Zm-2.51,3.19a2,2,0,0,0,.1.83h.2a4.73,4.73,0,0,0,1.4-2.31.62.62,0,0,0-.7-.71Q122.32,113.51,121.9,115.69Zm.49-6.7a19.25,19.25,0,0,1,2.53,1.49q1.06.35,1.06.7l-.17.09a9.35,9.35,0,0,1-3.51-1.58l-.18-.26v-.17C122.12,109.17,122.21,109.08,122.39,109Z"/><path class="cls-1" d="M39.76,124.67a.66.66,0,0,0,.28.09q0,1.29,0,2t0,1.38q0,.64.06,1.24t.24.6q1.69-.09,2.85-.09a.65.65,0,0,0,.28.09q0,.34-3.22.55l-.09.64v.28q0,3.59.64,3.59h.09s.16-.08.33-.25a4,4,0,0,0,.5-.59q.24-.34.25-.1a1.4,1.4,0,0,1-.19.63q-.57,1-1.17,1-1,0-1-2.39,0-.8-.06-1.33t0-1.43l-1.1.09-.42-.06-.18-.09q.05-.4,1.71-.58,0-.66,0-1.46t0-1.32q0-.52,0-1.33A1.5,1.5,0,0,1,39.76,124.67Z"/><path class="cls-1" d="M43.75,130.67q.8,0,.83,1a4.85,4.85,0,0,1-.83,2.67q.14.37.28.37h.28q.67,0,1.38-1.1a.66.66,0,0,1,.09.28q-.67,1.66-1.75,1.66a11,11,0,0,0-1.2-.09q0,.18-.64.37l-.09-.18v-.09a1,1,0,0,0,.46-.74,6.75,6.75,0,0,1-.37-1.84A2.21,2.21,0,0,1,43.75,130.67Zm-.92,2.3a1.31,1.31,0,0,0,.46,1,3.08,3.08,0,0,0,.74-2.21c-.09-.25-.18-.37-.28-.37h-.28Q42.83,131.73,42.83,133Z"/><path class="cls-1" d="M46.47,130.58h.37a2.8,2.8,0,0,0,1.1,1.84q.76,2.76,2.12,2.76a7.14,7.14,0,0,0,1.56-1.38.08.08,0,0,0,.09.09q0,.7-1.84,1.84l-.46.09q-1.1,0-2-2.85a1.11,1.11,0,0,0-.83-.55,11.71,11.71,0,0,1-1.21,2.09l0-.28A7.26,7.26,0,0,0,46.1,132l-.09-.64Q46.25,130.58,46.47,130.58Z"/><path class="cls-1" d="M52.26,130.58h.37a2.8,2.8,0,0,0,1.1,1.84q.76,2.76,2.12,2.76a7.14,7.14,0,0,0,1.56-1.38.08.08,0,0,0,.09.09q0,.7-1.84,1.84l-.46.09q-1.1,0-2-2.85a1.11,1.11,0,0,0-.83-.55,11.71,11.71,0,0,1-1.21,2.09l0-.28a7.26,7.26,0,0,0,.79-2.28l-.09-.64Q52,130.58,52.26,130.58Z"/><path class="cls-1" d="M60.27,131.35a.72.72,0,0,1,.1.3,14.51,14.51,0,0,1-.2,1.61,10.29,10.29,0,0,0,.31,1.41h.2a7.47,7.47,0,0,0,1.2-1.79H62l.2.1a6.17,6.17,0,0,1-1.7,2.59h-.21q-.44-.11-.7-1.3h-.11q-1.18,1.81-1.8,1.81t-.54-1.16l0-.85q.44-2.52,2.52-2.52Zm-2.51,3.19a2,2,0,0,0,.1.83h.2a4.73,4.73,0,0,0,1.4-2.31.62.62,0,0,0-.7-.71Q58.18,132.36,57.76,134.54Z"/><path class="cls-1" d="M69.06,131.21h.37a15.92,15.92,0,0,1,.55,3.87h.37a13.24,13.24,0,0,1,1.47-2.49v.18q-1,2.94-1.93,2.95H69.7q-.55-.28-.55-2.58v-.46q0-.48-.28-.55h-.09a23.76,23.76,0,0,0-.55,3l-.46.46q-.28-.09-.28-.55v-1.2a6.28,6.28,0,0,0-.28-1.47h-.28q-.64,2-.83,2H66v-.09a4.09,4.09,0,0,1,1.1-2.76h.28q.11,0,.64.83h.18A2.43,2.43,0,0,1,69.06,131.21Z"/><path class="cls-1" d="M74.27,131.35a.72.72,0,0,1,.1.3,14.51,14.51,0,0,1-.2,1.61,10.29,10.29,0,0,0,.31,1.41h.2a7.47,7.47,0,0,0,1.2-1.79H76l.2.1a6.17,6.17,0,0,1-1.7,2.59h-.21q-.44-.11-.7-1.3h-.11q-1.18,1.81-1.8,1.81t-.54-1.16l0-.85q.44-2.52,2.52-2.52Zm-2.51,3.19a2,2,0,0,0,.1.83h.2a4.73,4.73,0,0,0,1.4-2.31.62.62,0,0,0-.7-.71Q72.19,132.36,71.77,134.54Z"/><path class="cls-1" d="M76.1,124.67a.66.66,0,0,0,.28.09q0,1.29,0,2t0,1.38q0,.64.06,1.24t.24.6q1.69-.09,2.85-.09a.65.65,0,0,0,.28.09q0,.34-3.22.55l-.09.64v.28q0,3.59.64,3.59h.09s.16-.08.33-.25a4,4,0,0,0,.5-.59q.24-.34.25-.1a1.4,1.4,0,0,1-.19.63q-.57,1-1.17,1-1,0-1-2.39,0-.8-.06-1.33t0-1.43l-1.1.09-.42-.06-.18-.09q.05-.4,1.71-.58,0-.66,0-1.46t0-1.32q0-.52,0-1.33A1.5,1.5,0,0,1,76.1,124.67Z"/><path class="cls-1" d="M81.54,131.35a.72.72,0,0,1,.1.3,14.51,14.51,0,0,1-.2,1.61,10.29,10.29,0,0,0,.31,1.41H82a7.47,7.47,0,0,0,1.2-1.79h.1l.2.1a6.17,6.17,0,0,1-1.7,2.59h-.21q-.44-.11-.7-1.3h-.11q-1.18,1.81-1.8,1.81t-.54-1.16l0-.85q.44-2.52,2.52-2.52ZM79,134.54a2,2,0,0,0,.1.83h.2a4.73,4.73,0,0,0,1.4-2.31.62.62,0,0,0-.7-.71Q79.46,132.36,79,134.54Z"/><path class="cls-1" d="M85.73,121.26q1.29,0,1.29,2.67t-2.21,8.84a4.92,4.92,0,0,0-.64,1.38v.09q.08.73.45.87a.87.87,0,0,0,.69,0,2.22,2.22,0,0,0,.71-.58,4.6,4.6,0,0,0,.73-1.2h.34a7.69,7.69,0,0,1-.53,1.07,3.27,3.27,0,0,1-.8.92,1.88,1.88,0,0,1-.87.43q-.39.05-1.27-.62-.21,0-.83,1.2h-.09c-.06-.18-.12-.28-.18-.28l.74-1.84v-.09q-.33-1.95-.4-2.77t-.07-3.4q.39-5.55,2.63-6.65ZM83.46,128q0,1.12,0,1.87.12,3.31.46,3.31.54,0,2.21-6.17.37-2.65.37-3a8.43,8.43,0,0,0-.12-1.17q-.12-.79-.61-.85l-.31.09q-.87.23-1.72,3.22A17.67,17.67,0,0,0,83.46,128Z"/></g><path class="cls-1" d="M172.32,1.8q3.27,0,3.85,4.64a26.7,26.7,0,0,1-5.4,10.35v.55q5.91,2.95,5.91,7.36,0,7.75-13.36,10.62a22.1,22.1,0,0,1-4.62.55q-6.67,0-6.67-3.82.49-1.25,1-1.35h.51q0,3,5.13,3a11.43,11.43,0,0,0,5.67-1.08,1.78,1.78,0,0,0,.76.27q8.73-2.92,8.73-7.34,0-4.64-3.85-5.46h-.78a7.12,7.12,0,0,0-5.13,2.45l-1.29.27h-.25q-.51,0-.51-.53v-.82q0-.61,6.16-5.2,5.13-6,5.13-10.08-.18-1.9-.78-1.9h-1.29q-1.27,0-4.62,3.27h-.76q0-.55-.27-.55.9-2.78,6.18-5.17Z"/><path class="cls-1" d="M184.54,33.07q1.68.27,1.68.84v.57q0,.43-1.1,1.1h-.57q-.39,0-.84-.84v-1.1Q183.7,33.08,184.54,33.07Z"/><path class="cls-1" d="M207.77,1.23a1.75,1.75,0,0,0,.74.25A13.17,13.17,0,0,1,211,1.23h.25v.49q0,1.47-14.73,2.95Q194,6.38,194,7.61V9.33q0,3.58,6.14,13.25a15,15,0,0,1,1.23,4.17,12.41,12.41,0,0,1-4.17,6.38,23,23,0,0,1-5.4,2.45q-3.44,0-3.44-3.68a1.76,1.76,0,0,0,.25-.74h.25q1.64,2.21,3.44,2.21,6.38-3,6.38-6.87,0-2.29-5.65-11.78-1.47-2.19-1.47-7.85V4.66Q192.72,1.88,207.77,1.23Z"/><path class="cls-1" d="M214.71,0q4.23,0,5.65,9.57a44.77,44.77,0,0,1,.25,5.64v2.7q-1.47,12.91-4.17,15,0,1.54-2.7,2.7-1.74,0-3.93-3.19-1.47-6-1.47-18.41v-.25q0-2.19.25-4.91a11.39,11.39,0,0,1-.25-2.95q1.94-4.42,2.45-4.42A6,6,0,0,1,214.71,0Zm-4.42,16q.82,17.43,3.19,17.43,2.56,0,4.66-11.29,0-1.45.74-7.36a19.27,19.27,0,0,1-.49-3.68l.25-1.23Q217.08,2,215.44,2h-2a7.63,7.63,0,0,0-2.21,5.89Q210.45,7.85,210.29,16Z"/><path class="cls-1" d="M229.88,0q4.23,0,5.65,9.57a44.77,44.77,0,0,1,.25,5.64v2.7q-1.47,12.91-4.17,15,0,1.54-2.7,2.7-1.74,0-3.93-3.19-1.47-6-1.47-18.41v-.25q0-2.19.25-4.91a11.39,11.39,0,0,1-.25-2.95q1.94-4.42,2.45-4.42A6,6,0,0,1,229.88,0Zm-4.42,16q.82,17.43,3.19,17.43,2.56,0,4.66-11.29,0-1.45.74-7.36a19.27,19.27,0,0,1-.49-3.68l.25-1.23Q232.25,2,230.62,2h-2a7.63,7.63,0,0,0-2.21,5.89Q225.63,7.85,225.46,16Z"/><path class="cls-1" d="M164.09,39.9q1.29.06,1.14,3.46v.28a30,30,0,0,1-2.49,8.74l0,.74h.18q.17,0,.82-1.89l.38-.26h.09q.16,0,.48,1.19a6.49,6.49,0,0,0,.46,1.37.76.76,0,0,0,.41.28q.27.08.91-.47a.08.08,0,0,0,.08.1,1.25,1.25,0,0,1-.54.75,1.09,1.09,0,0,1-.65.24,1.22,1.22,0,0,1-.61-.39,3.88,3.88,0,0,1-.69-1.69h-.09Q163,54,162.66,54h-.18c-.3-.21-.44-.34-.44-.39-.48.42-.82.62-1,.61V54a6.72,6.72,0,0,0,.87-1.07l0-.55a35.83,35.83,0,0,1-.22-5.45l0-.92q.22-5.26,1.82-6A1.14,1.14,0,0,1,164.09,39.9Zm-1.74,6.28a23.88,23.88,0,0,0,.15,5.08h.18a29.79,29.79,0,0,0,1.62-4.79,23.72,23.72,0,0,0,.48-3,8.56,8.56,0,0,0-.12-2.31q-.21-1.08-1.06-.72Q162.52,41,162.35,46.18Z"/><path class="cls-1" d="M168.22,50.17q1,0,1,2v.34q0,1.78-1.4,2.06-1.11-.17-1.2-1.89v-.58A1.9,1.9,0,0,1,168.22,50.17Zm-.63,1a2.4,2.4,0,0,0-.2.78,6.48,6.48,0,0,0,0,1,1,1,0,0,0,.53.88H168a2.92,2.92,0,0,0,.64-2.3q0-.64-.37-.74h-.18A.52.52,0,0,0,167.59,51.18Z"/><path class="cls-1" d="M170.49,49.42h.37a2.8,2.8,0,0,0,1.1,1.84q.76,2.76,2.12,2.76a7.14,7.14,0,0,0,1.56-1.38.08.08,0,0,0,.09.09q0,.7-1.84,1.84l-.46.09q-1.1,0-2-2.85a1.11,1.11,0,0,0-.83-.55,11.71,11.71,0,0,1-1.21,2.09l0-.28a7.26,7.26,0,0,0,.79-2.28l-.09-.64Q170.27,49.42,170.49,49.42Z"/><path class="cls-1" d="M178.49,50.19a.72.72,0,0,1,.1.3,14.51,14.51,0,0,1-.2,1.61,10.29,10.29,0,0,0,.31,1.41h.2a7.47,7.47,0,0,0,1.2-1.79h.1l.2.1a6.17,6.17,0,0,1-1.7,2.59h-.21q-.44-.11-.7-1.3h-.11q-1.18,1.81-1.8,1.81t-.54-1.16l0-.85q.44-2.52,2.52-2.52ZM176,53.38a2,2,0,0,0,.1.83h.2a4.73,4.73,0,0,0,1.4-2.31.62.62,0,0,0-.7-.71Q176.41,51.2,176,53.38Z"/><path class="cls-1" d="M182.49,48.3a.65.65,0,0,0,.28.09v.18a9.51,9.51,0,0,1-.64.92v.09q.08.49,1,3.23v.28q-.3,1.47-1.47,1.47a2,2,0,0,1-.92-.74q.18-.55.37-.55h.18q.36.55.74.55h.09c.09,0,.17-.07.25-.2a1,1,0,0,0,0-.67,18.1,18.1,0,0,0-.82-2.36h-.09a24.24,24.24,0,0,0-2.09,3,3.25,3.25,0,0,1-.77.66h-.18v-.09l1.74-2.62,1.23-1.79Q181.92,48.3,182.49,48.3Z"/><path class="cls-1" d="M190.94,40.29H191c.12,0,.18.08.18.18L190.85,46v.55q0,1.44.09,2.39v.37a1.29,1.29,0,0,0,.28.83v.28l-.18.28q.12,2.58,1,3.08a.8.8,0,0,0,.62-.32,4.41,4.41,0,0,0,.57-.95c.18-.25.27-.21.26.11a3,3,0,0,1-.79,1.52,1,1,0,0,1-1.05.21,2,2,0,0,1-.87-1.25l-.18-.09h-.09q-.73,1.93-1.56,1.93t-.83-1.47v-.09a4.27,4.27,0,0,1,2.12-4l-.09-1.1Q190.32,40.29,190.94,40.29Zm-2,13.9q.93,0,1.38-2.76a7.72,7.72,0,0,1-.18-1H190q-1,0-1.29,2.39A2.61,2.61,0,0,0,188.92,54.19Z"/><path class="cls-1" d="M194.78,49.51q.8,0,.83,1a4.85,4.85,0,0,1-.83,2.67q.14.37.28.37h.28q.67,0,1.38-1.1a.66.66,0,0,1,.09.28q-.67,1.66-1.75,1.66a11,11,0,0,0-1.2-.09q0,.18-.64.37l-.09-.18v-.09a1,1,0,0,0,.46-.74,6.75,6.75,0,0,1-.37-1.84A2.21,2.21,0,0,1,194.78,49.51Zm-.92,2.3a1.31,1.31,0,0,0,.46,1,3.08,3.08,0,0,0,.74-2.21c-.09-.25-.18-.37-.28-.37h-.28Q193.86,50.57,193.86,51.81Z"/><path class="cls-1" d="M202.74,49.82q.48,0,.8.7-.05.33-.31.25c-.17-.33-.33-.51-.5-.52a1.77,1.77,0,0,0-.71,1.45,3,3,0,0,0,.18,1.63.75.75,0,0,0,.74.5q.66-.15,1.53-1.69l.19.22a6.09,6.09,0,0,1-1.14,1.72,1.56,1.56,0,0,1-1.05.43,1.41,1.41,0,0,1-1.09-1,3.25,3.25,0,0,1-.12-1.63,3.39,3.39,0,0,1,.6-1.39A1.32,1.32,0,0,1,202.74,49.82Z"/><path class="cls-1" d="M205.83,50.17q1,0,1,2v.34q0,1.78-1.4,2.06-1.11-.17-1.2-1.89v-.58A1.9,1.9,0,0,1,205.83,50.17Zm-.63,1a2.4,2.4,0,0,0-.2.78,6.48,6.48,0,0,0,0,1,1,1,0,0,0,.53.88h.09a2.92,2.92,0,0,0,.64-2.3q0-.64-.37-.74h-.18A.52.52,0,0,0,205.2,51.18Z"/><path class="cls-1" d="M210.2,50h.37a15.92,15.92,0,0,1,.55,3.87h.37A13.24,13.24,0,0,1,213,51.43v.18q-1,2.94-1.93,2.95h-.18q-.55-.28-.55-2.58v-.46q0-.48-.28-.55h-.09a23.76,23.76,0,0,0-.55,3l-.46.46q-.28-.09-.28-.55v-1.2a6.28,6.28,0,0,0-.28-1.47h-.28q-.64,2-.83,2h-.09v-.09a4.09,4.09,0,0,1,1.1-2.76h.28q.11,0,.64.83h.18A2.43,2.43,0,0,1,210.2,50Z"/><path class="cls-1" d="M215.06,49.24h.18l.09.37a24.16,24.16,0,0,1-.74,4.79l-.46.09A10.38,10.38,0,0,1,212,50.8q.14-.37.28-.37h.18a11.49,11.49,0,0,0,1.66,2.76h.09A39.73,39.73,0,0,1,215.06,49.24Z"/><path class="cls-1" d="M217.34,49.51q.8,0,.83,1a4.85,4.85,0,0,1-.83,2.67q.14.37.28.37h.28q.67,0,1.38-1.1a.66.66,0,0,1,.09.28q-.67,1.66-1.75,1.66a11,11,0,0,0-1.2-.09q0,.18-.64.37l-.09-.18v-.09a1,1,0,0,0,.46-.74,6.75,6.75,0,0,1-.37-1.84A2.21,2.21,0,0,1,217.34,49.51Zm-.92,2.3a1.31,1.31,0,0,0,.46,1,3.08,3.08,0,0,0,.74-2.21c-.09-.25-.18-.37-.28-.37h-.28Q216.42,50.57,216.42,51.81Z"/><path class="cls-1" d="M220.07,49.42h.37a2.8,2.8,0,0,0,1.1,1.84Q222.3,54,223.66,54a7.14,7.14,0,0,0,1.56-1.38.08.08,0,0,0,.09.09q0,.7-1.84,1.84l-.46.09q-1.1,0-2-2.85a1.11,1.11,0,0,0-.83-.55,11.71,11.71,0,0,1-1.21,2.09l0-.28a7.26,7.26,0,0,0,.79-2.28l-.09-.64Q219.85,49.42,220.07,49.42Z"/><path class="cls-1" d="M227.84,48.3a.65.65,0,0,0,.28.09v.18a9.51,9.51,0,0,1-.64.92v.09q.08.49,1,3.23v.28q-.3,1.47-1.47,1.47a2,2,0,0,1-.92-.74q.18-.55.37-.55h.18q.36.55.74.55h.09c.09,0,.17-.07.25-.2a1,1,0,0,0,0-.67,18.1,18.1,0,0,0-.82-2.36h-.09a24.24,24.24,0,0,0-2.09,3,3.25,3.25,0,0,1-.77.66h-.18v-.09l1.74-2.62,1.23-1.79Q227.28,48.3,227.84,48.3Z"/><path class="cls-1" d="M232,50.19a.72.72,0,0,1,.1.3,14.51,14.51,0,0,1-.2,1.61,10.29,10.29,0,0,0,.31,1.41h.2a7.47,7.47,0,0,0,1.2-1.79h.1l.2.1a6.17,6.17,0,0,1-1.7,2.59H232q-.44-.11-.7-1.3h-.11q-1.18,1.81-1.8,1.81t-.54-1.16l0-.85q.44-2.52,2.52-2.52Zm-2.51,3.19a2,2,0,0,0,.1.83h.2a4.73,4.73,0,0,0,1.4-2.31.62.62,0,0,0-.7-.71Q229.89,51.2,229.47,53.38Z"/><path class="cls-1" d="M254.94,27.2a30.69,30.69,0,0,1,4.31,1c.71.21,1.41.46,2.11.7l2.06.84a39.13,39.13,0,0,1,7.73,4.4c1.23.84,2.34,1.84,3.49,2.79a35.31,35.31,0,0,1,3.1,3.22,40,40,0,0,1,5,7.4l.53,1-1-.36c-2.23-.77-4.45-1.53-6.69-2.25l-3.36-1.09a27.5,27.5,0,0,0-3.4-.91,21.16,21.16,0,0,1,3.48.62c1.15.28,2.3.55,3.43.87,2.27.63,4.54,1.29,6.8,2l-.5.6a39.08,39.08,0,0,0-5-7.15c-.92-1.13-2-2.11-3-3.15s-2.17-1.94-3.37-2.78a47.45,47.45,0,0,0-7.46-4.57A46.49,46.49,0,0,0,254.94,27.2Z"/><path class="cls-1" d="M101.18,47.49a30.69,30.69,0,0,1,2.27-3.8c.42-.61.86-1.2,1.3-1.8l1.42-1.71a39.13,39.13,0,0,1,6.52-6.06c1.17-.93,2.46-1.68,3.71-2.49a35.32,35.32,0,0,1,4-2A40,40,0,0,1,129,27.09l1.07-.22-.65.88c-1.4,1.89-2.79,3.79-4.16,5.71l-2,2.88a27.5,27.5,0,0,0-1.89,3,21.16,21.16,0,0,1,1.64-3.14c.61-1,1.21-2,1.86-3q1.92-3,3.91-5.9l.42.66a39.08,39.08,0,0,0-8.31,2.6c-1.35.54-2.61,1.28-3.91,1.93s-2.5,1.49-3.66,2.38a47.44,47.44,0,0,0-6.6,5.75A46.49,46.49,0,0,0,101.18,47.49Z"/><path class="cls-1" d="M42.93,177a30.7,30.7,0,0,1-1.64-4.11c-.23-.7-.43-1.42-.64-2.13l-.5-2.17a39.13,39.13,0,0,1-.86-8.86c0-1.49.16-3,.27-4.46a35.31,35.31,0,0,1,.85-4.39,40,40,0,0,1,3.17-8.34l.47-1,.3,1.05c.66,2.26,1.32,4.52,2,6.77l1,3.37A27.52,27.52,0,0,0,48.64,156a21.16,21.16,0,0,1-1.5-3.2c-.44-1.1-.88-2.19-1.27-3.3-.8-2.22-1.56-4.45-2.32-6.69l.78.07a39.08,39.08,0,0,0-3,8.19c-.4,1.4-.57,2.85-.84,4.28s-.34,2.89-.33,4.35a47.45,47.45,0,0,0,.56,8.73A46.49,46.49,0,0,0,42.93,177Z"/><path class="cls-1" d="M286,259.3a30.69,30.69,0,0,1-2.18,3.86c-.4.62-.83,1.22-1.26,1.83l-1.37,1.75a39.13,39.13,0,0,1-6.37,6.22c-1.14,1-2.42,1.74-3.65,2.58a35.32,35.32,0,0,1-4,2.09,40,40,0,0,1-8.49,2.75l-1.06.25.63-.9c1.35-1.93,2.7-3.86,4-5.81l2-2.93a27.5,27.5,0,0,0,1.81-3,21.16,21.16,0,0,1-1.56,3.18c-.58,1-1.16,2.06-1.78,3.06q-1.85,3-3.76,6l-.43-.65a39.09,39.09,0,0,0,8.25-2.81c1.34-.57,2.58-1.34,3.86-2s2.47-1.55,3.6-2.47a47.44,47.44,0,0,0,6.45-5.91A46.49,46.49,0,0,0,286,259.3Z"/><path class="cls-1" d="M123.09,275.77a30.67,30.67,0,0,1-4.41-.43c-.73-.12-1.46-.27-2.18-.41l-2.15-.55a39.14,39.14,0,0,1-8.26-3.3c-1.34-.66-2.57-1.51-3.84-2.29A35.31,35.31,0,0,1,98.73,266a40,40,0,0,1-6-6.65l-.66-.87,1.07.21c2.31.46,4.62.9,6.94,1.32l3.48.62a27.55,27.55,0,0,0,3.5.43,21.18,21.18,0,0,1-3.54-.14c-1.17-.12-2.35-.23-3.52-.39-2.34-.31-4.67-.65-7-1l.42-.66a39.08,39.08,0,0,0,5.91,6.4c1.06,1,2.27,1.81,3.42,2.71s2.42,1.63,3.72,2.29a47.45,47.45,0,0,0,8,3.51A46.49,46.49,0,0,0,123.09,275.77Z"/><circle class="cls-1" cx="196.16" cy="147.69" r="58"/><path class="cls-2" d="M158,146.44h-.86l-1.46-3.9h-5.9l-1.46,3.9h-.84l4.78-12.5h1Zm-5.24-11.76-2.68,7.1h5.3Z"/><path class="cls-2" d="M163.53,137.17c2.36,0,4.12,1.84,4.12,4.64s-1.86,4.82-4.4,4.82a5.09,5.09,0,0,1-2.48-.7v5.16h-.82V137.21l.82-.24v1.3A4.23,4.23,0,0,1,163.53,137.17Zm-2.76,8a4.55,4.55,0,0,0,2.54.76c2.06,0,3.5-1.62,3.5-4.08,0-2.22-1.32-3.9-3.34-3.9a4,4,0,0,0-2.7,1.16Z"/><path class="cls-2" d="M173.83,146.64a4.4,4.4,0,0,1-4.42-4.74,4.53,4.53,0,0,1,4.5-4.82,4.4,4.4,0,0,1,4.42,4.74A4.53,4.53,0,0,1,173.83,146.64Zm0-8.82a3.74,3.74,0,0,0-3.64,4c0,2.5,1.54,4,3.64,4a3.74,3.74,0,0,0,3.64-4C177.51,139.35,176,137.81,173.87,137.81Z"/><path class="cls-2" d="M181.13,135.09a.61.61,0,0,1-.58-.64.58.58,0,0,1,.58-.6.6.6,0,0,1,.6.6A.62.62,0,0,1,181.13,135.09Zm-.4,11.34v-9.1l.82-.26v9.36Z"/><path class="cls-2" d="M188.37,146.64a4.4,4.4,0,0,1-4.42-4.74,4.53,4.53,0,0,1,4.5-4.82,4.4,4.4,0,0,1,4.42,4.74A4.53,4.53,0,0,1,188.37,146.64Zm0-8.82a3.74,3.74,0,0,0-3.64,4c0,2.5,1.54,4,3.64,4a3.74,3.74,0,0,0,3.64-4C192.05,139.35,190.49,137.81,188.41,137.81Z"/><path class="cls-2" d="M206.13,143.29c0-1.68-1.46-2.34-3.34-3-1.72-.58-3.5-1.34-3.5-3.36,0-1.84,1.62-3.24,3.8-3.24a6.53,6.53,0,0,1,3.58,1l-.32.74a5.89,5.89,0,0,0-3.26-1c-2,0-3,1.18-3,2.44,0,1.52,1.4,2.12,3.26,2.76s3.56,1.38,3.56,3.54c0,1.94-1.66,3.42-4,3.42a6.84,6.84,0,0,1-3.82-1.12l.32-.72a6.3,6.3,0,0,0,3.54,1.1C204.85,145.9,206.13,144.7,206.13,143.29Z"/><path class="cls-2" d="M213,146.64a4.4,4.4,0,0,1-4.42-4.74,4.53,4.53,0,0,1,4.5-4.82,4.4,4.4,0,0,1,4.42,4.74A4.53,4.53,0,0,1,213,146.64Zm0-8.82a3.74,3.74,0,0,0-3.64,4c0,2.5,1.54,4,3.64,4a3.74,3.74,0,0,0,3.64-4C216.71,139.35,215.15,137.81,213.07,137.81Z"/><path class="cls-2" d="M223.73,146.64a4.41,4.41,0,0,1-4.44-4.74c0-2.78,1.82-4.82,4.34-4.82a5,5,0,0,1,2.76.76l-.2.74a4.77,4.77,0,0,0-2.56-.74c-2.06,0-3.5,1.7-3.5,4s1.42,4,3.6,4a4.76,4.76,0,0,0,2.44-.76l.2.74A5.11,5.11,0,0,1,223.73,146.64Z"/><path class="cls-2" d="M229.23,135.09a.61.61,0,0,1-.58-.64.58.58,0,0,1,.58-.6.6.6,0,0,1,.6.6A.62.62,0,0,1,229.23,135.09Zm-.4,11.34v-9.1l.82-.26v9.36Z"/><path class="cls-2" d="M237.57,145.2a3.87,3.87,0,0,1-2.86,1.44,2.58,2.58,0,0,1-2.86-2.42c0-1.7,1.4-3,5.64-3.24v-.84a2,2,0,0,0-2.24-2.3,5.63,5.63,0,0,0-3.08,1.18l-.2-.82a6.47,6.47,0,0,1,3.34-1.12,2.68,2.68,0,0,1,3,3v5c0,.56.14,1,1,1l-.06.62a1.38,1.38,0,0,1-1.62-1.4Zm-.08-3.62c-3.58.36-4.82,1.22-4.82,2.56,0,1.14,1,1.78,2.14,1.78a3.64,3.64,0,0,0,2.68-1.42Z"/><path class="cls-2" d="M241.19,146.44V133l.82-.26v13.74Z"/><path class="cls-2" d="M164.59,165.85c0,2.32,1.28,4,3.38,4a4.73,4.73,0,0,0,2.56-.76l.18.74a5.2,5.2,0,0,1-2.8.78c-2.5,0-4.16-2-4.16-4.74s1.7-4.82,4.1-4.82a3,3,0,0,1,3.18,3.16,6.79,6.79,0,0,1-.2,1.44l-6.24,0Zm5.54-.88a3.91,3.91,0,0,0,.06-.68,2.27,2.27,0,0,0-2.36-2.46c-1.7,0-2.9,1.28-3.18,3.14Z"/><path class="cls-2" d="M185,170.44v-6.08c0-1.62-.68-2.52-2.16-2.52a4.42,4.42,0,0,0-2.84,1.32,5.36,5.36,0,0,1,.1,1.12v6.16h-.82v-6.08c0-1.62-.68-2.52-2.16-2.52a4.35,4.35,0,0,0-2.74,1.2v7.4h-.82v-9.1l.82-.26v1.24a4.63,4.63,0,0,1,2.84-1.24,2.58,2.58,0,0,1,2.58,1.52,4.76,4.76,0,0,1,3.14-1.52c1.8,0,2.88,1.08,2.88,3.1v6.26Z"/><path class="cls-2" d="M192.75,170.44v-.86c3.82-2.94,5.44-4.22,5.44-5.86a2.16,2.16,0,0,0-2.3-2.16,4.72,4.72,0,0,0-2.84,1.18l-.3-.7a5.1,5.1,0,0,1,3.18-1.24,2.87,2.87,0,0,1,3.12,2.8c0,2.22-2.52,3.84-5.3,6.06h5.76v.78Z"/><path class="cls-2" d="M206,170.64a4.92,4.92,0,1,1,4.8-4.92A4.78,4.78,0,0,1,206,170.64Zm0-9.08a4.16,4.16,0,1,0,4,4.16A4,4,0,0,0,206,161.55Z"/><path class="cls-2" d="M214.87,161.87l-2.32,1-.06-.78,3.18-1.32v9.64h-.8Z"/><path class="cls-2" d="M225.71,157.67l.22.74a7.93,7.93,0,0,0-6.38,6.14l0,0a5.47,5.47,0,0,1,3.56-1.54,3.34,3.34,0,0,1,3.56,3.52,3.79,3.79,0,0,1-3.94,4.08c-2.56,0-4.08-2.14-4.08-4.8C218.67,162.63,220.81,158.81,225.71,157.67Zm-2.94,12.24a3,3,0,0,0,3.1-3.32,2.68,2.68,0,0,0-2.78-2.84,4.91,4.91,0,0,0-3.58,1.6,3.54,3.54,0,0,0,0,.46C219.49,168,220.67,169.92,222.77,169.92Z"/></g></g></svg>