<svg xmlns="http://www.w3.org/2000/svg" viewBox="0 0 197.32 216.05"><defs><style>.cls-1,.cls-2{stroke:#000;stroke-miterlimit:10;}.cls-1{stroke-width:0.25px;}.cls-2{stroke-width:0.5px;}</style></defs><title>Asset 14</title><g id="Layer_2" data-name="Layer 2"><g id="Layer_1-2" data-name="Layer 1"><path class="cls-1" d="M65.16,40.76C64.36,55.6,52.72,66,36.86,66S9.35,55.6,8.55,40.76c-.38-7,1.84-13.66,6.09-18.14A19.08,19.08,0,0,1,23,17.41a14.79,14.79,0,0,1-4.16-6.92,1.6,1.6,0,0,1,.92-1.81,14.66,14.66,0,0,1,11.09.12,16,16,0,0,1,5-8.31,1.6,1.6,0,0,1,2,0,16,16,0,0,1,4.95,8.3,14.64,14.64,0,0,1,11.08-.11,1.6,1.6,0,0,1,.91,1.83,15,15,0,0,1-4.19,6.89,19.09,19.09,0,0,1,8.42,5.21C63.32,27.1,65.54,33.71,65.16,40.76ZM27.3,16.61c.62-.05,1.25-.09,1.9-.09a26.83,26.83,0,0,1,7.65,1.18,26.86,26.86,0,0,1,7.65-1.18c.62,0,1.23,0,1.84.08a11.68,11.68,0,0,0,4.88-5.43,11.09,11.09,0,0,0-7.66.83,10.39,10.39,0,0,0-1.12.69,1.6,1.6,0,0,1-2.52-1.31,11.57,11.57,0,0,0-3-7.4,11.67,11.67,0,0,0-3.09,7.41,1.6,1.6,0,0,1-2.52,1.3A10.56,10.56,0,0,0,30.16,12a11.11,11.11,0,0,0-7.68-.83A11.54,11.54,0,0,0,27.3,16.61Zm29.44,8.2c-4.64-4.9-11.69-6.35-19.41-3.92a1.61,1.61,0,0,1-1,0,24,24,0,0,0-7.17-1.17A16.41,16.41,0,0,0,17,24.81c-3.65,3.85-5.55,9.6-5.22,15.77.7,13.06,11,22.19,25.11,22.19S61.26,53.65,62,40.59C62.29,34.41,60.39,28.67,56.74,24.81Z"/><path class="cls-2" d="M143.76,69.12c0-.57-.05-1.14-.11-1.7-1.31-14.3-13-24.28-28.46-24.28-12.75,0-18.26,8.58-23.12,16.14-1.19,1.86-2.32,3.61-3.55,5.26-1.63,2.2-3.3,4.26-4.92,6.26-2.09,2.59-4.25,5.26-6.33,8.22a30.1,30.1,0,0,0-5.76,18.39c0,18.57,15.57,29.67,30.6,29.67a31,31,0,0,0,15.11-3.91,41.58,41.58,0,0,0,10-8C137.82,103.71,144.32,85.63,143.76,69.12Zm-13.91,36.33a18.77,18.77,0,0,1-5-.78,1.51,1.51,0,0,0-1.13,2.81,16.94,16.94,0,0,0,4.17.86,47.32,47.32,0,0,1-3.5,4.26,37.75,37.75,0,0,1-9,7.26,27.19,27.19,0,0,1-13.26,3.43c-13.16,0-26.78-9.67-26.79-25.86a26.51,26.51,0,0,1,5.07-16.19c1.28-1.82,2.57-3.5,3.89-5.16A39.32,39.32,0,0,0,94,82.41a1.51,1.51,0,0,0,1.2-2.77,36.72,36.72,0,0,1-9-5.94l.4-.49c1.64-2,3.33-4.13,5-6.39,1.3-1.75,2.52-3.65,3.69-5.48,2.68-4.17,5.28-8.21,8.94-10.94a15.5,15.5,0,0,0,5.54,4.25,1.51,1.51,0,1,0,1.36-2.7,13.31,13.31,0,0,1-4.31-3.16,18.33,18.33,0,0,1,8.39-1.85c13.41,0,23.55,8.56,24.67,20.83q.07.73.09,1.48A66.23,66.23,0,0,1,129.85,105.45Zm-20.42,3.69A1.51,1.51,0,0,1,108,110.3a1.47,1.47,0,0,1-.35,0c-8.56-2-13.06-5.59-13.25-5.74a1.51,1.51,0,0,1,1.9-2.35s4.21,3.32,12,5.15A1.51,1.51,0,0,1,109.43,109.14ZM133.2,74.93a1.51,1.51,0,0,1-1.4,1.62q-.82.06-1.61.06a20.21,20.21,0,0,1-10.42-2.74,1.51,1.51,0,0,1,1.66-2.53,17.85,17.85,0,0,0,10.15,2.19A1.51,1.51,0,0,1,133.2,74.93Z"/><path class="cls-1" d="M150.55,188.37a1.55,1.55,0,1,1-2.8,1.34,20.65,20.65,0,0,0-5.59-6.61,1.55,1.55,0,0,1,1.66-2.63A23.42,23.42,0,0,1,150.55,188.37Zm44-50.26a6.69,6.69,0,0,1,.7,7,7,7,0,0,1-3.56,3.27,6.09,6.09,0,0,1-.93,6c-1.81,2.65-5.27,3.51-9,3.51a46.62,46.62,0,0,1-13.26-2.45L165,158.93c6.17,6.75,9.65,15.62-4.41,29.68-12.43,12.43-38.35,25.07-47.91,25.07a5.23,5.23,0,0,1-3.88-1.26c-3.54-3.54,1.4-15.8,4.66-22.8,5.37-11.54,12.53-22.37,19.14-29s12.45-9.77,17.95-9.77c4.87,0,8.62,2.5,11.67,5.3l3.54-3.54c-1.42-4.35-5.21-17.91,1.07-22.21a6.09,6.09,0,0,1,6-.93,7,7,0,0,1,3.27-3.56,6.69,6.69,0,0,1,7,.69,10.78,10.78,0,0,1,6.3-2.69,8,8,0,0,1,7.87,7.87A10.83,10.83,0,0,1,194.53,138.11Zm-33.67,22.2c-2.88-2.88-6.12-5.54-10.35-5.54-3.24,0-6.9,1.61-10.92,4.8a35.07,35.07,0,0,1,8.53,6.43,1.55,1.55,0,1,1-2.2,2.2,30.37,30.37,0,0,0-8.9-6.42c-.56.51-1.11,1-1.68,1.61-5.28,5.28-10.09,12.32-14,19.31a29,29,0,0,1,6.06,3.78,1.55,1.55,0,0,1-1.95,2.43,25.58,25.58,0,0,0-5.6-3.47c-6,11.37-9.39,22-8.31,24.18a3.23,3.23,0,0,0,1.1.13c8,0,32.8-11.59,45.14-23.92C171,172.64,166.54,166,160.86,160.32ZM190,138a2,2,0,0,1,.65-1.4c.72-.66,2.62-2.83,2.67-4.9a3.55,3.55,0,0,0-1.19-2.65,3.61,3.61,0,0,0-2.64-1.19c-2.06.05-4.22,2-4.88,2.69a2,2,0,0,1-2.84.08c-1.36-1.36-2.75-1.78-3.91-1.19a3.11,3.11,0,0,0-1.64,3.06,2,2,0,0,1-3.32,1.68c-2-2-3.42-.86-3.57-.72l-.24.18c-3.49,2.27-1.34,12.58.46,18,5.43,1.8,15.74,4,18,.46a1.84,1.84,0,0,1,.18-.24c.37-.45,1.1-1.76-.72-3.57a2,2,0,0,1,1.68-3.32,3.12,3.12,0,0,0,3.06-1.64c.59-1.16.16-2.55-1.19-3.91A2,2,0,0,1,190,138Z"/><path class="cls-1" d="M73,154.38a116.8,116.8,0,0,1-7.3-9.23c-8.27-12.06-10.79-16.81-14.1-29.67-.49-1.91-1-3.7-1.54-5.26a2.49,2.49,0,0,0,1.57-3.6c-.66-1.75-3.6-9-8.79-13.33a22.25,22.25,0,0,0-12.35-5.35h0a7.35,7.35,0,0,0-5.43-2.48,8.49,8.49,0,0,0-1.58.16,7.71,7.71,0,0,0-5.82,4.31A27.24,27.24,0,0,0,5.83,99.53C1.31,106,.19,115.06.14,115.44A2.49,2.49,0,0,0,3,118.19l.4-.09c-.29,1.87-.5,3.66-.64,5.16a147,147,0,0,0,1,34.54c2.64,17.23,8.73,31.56,18.09,42.58C30,210,42.53,215.92,54.63,215.92a32.68,32.68,0,0,0,23.82-9.85,31.32,31.32,0,0,0,8.72-23.13C86.72,170.54,79.76,162.33,73,154.38Zm-63.12-52a22.11,22.11,0,0,1,10.24-8.11A3.51,3.51,0,0,0,22,92.34a2.85,2.85,0,0,1,2.41-1.86,2.48,2.48,0,0,1,2.57,1,3.89,3.89,0,0,0,2.67,1.41,17.12,17.12,0,0,1,10,4.22,25.84,25.84,0,0,1,5.8,7.85,33.46,33.46,0,0,1-8.32-2.59,2.49,2.49,0,0,0-3.6,2c-.61,6.69-2.89,10-4.1,11.3-7.86-2.87-8.87-8.32-8.91-8.54a2.49,2.49,0,0,0-1.74-2,2.46,2.46,0,0,0-.73-.11,2.5,2.5,0,0,0-1.85.82,27.63,27.63,0,0,1-10.41,6.56h0A30.15,30.15,0,0,1,9.91,102.38Zm65,100.24a27.74,27.74,0,0,1-20.23,8.32c-10.68,0-21.79-5.28-29-13.77-8.76-10.31-14.46-23.81-17-40.11a141.72,141.72,0,0,1-.92-33.32,67.84,67.84,0,0,1,1-7.18,33,33,0,0,0,8.28-4.81c1.65,3,5.1,7,12.24,9.1a2.49,2.49,0,0,0,2-.26c.56-.34,5.07-3.35,6.75-12.47a38.61,38.61,0,0,0,6.44,1.71c.93,1.51,1.81,4.93,2.31,6.88,3.47,13.51,6.28,18.8,14.82,31.25a120.2,120.2,0,0,0,7.6,9.63c6.46,7.63,12.57,14.84,13,25.53A26.38,26.38,0,0,1,74.87,202.62Z"/></g></g></svg>