<svg xmlns="http://www.w3.org/2000/svg" viewBox="0 0 219.03 281.55"><defs><style>.cls-1{stroke:#000;stroke-miterlimit:10;stroke-width:0.25px;}</style></defs><title>Asset 2</title><g id="Layer_2" data-name="Layer 2"><g id="Layer_1-2" data-name="Layer 1"><path class="cls-1" d="M156.74,251.76c-.94,17.47-14.63,29.66-33.29,29.66s-32.36-12.2-33.3-29.66c-.45-8.29,2.16-16.07,7.17-21.34a22.45,22.45,0,0,1,9.86-6.12,17.4,17.4,0,0,1-4.9-8.14,1.88,1.88,0,0,1,1.08-2.13,17.25,17.25,0,0,1,13.05.14,18.84,18.84,0,0,1,5.87-9.77,1.88,1.88,0,0,1,2.4,0,18.82,18.82,0,0,1,5.82,9.76,17.22,17.22,0,0,1,13-.13,1.88,1.88,0,0,1,1.07,2.15,17.69,17.69,0,0,1-4.93,8.11,22.46,22.46,0,0,1,9.9,6.13C154.57,235.7,157.18,243.48,156.74,251.76ZM112.2,223.36c.73-.06,1.48-.1,2.23-.1a31.56,31.56,0,0,1,9,1.38,31.6,31.6,0,0,1,9-1.38c.73,0,1.45,0,2.16.1a13.74,13.74,0,0,0,5.74-6.39,13,13,0,0,0-9,1,12.22,12.22,0,0,0-1.31.81,1.88,1.88,0,0,1-3-1.54,13.61,13.61,0,0,0-3.58-8.7,13.73,13.73,0,0,0-3.63,8.71,1.88,1.88,0,0,1-3,1.53,12.43,12.43,0,0,0-1.32-.82,13.06,13.06,0,0,0-9-1A13.58,13.58,0,0,0,112.2,223.36ZM146.84,233c-5.46-5.77-13.75-7.47-22.83-4.61a1.89,1.89,0,0,1-1.13,0,28.17,28.17,0,0,0-8.44-1.38A19.3,19.3,0,0,0,100,233c-4.29,4.53-6.53,11.29-6.14,18.55.83,15.37,13,26.1,29.54,26.1s28.71-10.73,29.54-26.1C153.37,244.3,151.13,237.54,146.84,233Z"/><path class="cls-1" d="M119.75,29.05c0-.64-.06-1.27-.12-1.89-1.45-15.92-14.49-27-31.69-27-14.19,0-20.33,9.55-25.74,18-1.33,2.07-2.59,4-4,5.86-1.82,2.44-3.68,4.75-5.47,7-2.33,2.88-4.73,5.86-7.05,9.15a33.51,33.51,0,0,0-6.42,20.47c0,20.68,17.34,33,34.07,33A34.52,34.52,0,0,0,90.2,89.24a46.29,46.29,0,0,0,11.1-8.9C113.13,67.57,120.36,47.44,119.75,29.05ZM104.26,69.5a20.9,20.9,0,0,1-5.56-.87,1.68,1.68,0,0,0-1.25,3.12,18.86,18.86,0,0,0,4.64,1,52.69,52.69,0,0,1-3.9,4.75,42,42,0,0,1-10.06,8.08,30.27,30.27,0,0,1-14.76,3.81c-14.65,0-29.82-10.77-29.83-28.8a29.52,29.52,0,0,1,5.65-18c1.42-2,2.86-3.89,4.33-5.74a43.77,43.77,0,0,0,10.79,7.07,1.68,1.68,0,0,0,1.34-3.09,40.88,40.88,0,0,1-10-6.62l.44-.55c1.83-2.26,3.71-4.6,5.58-7.11,1.45-2,2.8-4.06,4.11-6.1,3-4.64,5.88-9.14,10-12.18a17.26,17.26,0,0,0,6.17,4.74,1.68,1.68,0,1,0,1.52-3,14.82,14.82,0,0,1-4.8-3.52,20.41,20.41,0,0,1,9.34-2.06c14.93,0,26.22,9.53,27.47,23.19q.07.81.1,1.64C116,42.83,111.61,57.95,104.26,69.5ZM81.52,73.61a1.68,1.68,0,0,1-1.64,1.3,1.64,1.64,0,0,1-.39,0C70,72.63,65,68.63,64.75,68.47a1.68,1.68,0,0,1,2.11-2.62s4.69,3.7,13.41,5.74A1.68,1.68,0,0,1,81.52,73.61ZM108,35.53a1.68,1.68,0,0,1-1.56,1.8q-.92.07-1.79.07a22.5,22.5,0,0,1-11.6-3,1.68,1.68,0,0,1,1.85-2.82A19.88,19.88,0,0,0,106.18,34,1.68,1.68,0,0,1,108,35.53Z"/><path class="cls-1" d="M59.45,220.23a2.14,2.14,0,1,1-3.87,1.85c-1.31-2.74-5.13-7.48-7.71-9.11a2.14,2.14,0,0,1,2.29-3.63C53.5,211.45,57.82,216.83,59.45,220.23Zm60.65-69.31a9.22,9.22,0,0,1,1,9.63,9.72,9.72,0,0,1-4.92,4.51,8.4,8.4,0,0,1-1.28,8.26c-2.5,3.66-7.27,4.84-12.4,4.84-7.09,0-14.86-2.26-18.29-3.38l-4.85,4.85c8.5,9.31,13.31,21.54-6.08,40.94-17.15,17.15-52.9,34.57-66.07,34.57-2.43,0-4.17-.57-5.35-1.74-4.88-4.88,1.93-21.8,6.43-31.45,7.41-15.91,17.28-30.85,26.4-40S51.81,168.5,59.39,168.5c6.72,0,11.88,3.45,16.1,7.31l4.88-4.88c-2-6-7.19-24.71,1.48-30.63A8.39,8.39,0,0,1,90.11,139a9.71,9.71,0,0,1,4.51-4.92,9.23,9.23,0,0,1,9.62,1c1.9-1.58,5-3.6,8.68-3.71a11,11,0,0,1,10.85,10.85C123.69,145.85,121.67,149,120.1,150.91ZM73.67,181.54c-4-4-8.45-7.64-14.27-7.64-4.47,0-9.52,2.23-15.07,6.63a48.37,48.37,0,0,1,11.77,8.87,2.14,2.14,0,1,1-3,3,41.89,41.89,0,0,0-12.28-8.85c-.77.71-1.54,1.44-2.32,2.22-7.29,7.29-13.92,17-19.3,26.63a40,40,0,0,1,8.35,5.22A2.14,2.14,0,0,1,24.83,221a35.29,35.29,0,0,0-7.72-4.79C8.86,231.88,4.16,246.58,5.64,249.55a4.46,4.46,0,0,0,1.52.19c11,0,45.24-16,62.25-33C87.62,198.54,81.5,189.37,73.67,181.54Zm40.14-30.8a2.7,2.7,0,0,1,.89-1.94c1-.91,3.61-3.91,3.68-6.76a4.9,4.9,0,0,0-1.64-3.66,5,5,0,0,0-3.64-1.64c-2.84.07-5.82,2.7-6.73,3.71a2.71,2.71,0,0,1-3.92.11c-1.87-1.87-3.79-2.46-5.39-1.64a4.29,4.29,0,0,0-2.26,4.22,2.7,2.7,0,0,1-4.58,2.31c-2.77-2.77-4.72-1.18-4.93-1a2.71,2.71,0,0,1-.33.25c-4.82,3.14-1.84,17.36.64,24.84,7.49,2.48,21.71,5.46,24.84.64a2.54,2.54,0,0,1,.25-.33c.51-.62,1.51-2.43-1-4.93a2.7,2.7,0,0,1,2.31-4.58,4.3,4.3,0,0,0,4.22-2.26c.81-1.6.23-3.52-1.64-5.39A2.7,2.7,0,0,1,113.81,150.74Z"/><path class="cls-1" d="M207.16,142.57a96.84,96.84,0,0,1-6.05-7.66c-6.86-10-8.95-13.94-11.69-24.6-.41-1.59-.81-3.07-1.28-4.36a2.06,2.06,0,0,0,1.3-3c-.55-1.45-3-7.42-7.28-11.05a18.44,18.44,0,0,0-10.24-4.44h0a6.09,6.09,0,0,0-4.5-2.06,7,7,0,0,0-1.31.13,6.39,6.39,0,0,0-4.83,3.57,22.59,22.59,0,0,0-9.83,8c-3.75,5.34-4.68,12.88-4.72,13.2a2.07,2.07,0,0,0,2.4,2.28l.33-.07c-.24,1.55-.41,3-.53,4.27a121.88,121.88,0,0,0,.8,28.64c2.19,14.29,7.24,26.17,15,35.31a36.73,36.73,0,0,0,27.19,12.88,27.09,27.09,0,0,0,19.75-8.17,26,26,0,0,0,7.23-19.18C218.5,156,212.74,149.15,207.16,142.57ZM154.83,99.45a18.33,18.33,0,0,1,8.49-6.72,2.91,2.91,0,0,0,1.55-1.61,2.36,2.36,0,0,1,2-1.54,2.06,2.06,0,0,1,2.13.81,3.23,3.23,0,0,0,2.21,1.17,14.19,14.19,0,0,1,8.28,3.5,21.43,21.43,0,0,1,4.81,6.51,27.74,27.74,0,0,1-6.9-2.14,2.07,2.07,0,0,0-3,1.66c-.51,5.54-2.39,8.28-3.4,9.36-6.52-2.38-7.35-6.9-7.39-7.08a2.07,2.07,0,0,0-1.44-1.68,2,2,0,0,0-.61-.09,2.07,2.07,0,0,0-1.53.68,22.91,22.91,0,0,1-8.63,5.44h0A25,25,0,0,1,154.83,99.45Zm53.85,83.11a23,23,0,0,1-16.78,6.9,32.49,32.49,0,0,1-24-11.42c-7.26-8.55-12-19.74-14.06-33.26a117.5,117.5,0,0,1-.77-27.62,56.25,56.25,0,0,1,.85-6,27.38,27.38,0,0,0,6.87-4c1.37,2.48,4.23,5.77,10.15,7.54a2.06,2.06,0,0,0,1.67-.22c.47-.28,4.2-2.78,5.59-10.34a32,32,0,0,0,5.34,1.42,26.66,26.66,0,0,1,1.91,5.71c2.88,11.2,5.21,15.59,12.28,25.91a99.65,99.65,0,0,0,6.3,8c5.36,6.33,10.42,12.3,10.75,21.17A21.88,21.88,0,0,1,208.68,182.56Z"/></g></g></svg>