<svg xmlns="http://www.w3.org/2000/svg" viewBox="0 0 382.06 474.68"><defs><style>.cls-1,.cls-2{stroke:#000;stroke-miterlimit:10;}.cls-1{stroke-width:0.25px;}.cls-2{stroke-width:0.5px;}</style></defs><title>Asset 1</title><g id="Layer_2" data-name="Layer 2"><g id="Layer_1-2" data-name="Layer 1"><g id="_Group_" data-name="&lt;Group&gt;"><path class="cls-1" d="M127.85,320c-1.8,33.48-28,56.85-63.82,56.85S2,353.47.22,320C-.64,304.11,4.37,289.2,14,279.09a43,43,0,0,1,18.9-11.72,33.35,33.35,0,0,1-9.39-15.61,3.61,3.61,0,0,1,2.07-4.08c.52-.23,12.43-5.35,25,.27,2.4-11.31,10.84-18.39,11.25-18.74a3.61,3.61,0,0,1,4.6,0c.41.34,8.8,7.44,11.16,18.72,12.58-5.6,24.46-.49,25-.26a3.61,3.61,0,0,1,2.06,4.12,33.91,33.91,0,0,1-9.45,15.54,43.05,43.05,0,0,1,19,11.75C123.7,289.2,128.71,304.11,127.85,320ZM42.5,265.55c1.41-.12,2.83-.2,4.28-.2A60.49,60.49,0,0,1,64,268a60.56,60.56,0,0,1,17.26-2.65c1.4,0,2.78.08,4.14.19a26.33,26.33,0,0,0,11-12.25,25,25,0,0,0-17.28,1.88,23.42,23.42,0,0,0-2.52,1.56A3.61,3.61,0,0,1,71,253.78c0-7.62-4.15-13.59-6.86-16.68-2.73,3.1-6.92,9.1-7,16.7a3.61,3.61,0,0,1-5.67,2.94,23.82,23.82,0,0,0-2.53-1.56,25,25,0,0,0-17.31-1.87A26,26,0,0,0,42.5,265.55Zm66.38,18.5C98.41,273,82.53,269.74,65.12,275.22a3.63,3.63,0,0,1-2.17,0,54,54,0,0,0-16.18-2.65c-10.93,0-20.47,4-27.59,11.48C11,292.73,6.68,305.69,7.43,319.61c1.59,29.45,24.87,50,56.61,50s55-20.57,56.61-50C121.39,305.69,117.11,292.74,108.88,284.05Z"/><path class="cls-2" d="M381.75,51.54c0-1.13-.11-2.25-.21-3.35C379,20,355.86.25,325.36.25c-25.16,0-36,16.93-45.64,31.87-2.36,3.67-4.58,7.14-7,10.39-3.22,4.33-6.52,8.42-9.71,12.37-4.12,5.11-8.39,10.38-12.5,16.23-7.88,11.21-11.39,22.41-11.38,36.3,0,36.66,30.74,58.56,60.41,58.56a61.21,61.21,0,0,0,29.83-7.72A82.07,82.07,0,0,0,349,142.46C370,119.83,382.84,84.14,381.75,51.54Zm-27.47,71.71c-6.61-.36-9.77-1.52-9.85-1.55a3,3,0,0,0-2.22,5.54,33.45,33.45,0,0,0,8.23,1.69,93.41,93.41,0,0,1-6.91,8.42,74.51,74.51,0,0,1-17.84,14.33,53.67,53.67,0,0,1-26.16,6.76c-26,0-52.86-19.1-52.89-51.05a52.33,52.33,0,0,1,10-32c2.53-3.59,5.07-6.9,7.67-10.18a77.61,77.61,0,0,0,19.14,12.54,3,3,0,0,0,2.37-5.48c-7.59-3.29-14.36-8.73-17.77-11.73l.79-1c3.24-4,6.58-8.15,9.89-12.61,2.57-3.46,5-7.2,7.29-10.81,5.29-8.23,10.42-16.21,17.65-21.6,1.56,2.06,4.74,5.28,10.93,8.4a3,3,0,1,0,2.69-5.33,26.28,26.28,0,0,1-8.51-6.23,36.19,36.19,0,0,1,16.56-3.65c26.46,0,46.49,16.9,48.7,41.11q.13,1.44.18,2.91C375,76,367.31,102.77,354.28,123.25ZM314,130.54a3,3,0,0,1-2.9,2.3,2.91,2.91,0,0,1-.68-.08c-16.89-4-25.79-11-26.16-11.34a3,3,0,0,1,3.75-4.64c.08.07,8.32,6.56,23.77,10.17A3,3,0,0,1,314,130.54ZM360.9,63a3,3,0,0,1-2.76,3.19q-1.63.12-3.17.12a39.9,39.9,0,0,1-20.57-5.41,3,3,0,0,1,3.27-5,35.24,35.24,0,0,0,20,4.33A3,3,0,0,1,360.9,63Z"/><path class="cls-1" d="M260.57,413.12a3.77,3.77,0,1,1-6.81,3.26c-2.31-4.82-9-13.17-13.57-16a3.77,3.77,0,1,1,4-6.38C250.11,397.67,257.71,407.14,260.57,413.12Zm106.76-122c3.75,5.46,4.41,11.56,1.69,16.95a17.1,17.1,0,0,1-8.65,7.94,14.78,14.78,0,0,1-2.26,14.54c-4.39,6.43-12.79,8.52-21.83,8.52-12.48,0-26.16-4-32.2-5.95l-8.55,8.55c15,16.38,23.44,37.91-10.71,72.06-30.18,30.19-93.11,60.85-116.3,60.85-4.27,0-7.35-1-9.41-3.07-8.59-8.59,3.4-38.36,11.32-55.35,13-28,30.42-54.31,46.47-70.36s30.22-23.73,43.57-23.73c11.83,0,20.92,6.07,28.34,12.87l8.59-8.59c-3.44-10.56-12.65-43.48,2.61-53.91a14.77,14.77,0,0,1,14.54-2.26,17.09,17.09,0,0,1,7.94-8.65c5.38-2.72,11.48-2.05,16.93,1.68,3.35-2.78,8.87-6.34,15.28-6.52a19.34,19.34,0,0,1,19.11,19.1C373.64,282.21,370.09,287.75,367.33,291.11ZM285.6,345c-7-7-14.87-13.45-25.12-13.45-7.86,0-16.75,3.92-26.52,11.66a85.13,85.13,0,0,1,20.71,15.61,3.77,3.77,0,1,1-5.34,5.33c-9.26-9.27-17.39-13.7-21.61-15.58-1.35,1.24-2.71,2.54-4.08,3.91-12.83,12.83-24.5,29.9-34,46.88a70.32,70.32,0,0,1,14.7,9.18,3.77,3.77,0,0,1-4.72,5.89A62.11,62.11,0,0,0,186,406c-14.52,27.6-22.79,53.46-20.19,58.69a7.85,7.85,0,0,0,2.68.33c19.38,0,79.63-28.12,109.58-58.07C310.16,374.94,299.39,358.8,285.6,345Zm70.66-54.21a4.75,4.75,0,0,1,1.57-3.41c1.76-1.6,6.36-6.88,6.48-11.9a8.62,8.62,0,0,0-2.89-6.44,8.76,8.76,0,0,0-6.41-2.88c-5,.13-10.25,4.76-11.85,6.53a4.77,4.77,0,0,1-6.9.19c-3.29-3.3-6.66-4.32-9.48-2.89a7.55,7.55,0,0,0-4,7.42,4.75,4.75,0,0,1-8.06,4.07c-4.88-4.88-8.3-2.08-8.68-1.74a4.77,4.77,0,0,1-.58.44c-8.48,5.52-3.25,30.55,1.13,43.73,13.18,4.37,38.2,9.6,43.73,1.12a4.48,4.48,0,0,1,.44-.58c.9-1.1,2.66-4.27-1.74-8.67a4.75,4.75,0,0,1,4.07-8.06,7.57,7.57,0,0,0,7.43-4c1.43-2.82.4-6.19-2.89-9.49A4.74,4.74,0,0,1,356.26,290.8Z"/><path class="cls-1" d="M185.33,128.68a169.15,169.15,0,0,1-10.57-13.37c-12-17.47-15.63-24.35-20.42-43-.71-2.77-1.42-5.36-2.23-7.62a3.6,3.6,0,0,0,2.27-5.22c-1-2.53-5.22-13-12.72-19.3a32.22,32.22,0,0,0-17.88-7.75l0,0a10.64,10.64,0,0,0-7.86-3.6,12.29,12.29,0,0,0-2.29.23,11.16,11.16,0,0,0-8.44,6.24A39.45,39.45,0,0,0,88,49.24c-6.55,9.33-8.17,22.5-8.24,23.05a3.61,3.61,0,0,0,4.19,4l.58-.12c-.42,2.71-.72,5.3-.93,7.47a212.89,212.89,0,0,0,1.39,50c3.83,25,12.64,45.7,26.19,61.67,11.76,13.87,30,22.49,47.5,22.49a47.32,47.32,0,0,0,34.5-14.26A45.36,45.36,0,0,0,205.81,170C205.14,152.08,195.07,140.18,185.33,128.68ZM93.92,53.37a32,32,0,0,1,14.83-11.74,5.08,5.08,0,0,0,2.71-2.8A4.12,4.12,0,0,1,115,36.13c1.73-.33,2.51.22,3.73,1.42a5.64,5.64,0,0,0,3.86,2c4.67.13,10.08,2.42,14.46,6.11,3.74,3.16,6.58,7.79,8.4,11.37a48.46,48.46,0,0,1-12-3.74,3.61,3.61,0,0,0-5.21,2.9c-.89,9.68-4.18,14.46-5.94,16.36-11.39-4.16-12.85-12.05-12.9-12.36a3.61,3.61,0,0,0-2.52-2.94,3.56,3.56,0,0,0-1.06-.16,3.62,3.62,0,0,0-2.67,1.18A40,40,0,0,1,88,67.82h0C88.92,63.68,90.75,57.89,93.92,53.37ZM188,198.54a40.18,40.18,0,0,1-29.3,12.05c-15.47,0-31.56-7.64-42-19.95C104,175.71,95.75,156.17,92.12,132.56a205.24,205.24,0,0,1-1.34-48.25,98.25,98.25,0,0,1,1.48-10.39,47.82,47.82,0,0,0,12-7C106.65,71.28,111.65,77,122,80.12a3.6,3.6,0,0,0,2.92-.38c.81-.5,7.34-4.86,9.77-18.06A55.91,55.91,0,0,0,144,64.16c1.35,2.19,2.62,7.14,3.34,10,5,19.56,9.09,27.23,21.46,45.26a174.07,174.07,0,0,0,11,14c9.36,11.05,18.2,21.49,18.78,37A38.21,38.21,0,0,1,188,198.54Z"/></g></g></g></svg>