<svg xmlns="http://www.w3.org/2000/svg" viewBox="0 0 90 87.09"><title>Asset 10</title><g id="Layer_2" data-name="Layer 2"><g id="Layer_1-2" data-name="Layer 1"><g id="_Group_" data-name="&lt;Group&gt;"><path d="M88.08,52.3a8.6,8.6,0,0,1,.81-9.1l-.1-.07.6-.44a1.45,1.45,0,0,0-1.32-2.54A8.6,8.6,0,0,1,88.9,31L88.8,31l.6-.44A1.45,1.45,0,0,0,88.08,28a8.6,8.6,0,0,1,.81-9.1l-.1-.07.6-.44a1.45,1.45,0,0,0-.31-2.52L50.09.26a4.82,4.82,0,0,0-4.21.53L2.64,32.24a1.43,1.43,0,0,0-.3.3h0a11.51,11.51,0,0,0-.6,13,11.49,11.49,0,0,0,0,12.15,11.51,11.51,0,0,0,.59,13l.24.32L41.95,86.82a4.22,4.22,0,0,0,1.55.28,4.6,4.6,0,0,0,2.65-.81L67.78,70.57h0L89.4,54.84a1.45,1.45,0,0,0-1.32-2.54ZM47.59,3.14a1.8,1.8,0,0,1,1-.25A1.32,1.32,0,0,1,49,3L85.57,17.59,44.45,47.49a1.8,1.8,0,0,1-1,.25,1.27,1.27,0,0,1-.46-.07L6.47,33ZM66.07,68.22h0L44.45,83.94a1.87,1.87,0,0,1-1.42.18L4.42,68.68a8.59,8.59,0,0,1-.37-9.17l37.9,15.16a4.26,4.26,0,0,0,1.56.28,4.58,4.58,0,0,0,2.65-.81L67.78,58.42h0L84.44,46.29a11.63,11.63,0,0,0-.2,2.11A11.43,11.43,0,0,0,85.68,54Zm0-12.15h0L44.45,71.79A1.86,1.86,0,0,1,43,72L4.42,56.53a8.59,8.59,0,0,1-.37-9.17l37.9,15.16a4.22,4.22,0,0,0,1.55.28A4.6,4.6,0,0,0,46.16,62L67.78,46.26,84.44,34.14a11.62,11.62,0,0,0-.2,2.11,11.42,11.42,0,0,0,1.44,5.55Zm0-12.15L44.45,59.64a1.86,1.86,0,0,1-1.42.18L4.42,44.38a8.59,8.59,0,0,1-.37-9.17l37.9,15.16a4.19,4.19,0,0,0,1.54.28,4.61,4.61,0,0,0,2.67-.8L84.44,22a11.62,11.62,0,0,0-.2,2.11,11.42,11.42,0,0,0,1.44,5.56Z"/><path d="M62.44,28.19a1.45,1.45,0,0,0,.85-.28L72,21.59a1.45,1.45,0,0,0-.31-2.52L48,9.58a1.45,1.45,0,0,0-1.39.17l-8.69,6.32a1.45,1.45,0,0,0,.31,2.52L61.9,28.09A1.48,1.48,0,0,0,62.44,28.19ZM47.63,12.58l20.53,8.21-5.92,4.31L41.71,16.88Z"/></g></g></g></svg>