<svg xmlns="http://www.w3.org/2000/svg" viewBox="0 0 329.02 299.48"><defs><style>.cls-1{fill:#d9251c;}.cls-2{fill:#fff;}</style></defs><title>Asset 5</title><g id="Layer_2" data-name="Layer 2"><g id="Layer_1-2" data-name="Layer 1"><g id="_Group_" data-name="&lt;Group&gt;"><path class="cls-1" d="M303.89,91q3,.37,3,1.23v.47a5.56,5.56,0,0,0-2.21,4.83l0,1.64q.14,4,.14,4.64l-.27,1.39a5.72,5.72,0,0,1,.45,1.64q10.82-1.21,11.94-1.19l0,.72q0,.88-11.27,2.35-.7.43-.72.9a37.43,37.43,0,0,0,2.52,15.16l-.72.92q-3.29-.06-4.62-16.36l-.43-.25a96.31,96.31,0,0,1-12.21,2.11q-2.25,0-3-2.62.82-3.87,11.7-12.78,5-3.93,5.48-4.79Zm-14.81,16.92,0,.47c0,.3.23.46.7.47q12.41-1,12.44-2.09V106q.08-3.48,0-9.53a1.69,1.69,0,0,0,.25-.92l-.45-.25q-2,0-11.88,10.23A3.23,3.23,0,0,0,289.09,107.87Z"/><path class="cls-1" d="M316.41,96.39a1.75,1.75,0,0,0,.74.25q0,3.44-.1,5.41t0,3.68q.07,1.71.16,3.3t.64,1.59q4.52-.24,7.61-.25a1.75,1.75,0,0,0,.74.25q0,.9-8.59,1.47l-.25,1.72v.74q0,9.57,1.72,9.57h.25q.18,0,.89-.67a10.72,10.72,0,0,0,1.34-1.58q.63-.9.66-.26a3.74,3.74,0,0,1-.51,1.69q-1.51,2.54-3.11,2.54-2.7,0-2.7-6.38-.08-2.15-.16-3.54t-.08-3.83l-2.95.25-1.12-.16-.49-.25q.14-1.06,4.56-1.55,0-1.76-.07-3.89t-.1-3.52q0-1.39,0-3.54A4,4,0,0,1,316.41,96.39Z"/><path class="cls-1" d="M283.65,130.24h.09c.12,0,.18.08.18.18l-.37,5.52v.55q0,1.44.09,2.39v.37a1.29,1.29,0,0,0,.28.83v.28l-.18.28q.12,2.58,1,3.08a.8.8,0,0,0,.62-.32,4.39,4.39,0,0,0,.57-.95c.19-.25.27-.21.26.11a3,3,0,0,1-.79,1.52,1,1,0,0,1-1.05.21,2,2,0,0,1-.87-1.25l-.19-.09h-.09q-.73,1.93-1.56,1.93t-.83-1.47v-.09a4.27,4.27,0,0,1,2.12-4l-.09-1.1Q283,130.24,283.65,130.24Zm-2,13.9q.93,0,1.38-2.76a7.68,7.68,0,0,1-.18-1h-.09q-1,0-1.29,2.39A2.6,2.6,0,0,0,281.62,144.13Z"/><path class="cls-1" d="M287.48,139.46q.8,0,.83,1a4.84,4.84,0,0,1-.83,2.67c.09.25.18.37.28.37H288q.67,0,1.38-1.1a.66.66,0,0,1,.09.28q-.68,1.66-1.75,1.66a11,11,0,0,0-1.2-.09q0,.18-.64.37l-.09-.18v-.09a1,1,0,0,0,.46-.74,6.76,6.76,0,0,1-.37-1.84A2.21,2.21,0,0,1,287.48,139.46Zm-.92,2.3a1.31,1.31,0,0,0,.46,1,3.08,3.08,0,0,0,.74-2.21c-.09-.25-.18-.37-.28-.37h-.28Q286.56,140.52,286.56,141.76Z"/><path class="cls-1" d="M297.06,130.05q1.29,0,1.29,2.67t-2.21,8.84a4.92,4.92,0,0,0-.64,1.38V143q.08.73.45.87a.87.87,0,0,0,.69,0,2.21,2.21,0,0,0,.71-.58,4.63,4.63,0,0,0,.73-1.2h.34a7.75,7.75,0,0,1-.53,1.07,3.29,3.29,0,0,1-.8.92,1.89,1.89,0,0,1-.87.43q-.39.05-1.27-.62-.21,0-.83,1.2H294c-.06-.18-.12-.28-.18-.28l.74-1.84v-.09q-.33-1.95-.39-2.77t-.07-3.4q.39-5.55,2.63-6.65Zm-2.27,6.69q0,1.12,0,1.87.12,3.31.46,3.31.54,0,2.21-6.17.37-2.65.37-3a8.48,8.48,0,0,0-.12-1.17q-.12-.79-.61-.85l-.31.09q-.87.23-1.72,3.22A17.75,17.75,0,0,0,294.78,136.74Z"/><path class="cls-1" d="M299.5,139.46q.8,0,.83,1a4.84,4.84,0,0,1-.83,2.67c.09.25.18.37.28.37H300q.67,0,1.38-1.1a.66.66,0,0,1,.09.28q-.68,1.66-1.75,1.66a11,11,0,0,0-1.2-.09q0,.18-.64.37l-.09-.18v-.09a1,1,0,0,0,.46-.74,6.76,6.76,0,0,1-.37-1.84A2.21,2.21,0,0,1,299.5,139.46Zm-.92,2.3a1.31,1.31,0,0,0,.46,1,3.08,3.08,0,0,0,.74-2.21c-.09-.25-.18-.37-.28-.37h-.28Q298.58,140.52,298.58,141.76Z"/><path class="cls-1" d="M303,140.31h.37c.25.13.37.28.37.46H304l.46-.28q.46.1.46.74a7,7,0,0,0-.18,1.38v.55H305q2.78-2.22,4.43-2.3.37.14.37.28a.43.43,0,0,1-.26.46l-.38-.09h-.09a9,9,0,0,0-4.25,2.67,1.08,1.08,0,0,0-.18.55v.09a7,7,0,0,0,.09,1.38q0,6.84-4,9.27a3.1,3.1,0,0,1-1.84.34,1.69,1.69,0,0,1-1.05-.64,3,3,0,0,1-.38-1.61q0-3.14,6.26-9.11v-.74h-.18a3.44,3.44,0,0,1-1.29.74q-.88,0-1-1.29A3.63,3.63,0,0,1,303,140.31Zm.55,5.06a22.18,22.18,0,0,0-3.13,3.41q-.28,0-1.56,2.12a5.87,5.87,0,0,0-.68,2.95,1.54,1.54,0,0,0,1.42,1.47q1.63,0,3.46-3.36a15.75,15.75,0,0,0,.78-5.38v-.46C303.85,145.66,303.76,145.41,303.58,145.38Zm-1.47-2.49v.28c0,.37.12.55.37.55s.77-.55,1.2-1.66v-.18a2.17,2.17,0,0,0-.64-.74Q302.41,141.14,302.1,142.89Z"/><path class="cls-1" d="M312.11,144.45a1.26,1.26,0,0,1-.64-1h-.09a6.33,6.33,0,0,1-.94,1,.89.89,0,0,1-.43.1q-.84-.28-.84-2.18V141a.87.87,0,0,1,.46-.74.5.5,0,0,1,.37.37,10.78,10.78,0,0,1-.16,1.26,11.23,11.23,0,0,0,.08,1.4q.08.56.26.56a3.11,3.11,0,0,0,1.2-2.67q.19-1,.46-1H312l.09.37L312,142l.09.37a.66.66,0,0,0-.09.28q.09,1.2.37,1.2h0v0l.06,0a1.09,1.09,0,0,0,.56-.39,5.69,5.69,0,0,0,.41-.81c.18,0,.23.15.13.42q-.47,1.43-1.15,1.43Z"/><path class="cls-1" d="M316.83,140.36H317q.35,0,.73,2.45h.11a7.42,7.42,0,0,1,1.88-2.32q.47,0,.7,1.41a4.88,4.88,0,0,0,.4,1.59.48.48,0,0,0,.34.18,7.83,7.83,0,0,0,1.37-2c0,.08,0,.12.11.12q-.8,2.69-2.09,2.69l-.3-.18a5.12,5.12,0,0,1-.74-2.39l-.21-.12a7,7,0,0,0-1.46,2.45h-.42q-.24,0-.73-2.69h-.1q-.32,0-.84,2.57l-.42.25q-.34,0-.84-2.57h-.31a6.72,6.72,0,0,0-.71,1.59c-.21,0-.31-.08-.31-.24a4.24,4.24,0,0,1,1.43-2.45h.11q.62.47.62.85h.42A9.58,9.58,0,0,0,316.83,140.36Z"/><path class="cls-1" d="M323.7,139.46q.8,0,.83,1a4.84,4.84,0,0,1-.83,2.67c.09.25.18.37.28.37h.28q.67,0,1.38-1.1a.66.66,0,0,1,.09.28q-.68,1.66-1.75,1.66a11,11,0,0,0-1.2-.09q0,.18-.64.37l-.09-.18v-.09a1,1,0,0,0,.46-.74,6.76,6.76,0,0,1-.37-1.84A2.21,2.21,0,0,1,323.7,139.46Zm-.92,2.3a1.31,1.31,0,0,0,.46,1,3.08,3.08,0,0,0,.74-2.21c-.09-.25-.18-.37-.28-.37h-.28Q322.78,140.52,322.78,141.76Z"/><path class="cls-1" d="M328.41,138.24a.65.65,0,0,0,.28.09v.18a9.48,9.48,0,0,1-.64.92v.09q.08.49,1,3.23V143q-.3,1.47-1.47,1.47a2,2,0,0,1-.92-.74q.18-.55.37-.55h.18q.36.55.74.55H328c.09,0,.17-.07.25-.2a1,1,0,0,0,0-.67,18.22,18.22,0,0,0-.82-2.36h-.09a24.35,24.35,0,0,0-2.09,3,3.27,3.27,0,0,1-.77.66h-.18v-.09l1.74-2.62,1.23-1.79Q327.84,138.24,328.41,138.24Z"/></g><path class="cls-1" d="M218.19,245.6a1.74,1.74,0,0,0,.74.25,13.15,13.15,0,0,1,2.45-.25h.25v.49q0,1.47-14.73,2.95-2.46,1.72-2.46,2.95v1.72q0,3.58,6.14,13.25a14.93,14.93,0,0,1,1.23,4.17,12.4,12.4,0,0,1-4.17,6.38,23,23,0,0,1-5.4,2.45q-3.44,0-3.44-3.68a1.76,1.76,0,0,0,.25-.74h.25q1.64,2.21,3.44,2.21,6.38-3,6.38-6.87,0-2.29-5.65-11.78-1.47-2.19-1.47-7.85V249Q203.14,246.26,218.19,245.6Z"/><path class="cls-1" d="M222.4,277.45q1.68.27,1.68.84v.57q0,.43-1.1,1.1h-.57q-.39,0-.84-.84V278Q221.57,277.45,222.4,277.45Z"/><path class="cls-1" d="M233.88,244.37q4.23,0,5.65,9.57a44.7,44.7,0,0,1,.25,5.64v2.7q-1.47,12.91-4.17,15,0,1.54-2.7,2.7-1.74,0-3.93-3.19-1.47-6-1.47-18.41v-.25q0-2.19.25-4.91a11.42,11.42,0,0,1-.25-2.95q1.94-4.42,2.45-4.42A6,6,0,0,1,233.88,244.37Zm-4.42,16q.82,17.43,3.19,17.43,2.56,0,4.66-11.29,0-1.45.74-7.36a19.28,19.28,0,0,1-.49-3.68l.25-1.23q-1.56-7.85-3.19-7.85h-2a7.63,7.63,0,0,0-2.21,5.89Q229.62,252.23,229.46,260.33Z"/><path class="cls-1" d="M249.05,244.37q4.23,0,5.65,9.57a44.7,44.7,0,0,1,.25,5.64v2.7q-1.47,12.91-4.17,15,0,1.54-2.7,2.7-1.74,0-3.93-3.19-1.47-6-1.47-18.41v-.25q0-2.19.25-4.91a11.42,11.42,0,0,1-.25-2.95q1.94-4.42,2.45-4.42A6,6,0,0,1,249.05,244.37Zm-4.42,16q.82,17.43,3.19,17.43,2.56,0,4.66-11.29,0-1.45.74-7.36a19.28,19.28,0,0,1-.49-3.68l.25-1.23q-1.56-7.85-3.19-7.85h-2a7.63,7.63,0,0,0-2.21,5.89Q244.8,252.23,244.64,260.33Z"/><path class="cls-1" d="M264.23,244.37q4.23,0,5.65,9.57a44.7,44.7,0,0,1,.25,5.64v2.7q-1.47,12.91-4.17,15,0,1.54-2.7,2.7-1.74,0-3.93-3.19-1.47-6-1.47-18.41v-.25q0-2.19.25-4.91a11.42,11.42,0,0,1-.25-2.95q1.94-4.42,2.45-4.42A6,6,0,0,1,264.23,244.37Zm-4.42,16q.82,17.43,3.19,17.43,2.56,0,4.66-11.29,0-1.45.74-7.36a19.28,19.28,0,0,1-.49-3.68l.25-1.23q-1.56-7.85-3.19-7.85h-2a7.63,7.63,0,0,0-2.21,5.89Q260,252.23,259.81,260.33Z"/><path class="cls-1" d="M279.88,241.74q3.44,0,3.44,7.12,0,7.34-5.89,23.56a13.15,13.15,0,0,0-1.72,3.68v.25q.21,1.94,1.2,2.33a2.34,2.34,0,0,0,1.83,0,5.88,5.88,0,0,0,1.89-1.53,12.26,12.26,0,0,0,2-3.2h.9a20.46,20.46,0,0,1-1.4,2.86A8.72,8.72,0,0,1,280,279.3a5,5,0,0,1-2.32,1.16q-1,.14-3.4-1.66-.55,0-2.21,3.19h-.25q-.24-.74-.49-.74l2-4.91v-.25q-.88-5.19-1.05-7.38t-.17-9.06q1-14.81,7-17.73Zm-6.06,17.85q0,3-.07,5,.33,8.84,1.23,8.84,1.45,0,5.89-16.45,1-7.08,1-8.11a22.45,22.45,0,0,0-.33-3.13q-.33-2.1-1.64-2.26l-.82.25q-2.33.61-4.58,8.59A47.13,47.13,0,0,0,273.81,259.58Z"/><path class="cls-1" d="M225,284.66h.09c.12,0,.18.08.18.18l-.37,5.52v.55q0,1.44.09,2.39v.37a1.28,1.28,0,0,0,.28.83v.28l-.18.28q.12,2.58,1,3.08a.8.8,0,0,0,.62-.32,4.39,4.39,0,0,0,.57-.95c.18-.25.27-.21.26.11a3,3,0,0,1-.79,1.52,1,1,0,0,1-1.05.21,2,2,0,0,1-.87-1.25l-.18-.09h-.09q-.73,1.93-1.56,1.93t-.83-1.47v-.09a4.27,4.27,0,0,1,2.12-4l-.09-1.1Q224.37,284.66,225,284.66Zm-2,13.9q.93,0,1.38-2.76a7.86,7.86,0,0,1-.18-1h-.09q-1,0-1.29,2.39A2.59,2.59,0,0,0,223,298.56Z"/><path class="cls-1" d="M228.82,293.88q.8,0,.83,1a4.84,4.84,0,0,1-.83,2.67c.09.25.18.37.28.37h.28q.67,0,1.38-1.1a.66.66,0,0,1,.09.28q-.68,1.66-1.75,1.66a11,11,0,0,0-1.2-.09q0,.18-.64.37l-.09-.18v-.09a1,1,0,0,0,.46-.74,6.76,6.76,0,0,1-.37-1.84A2.21,2.21,0,0,1,228.82,293.88Zm-.92,2.3a1.31,1.31,0,0,0,.46,1,3.08,3.08,0,0,0,.74-2.21c-.09-.25-.18-.37-.28-.37h-.28Q227.9,294.95,227.9,296.18Z"/><path class="cls-1" d="M236.45,285.4h.18q-.16.86-.28,6.35v1.93q.09,1.46.09,1.75h.18a2.79,2.79,0,0,1,1.38-2.21h.37a2.16,2.16,0,0,1,.83,1.93v.18a4.3,4.3,0,0,1-2.39,4.14H236c-.09,0-.18-.09-.28-.28v-.28l.92.09h.28a3.55,3.55,0,0,0,1.66-3.31v-.55q-.18-1.29-.64-1.29-.78,0-1.1,4.69h-.28q-.83,0-.86-5.44,0-2.55,0-4.3Q235.8,285.4,236.45,285.4Z"/><path class="cls-1" d="M241.29,293.88q.8,0,.83,1a4.84,4.84,0,0,1-.83,2.67c.09.25.18.37.28.37h.28q.67,0,1.38-1.1a.66.66,0,0,1,.09.28q-.68,1.66-1.75,1.66a11,11,0,0,0-1.2-.09q0,.18-.64.37l-.09-.18v-.09a1,1,0,0,0,.46-.74,6.76,6.76,0,0,1-.37-1.84A2.21,2.21,0,0,1,241.29,293.88Zm-.92,2.3a1.31,1.31,0,0,0,.46,1,3.08,3.08,0,0,0,.74-2.21c-.09-.25-.18-.37-.28-.37H241Q240.38,294.95,240.38,296.18Z"/><path class="cls-1" d="M244.25,285.4h.18q-.16.86-.28,6.35v1.93q.09,1.46.09,1.75h.18a2.79,2.79,0,0,1,1.38-2.21h.37a2.16,2.16,0,0,1,.83,1.93v.18a4.3,4.3,0,0,1-2.39,4.14h-.83c-.09,0-.18-.09-.28-.28v-.28l.92.09h.28a3.55,3.55,0,0,0,1.66-3.31v-.55q-.18-1.29-.64-1.29-.78,0-1.1,4.69h-.28q-.83,0-.86-5.44,0-2.55,0-4.3Q243.6,285.4,244.25,285.4Z"/><path class="cls-1" d="M248.22,294.86c.1.09.15.33.14.71s0,.88,0,1.49.21,1,.5,1.14H249a2.82,2.82,0,0,0,.84-1c.07-.14.14-.21.19-.18s.06.09,0,.22a2.42,2.42,0,0,1-.38.76,2.06,2.06,0,0,1-.89.82l-.28.05q-.91-.09-.78-2.85Q247.88,294.84,248.22,294.86Zm.43-2.83.28,0c.12,0,.18.09.18.19l0,.28c0,.12-.19.24-.48.34a.5.5,0,0,1-.35-.38Q248.46,292.06,248.65,292Z"/><path class="cls-1" d="M252.67,284.66h.09c.12,0,.18.08.18.18l-.37,5.52v.55q0,1.44.09,2.39v.37a1.28,1.28,0,0,0,.28.83v.28l-.18.28q.12,2.58,1,3.08a.8.8,0,0,0,.62-.32,4.39,4.39,0,0,0,.57-.95c.18-.25.27-.21.26.11a3,3,0,0,1-.79,1.52,1,1,0,0,1-1.05.21,2,2,0,0,1-.87-1.25l-.18-.09h-.09q-.73,1.93-1.56,1.93t-.83-1.47v-.09a4.27,4.27,0,0,1,2.12-4l-.09-1.1Q252,284.66,252.67,284.66Zm-2,13.9q.93,0,1.38-2.76a7.86,7.86,0,0,1-.18-1h-.09q-1,0-1.29,2.39A2.59,2.59,0,0,0,250.65,298.56Z"/><path class="cls-1" d="M258,294.57a.72.72,0,0,1,.1.3,14.62,14.62,0,0,1-.2,1.61,10.29,10.29,0,0,0,.31,1.41h.2a7.48,7.48,0,0,0,1.2-1.79h.1l.2.1a6.17,6.17,0,0,1-1.69,2.59H258q-.44-.11-.7-1.3h-.11q-1.18,1.81-1.8,1.81c-.34,0-.52-.39-.54-1.16l0-.85q.44-2.52,2.52-2.52Zm-2.51,3.19a2,2,0,0,0,.1.83h.2a4.73,4.73,0,0,0,1.4-2.31.62.62,0,0,0-.7-.71Q255.88,295.57,255.45,297.76Z"/><path class="cls-1" d="M87.53,218.71q3.58,1.8,3.58,6.67Q89.7,232.78,86,237a55.5,55.5,0,0,1-7.94,8.59v.55q1.66,2.7,12.29,3.31h1q.37,0,12-1.37,0,2.13-15.12,3.6-4.36,0-14.34-3a18.71,18.71,0,0,1-9,3.6q-1.51,0-2.56-2.5,2.58-5.26,7.69-5.26l5.63,1.1a25.74,25.74,0,0,0,5.11-5.54q7.69-6.83,7.69-15.81-.78-3-1.8-3-3.07,0-8.45,8a4.12,4.12,0,0,0-.76,1.94H77q-.65,0-.78-1.1,0-2.9,7.42-9.43A10.14,10.14,0,0,1,87.53,218.71ZM65,248.92V250q.08.55.51.55,6.16-1.23,6.16-3l-.78-.55H68.33A4.48,4.48,0,0,0,65,248.92Z"/><path class="cls-1" d="M99,222.5a1.75,1.75,0,0,0,.74.25q0,3.44-.1,5.41t0,3.68q.07,1.71.16,3.3t.64,1.59q4.52-.24,7.61-.25a1.75,1.75,0,0,0,.74.25q0,.9-8.59,1.47l-.25,1.72v.74q0,9.57,1.72,9.57h.25q.18,0,.89-.67a10.6,10.6,0,0,0,1.34-1.58q.63-.9.65-.26a3.73,3.73,0,0,1-.51,1.69q-1.51,2.54-3.11,2.54-2.7,0-2.7-6.38-.08-2.15-.16-3.54t-.08-3.83l-2.95.25-1.12-.16-.49-.25q.14-1.06,4.56-1.55,0-1.76-.07-3.89t-.1-3.52q0-1.39,0-3.54A4,4,0,0,1,99,222.5Z"/><path class="cls-1" d="M69.8,256.34h.09c.12,0,.18.08.18.18L69.71,262v.55q0,1.44.09,2.39v.37a1.29,1.29,0,0,0,.28.83v.28l-.18.28q.12,2.58,1,3.08a.8.8,0,0,0,.62-.32,4.43,4.43,0,0,0,.57-.95c.18-.25.27-.21.26.11a3,3,0,0,1-.79,1.52,1,1,0,0,1-1.05.21,2.05,2.05,0,0,1-.87-1.25l-.18-.09h-.09Q68.61,271,67.78,271t-.83-1.47v-.09a4.27,4.27,0,0,1,2.12-4l-.09-1.1Q69.18,256.34,69.8,256.34Zm-2,13.9q.93,0,1.38-2.76a7.76,7.76,0,0,1-.18-1h-.09q-1,0-1.29,2.39A2.6,2.6,0,0,0,67.78,270.24Z"/><path class="cls-1" d="M73.64,265.56c.53,0,.81.34.83,1a4.84,4.84,0,0,1-.83,2.67q.14.37.28.37h.28q.67,0,1.38-1.1a.67.67,0,0,1,.09.28q-.68,1.66-1.75,1.66a11,11,0,0,0-1.2-.09q0,.18-.64.37l-.09-.18v-.09a1,1,0,0,0,.46-.74,6.76,6.76,0,0,1-.37-1.84A2.21,2.21,0,0,1,73.64,265.56Zm-.92,2.3a1.31,1.31,0,0,0,.46,1,3.08,3.08,0,0,0,.74-2.21c-.09-.25-.18-.37-.28-.37h-.28Q72.72,266.63,72.72,267.86Z"/><path class="cls-1" d="M81.79,264.52H82q.18,0,.18.18a15,15,0,0,0-.36,3.41v1.53H82l1.34-1.26h.09v.18l-1.62,2.25a22.22,22.22,0,0,1-2,10.14q-1.29,1.17-1.79,1.17h-.54A2,2,0,0,1,76,279.87v-.72q0-2.52,3.5-6.73,1.62-1.91,1.62-2.52v-1.53H81a15,15,0,0,0-1.52,2h-.18V270q1.88-2.35,1.88-3.86Q81.4,264.52,81.79,264.52ZM76.5,279.59q.26,1.89,1.26,1.89h.18q2,0,2.79-6.46a22.22,22.22,0,0,0,.18-3.14v-.08h-.18Q76.5,276.19,76.5,279.59Z"/><path class="cls-1" d="M83.91,265.47h.37a2.8,2.8,0,0,0,1.1,1.84q.76,2.76,2.12,2.76a7.16,7.16,0,0,0,1.56-1.38.08.08,0,0,0,.09.09q0,.7-1.84,1.84l-.46.09q-1.1,0-2-2.85a1.11,1.11,0,0,0-.83-.55,11.65,11.65,0,0,1-1.21,2.09l0-.28a7.28,7.28,0,0,0,.79-2.28l-.09-.64C83.61,265.71,83.76,265.47,83.91,265.47Z"/><path class="cls-1" d="M91.79,270.55a1.26,1.26,0,0,1-.64-1H91a6.32,6.32,0,0,1-.94,1,.89.89,0,0,1-.43.1q-.84-.28-.84-2.18v-1.38a.87.87,0,0,1,.46-.74.5.5,0,0,1,.37.37,10.87,10.87,0,0,1-.16,1.26,11.42,11.42,0,0,0,.08,1.4c.05.37.14.56.26.56a3.11,3.11,0,0,0,1.2-2.67c.13-.67.28-1,.46-1h.18l.09.37-.09,1.47.09.37a.65.65,0,0,0-.09.28q.09,1.2.37,1.2h0v0l.06,0a1.09,1.09,0,0,0,.56-.39,5.49,5.49,0,0,0,.41-.81c.18,0,.23.15.13.42q-.47,1.43-1.15,1.43Z"/><path class="cls-1" d="M93.82,259.56a.66.66,0,0,0,.28.09q0,1.29,0,2t0,1.38c0,.43,0,.84.06,1.24s.1.6.24.6q1.7-.09,2.85-.09a.66.66,0,0,0,.28.09q0,.34-3.22.55l-.09.64v.28q0,3.59.64,3.59h.09s.16-.08.33-.25a4,4,0,0,0,.5-.59q.24-.34.25-.1a1.42,1.42,0,0,1-.19.63q-.57,1-1.17,1-1,0-1-2.39c0-.54,0-1-.06-1.33s0-.83,0-1.43l-1.1.09-.42-.06-.18-.09q.05-.4,1.71-.58c0-.44,0-.93,0-1.46s0-1,0-1.32,0-.79,0-1.33A1.5,1.5,0,0,1,93.82,259.56Z"/><path class="cls-1" d="M99.27,266.24a.72.72,0,0,1,.1.3,14.51,14.51,0,0,1-.2,1.61,10.37,10.37,0,0,0,.31,1.41h.2a7.48,7.48,0,0,0,1.2-1.79h.1l.2.1a6.17,6.17,0,0,1-1.7,2.59h-.21q-.44-.11-.7-1.3h-.11Q97.28,271,96.66,271t-.54-1.16l0-.85q.44-2.52,2.52-2.52Zm-2.51,3.19a2,2,0,0,0,.1.83h.2a4.72,4.72,0,0,0,1.4-2.31.62.62,0,0,0-.7-.71Q97.18,267.25,96.76,269.43Z"/><path class="cls-1" d="M103.27,264.35a.66.66,0,0,0,.28.09v.18a9.48,9.48,0,0,1-.64.92v.09q.08.49,1,3.23v.28q-.3,1.47-1.47,1.47a2,2,0,0,1-.92-.74q.18-.55.37-.55H102q.36.55.74.55h.09c.09,0,.17-.07.25-.2a1,1,0,0,0,0-.67,18.13,18.13,0,0,0-.83-2.36h-.09a24.35,24.35,0,0,0-2.09,3,3.26,3.26,0,0,1-.77.66h-.18v-.09l1.74-2.62,1.23-1.79Q102.7,264.35,103.27,264.35Z"/><g id="_Group_2" data-name="&lt;Group&gt;"><path class="cls-1" d="M10.8,86.51q2.94,1.31,2.95,3.54,0,1.08-5.64,12.48V103q4.42,8.22,4.42,10.84l.24.47Q11.62,124,5.64,124,1.51,122.47,1,116.19q0-4.6,3.68-12.95a83.4,83.4,0,0,1-4.66-9q0-1.19,2.95-1.88,0-1.76,5.64-5.42ZM2.95,95.23q2.33,4.66,2.7,4.7h.74Q11,91.85,11,89.81a1.63,1.63,0,0,1-.25-.7h-1q-2.35,0-5.4,3.52Q3.68,92.63,2.95,95.23Zm2.95,10.84q-2.46,6.83-2.46,10.35v.25q.8,5.18,2.7,5.17h.25q3.66-1.78,3.68-7.3,0-2.84-3.19-8.47Z"/><path class="cls-1" d="M20.74,121.45q1.68.27,1.68.84v.57q0,.43-1.1,1.1h-.57q-.39,0-.84-.84V122Q19.9,121.45,20.74,121.45Z"/><path class="cls-1" d="M32.21,88.38q4.23,0,5.64,9.57a44.65,44.65,0,0,1,.25,5.64v2.7q-1.47,12.91-4.17,15,0,1.54-2.7,2.7-1.74,0-3.93-3.19-1.47-6-1.47-18.41v-.25q0-2.19.25-4.91a11.36,11.36,0,0,1-.25-2.95q1.94-4.42,2.46-4.42A6,6,0,0,1,32.21,88.38Zm-4.42,16q.82,17.43,3.19,17.43,2.56,0,4.66-11.29,0-1.45.74-7.36a19.27,19.27,0,0,1-.49-3.68l.25-1.23Q34.59,90.34,33,90.34H31a7.63,7.63,0,0,0-2.21,5.89Q28,96.23,27.8,104.33Z"/><path class="cls-1" d="M47.39,88.38q4.23,0,5.65,9.57a44.89,44.89,0,0,1,.25,5.64v2.7q-1.47,12.91-4.17,15,0,1.54-2.7,2.7-1.74,0-3.93-3.19-1.47-6-1.47-18.41v-.25q0-2.19.25-4.91A11.42,11.42,0,0,1,41,94.27q1.94-4.42,2.45-4.42A6,6,0,0,1,47.39,88.38Zm-4.42,16q.82,17.43,3.19,17.43,2.56,0,4.66-11.29,0-1.45.74-7.36a19.28,19.28,0,0,1-.49-3.68l.25-1.23q-1.56-7.85-3.19-7.85h-2A7.63,7.63,0,0,0,44,96.23Q43.14,96.23,43,104.33Z"/><path class="cls-1" d="M62.57,88.38q4.23,0,5.64,9.57a44.65,44.65,0,0,1,.25,5.64v2.7q-1.47,12.91-4.17,15,0,1.54-2.7,2.7-1.74,0-3.93-3.19-1.47-6-1.47-18.41v-.25q0-2.19.25-4.91a11.36,11.36,0,0,1-.25-2.95q1.94-4.42,2.46-4.42A6,6,0,0,1,62.57,88.38Zm-4.42,16q.82,17.43,3.19,17.43,2.56,0,4.66-11.29,0-1.45.74-7.36a19.27,19.27,0,0,1-.49-3.68l.25-1.23q-1.55-7.85-3.19-7.85h-2a7.63,7.63,0,0,0-2.21,5.89Q58.31,96.23,58.15,104.33Z"/><path class="cls-1" d="M10.51,138.19q.48,0,.8.7-.05.33-.31.25c-.17-.33-.33-.51-.5-.52a1.77,1.77,0,0,0-.71,1.45A3,3,0,0,0,10,141.7a.75.75,0,0,0,.74.5q.66-.15,1.54-1.69l.19.22a6.11,6.11,0,0,1-1.13,1.72,1.56,1.56,0,0,1-1.05.43,1.41,1.41,0,0,1-1.09-1A3.25,3.25,0,0,1,9,140.21a3.39,3.39,0,0,1,.6-1.39A1.32,1.32,0,0,1,10.51,138.19Z"/><path class="cls-1" d="M13.6,138.54q1,0,1,2v.34q0,1.78-1.4,2.06-1.11-.17-1.2-1.89v-.58A1.9,1.9,0,0,1,13.6,138.54Zm-.63,1a2.37,2.37,0,0,0-.2.78,6.59,6.59,0,0,0,0,1,1,1,0,0,0,.53.88h.09a2.92,2.92,0,0,0,.64-2.3q0-.64-.37-.74H13.5A.52.52,0,0,0,13,139.56Z"/><path class="cls-1" d="M17.55,138.31q1.6,0,1.93,2.12,0,1.52-2.49,2.3-.12.37-.83.37H15.9q.09,1.1.09,2.39.06,2.91.18,4.88-.09,2.49-.64,2.67a.66.66,0,0,1-.55-.71,4.26,4.26,0,0,1,.37-1.5q-.18-6.62-.18-9.39-.09-1.14-.09-1.2,0-.82,2.21-1.93Zm-1.66,2.12v1.38a1.21,1.21,0,0,0,.92.55q1.73,0,2-2,0-1.08-1.66-1.38A1.41,1.41,0,0,0,15.9,140.43Z"/><path class="cls-1" d="M21.46,138.54q1,0,1,2v.34q0,1.78-1.4,2.06-1.11-.17-1.2-1.89v-.58A1.9,1.9,0,0,1,21.46,138.54Zm-.63,1a2.37,2.37,0,0,0-.2.78,6.36,6.36,0,0,0,0,1,1,1,0,0,0,.53.88h.09a2.92,2.92,0,0,0,.64-2.3c0-.42-.12-.67-.37-.74h-.18A.52.52,0,0,0,20.83,139.56Z"/><path class="cls-1" d="M25.71,136.67a.66.66,0,0,0,.28.09v.18a9.48,9.48,0,0,1-.64.92V138q.08.49,1,3.23v.28q-.3,1.47-1.47,1.47a2,2,0,0,1-.92-.74q.18-.55.37-.55h.18q.36.55.74.55h.09c.09,0,.17-.07.25-.2a1,1,0,0,0,0-.67,18.13,18.13,0,0,0-.83-2.36h-.09a24.35,24.35,0,0,0-2.09,3,3.26,3.26,0,0,1-.77.66h-.18v-.09l1.74-2.62,1.23-1.79Q25.14,136.67,25.71,136.67Z"/><path class="cls-1" d="M34.16,128.66h.09c.12,0,.18.08.18.18l-.37,5.52v.55q0,1.44.09,2.39v.37a1.28,1.28,0,0,0,.28.83v.28l-.18.28q.12,2.58,1,3.08a.8.8,0,0,0,.62-.32,4.39,4.39,0,0,0,.57-.95c.18-.25.27-.21.26.11a3,3,0,0,1-.79,1.52,1,1,0,0,1-1.05.21,2,2,0,0,1-.87-1.25l-.18-.09H33.7q-.73,1.93-1.57,1.93t-.83-1.47v-.09a4.27,4.27,0,0,1,2.12-4l-.09-1.1Q33.54,128.66,34.16,128.66Zm-2,13.9q.93,0,1.38-2.76a7.68,7.68,0,0,1-.18-1h-.09q-1,0-1.29,2.39A2.61,2.61,0,0,0,32.13,142.56Z"/><path class="cls-1" d="M38,137.88q.8,0,.83,1a4.85,4.85,0,0,1-.83,2.67q.14.37.28.37h.28q.67,0,1.38-1.1a.64.64,0,0,1,.09.28q-.67,1.66-1.75,1.66a11,11,0,0,0-1.2-.09q0,.18-.64.37l-.09-.18v-.09a1,1,0,0,0,.46-.74,6.73,6.73,0,0,1-.37-1.84A2.21,2.21,0,0,1,38,137.88Zm-.92,2.3a1.31,1.31,0,0,0,.46,1,3.09,3.09,0,0,0,.74-2.21c-.09-.25-.18-.37-.28-.37h-.28Q37.07,138.95,37.07,140.18Z"/><path class="cls-1" d="M47.38,136.67a.66.66,0,0,0,.28.09v.18a9.48,9.48,0,0,1-.64.92V138q.08.49,1,3.23v.28q-.3,1.47-1.47,1.47a2,2,0,0,1-.92-.74q.18-.55.37-.55h.18q.36.55.74.55H47c.09,0,.17-.07.25-.2a1,1,0,0,0,0-.67,18.13,18.13,0,0,0-.83-2.36h-.09a24.35,24.35,0,0,0-2.09,3,3.26,3.26,0,0,1-.77.66H43.3v-.09L45,139.93l1.23-1.79Q46.81,136.67,47.38,136.67Z"/><path class="cls-1" d="M50,138.54q1,0,1,2v.34q0,1.78-1.4,2.06-1.11-.17-1.2-1.89v-.58A1.9,1.9,0,0,1,50,138.54Zm-.63,1a2.37,2.37,0,0,0-.2.78,6.59,6.59,0,0,0,0,1,1,1,0,0,0,.53.88h.09a2.92,2.92,0,0,0,.64-2.3q0-.64-.37-.74H49.9A.52.52,0,0,0,49.36,139.56Z"/><path class="cls-1" d="M53.95,138.31q1.6,0,1.93,2.12,0,1.52-2.49,2.3-.12.37-.83.37h-.28q.09,1.1.09,2.39.06,2.91.18,4.88-.09,2.49-.64,2.67a.66.66,0,0,1-.55-.71,4.26,4.26,0,0,1,.37-1.5q-.18-6.62-.18-9.39-.09-1.14-.09-1.2,0-.82,2.21-1.93Zm-1.66,2.12v1.38a1.21,1.21,0,0,0,.92.55q1.73,0,2-2,0-1.08-1.66-1.38A1.41,1.41,0,0,0,52.29,140.43Z"/><path class="cls-1" d="M59.37,138.57a.72.72,0,0,1,.1.3,14.51,14.51,0,0,1-.2,1.61,10.37,10.37,0,0,0,.31,1.41h.2a7.48,7.48,0,0,0,1.2-1.79h.1l.2.1a6.17,6.17,0,0,1-1.7,2.59h-.21q-.44-.11-.7-1.3h-.11q-1.18,1.81-1.8,1.81t-.54-1.16l0-.85q.44-2.52,2.52-2.52Zm-2.51,3.19a2,2,0,0,0,.1.83h.2a4.72,4.72,0,0,0,1.4-2.31.62.62,0,0,0-.7-.71Q57.29,139.57,56.86,141.76Z"/></g><path class="cls-1" d="M155.18,3.64q3,.37,3,1.23v.47A5.56,5.56,0,0,0,156,10.17l0,1.64q.14,4,.14,4.64l-.27,1.39a5.72,5.72,0,0,1,.45,1.64q10.82-1.21,11.95-1.19l0,.72q0,.88-11.27,2.35-.7.43-.72.9a37.43,37.43,0,0,0,2.52,15.16l-.72.92q-3.29-.06-4.62-16.36l-.43-.25a96.25,96.25,0,0,1-12.21,2.11q-2.25,0-3-2.62.82-3.87,11.7-12.78,5-3.93,5.48-4.79ZM140.37,20.56l0,.47c0,.3.23.46.7.47q12.41-1,12.44-2.09v-.7q.08-3.48,0-9.53a1.69,1.69,0,0,0,.25-.92L153.23,8q-2,0-11.88,10.23A3.22,3.22,0,0,0,140.37,20.56Z"/><path class="cls-1" d="M170.8,35.71q1.68.27,1.68.84v.57q0,.43-1.1,1.1h-.57q-.39,0-.84-.84v-1.1Q170,35.71,170.8,35.71Z"/><path class="cls-1" d="M182.28,2.64q4.23,0,5.64,9.57a44.65,44.65,0,0,1,.25,5.64v2.7q-1.47,12.91-4.17,15,0,1.54-2.7,2.7-1.74,0-3.93-3.19-1.47-6-1.47-18.41v-.25q0-2.19.25-4.91a11.36,11.36,0,0,1-.25-2.95q1.94-4.42,2.46-4.42A6,6,0,0,1,182.28,2.64Zm-4.42,16Q178.68,36,181.05,36q2.56,0,4.66-11.29,0-1.45.74-7.36a19.27,19.27,0,0,1-.49-3.68l.25-1.23Q184.65,4.6,183,4.6h-2a7.63,7.63,0,0,0-2.21,5.89Q178,10.49,177.86,18.59Z"/><path class="cls-1" d="M197.46,2.64q4.23,0,5.65,9.57a44.89,44.89,0,0,1,.25,5.64v2.7q-1.47,12.91-4.17,15,0,1.54-2.7,2.7-1.74,0-3.93-3.19-1.47-6-1.47-18.41v-.25q0-2.19.25-4.91a11.42,11.42,0,0,1-.25-2.95q1.94-4.42,2.45-4.42A6,6,0,0,1,197.46,2.64Zm-4.42,16Q193.85,36,196.23,36q2.56,0,4.66-11.29,0-1.45.74-7.36a19.28,19.28,0,0,1-.49-3.68l.25-1.23q-1.56-7.85-3.19-7.85h-2A7.63,7.63,0,0,0,194,10.49Q193.2,10.49,193,18.59Z"/><path class="cls-1" d="M212.63,2.64q4.23,0,5.64,9.57a44.65,44.65,0,0,1,.25,5.64v2.7q-1.47,12.91-4.17,15,0,1.54-2.7,2.7-1.74,0-3.93-3.19-1.47-6-1.47-18.41v-.25q0-2.19.25-4.91a11.36,11.36,0,0,1-.25-2.95q1.94-4.42,2.46-4.42A6,6,0,0,1,212.63,2.64Zm-4.42,16Q209,36,211.41,36q2.56,0,4.66-11.29,0-1.45.74-7.36a19.27,19.27,0,0,1-.49-3.68l.25-1.23Q215,4.6,213.37,4.6h-2a7.63,7.63,0,0,0-2.21,5.89Q208.38,10.49,208.21,18.59Z"/><path class="cls-1" d="M228.28,0q3.44,0,3.44,7.12,0,7.34-5.89,23.56a13.14,13.14,0,0,0-1.72,3.68v.25q.2,1.94,1.2,2.33a2.34,2.34,0,0,0,1.83,0A5.86,5.86,0,0,0,229,35.44a12.24,12.24,0,0,0,2-3.2h.9a20.36,20.36,0,0,1-1.4,2.86,8.74,8.74,0,0,1-2.13,2.46A5,5,0,0,1,226,38.72q-1,.14-3.39-1.66-.55,0-2.21,3.19h-.25q-.25-.74-.49-.74l2-4.91v-.25q-.88-5.19-1.05-7.38t-.17-9.06q1-14.81,7-17.73Zm-6.06,17.85q0,3-.07,5,.33,8.84,1.23,8.84,1.45,0,5.89-16.45,1-7.08,1-8.11A22.45,22.45,0,0,0,229.92,4q-.33-2.1-1.64-2.26l-.82.25q-2.33.61-4.58,8.59A47.13,47.13,0,0,0,222.21,17.85Z"/><path class="cls-1" d="M172.88,42.93H173c.12,0,.18.08.18.18l-.37,5.52v.55q0,1.44.09,2.39v.37a1.29,1.29,0,0,0,.28.83v.28l-.18.28q.12,2.58,1,3.08a.8.8,0,0,0,.62-.32,4.43,4.43,0,0,0,.57-.95c.18-.25.27-.21.26.11a3,3,0,0,1-.79,1.52,1,1,0,0,1-1.05.21,2.05,2.05,0,0,1-.87-1.25l-.18-.09h-.09q-.73,1.93-1.56,1.93T170,56.09V56a4.27,4.27,0,0,1,2.12-4l-.09-1.1Q172.26,42.93,172.88,42.93Zm-2,13.9q.93,0,1.38-2.76a7.68,7.68,0,0,1-.18-1H172q-1,0-1.29,2.39A2.6,2.6,0,0,0,170.86,56.83Z"/><path class="cls-1" d="M176.72,52.15q.8,0,.83,1a4.85,4.85,0,0,1-.83,2.67c.09.25.18.37.28.37h.28q.67,0,1.38-1.1a.66.66,0,0,1,.09.28Q178.07,57,177,57a11,11,0,0,0-1.2-.09q0,.18-.64.37l-.09-.18V57a1,1,0,0,0,.46-.74,6.74,6.74,0,0,1-.37-1.84A2.21,2.21,0,0,1,176.72,52.15Zm-.92,2.3a1.31,1.31,0,0,0,.46,1,3.09,3.09,0,0,0,.74-2.21c-.09-.25-.18-.37-.28-.37h-.28Q175.8,53.21,175.8,54.45Z"/><path class="cls-1" d="M186.1,50.93a.66.66,0,0,0,.28.09v.18a9.55,9.55,0,0,1-.64.92v.09q.08.49,1,3.23v.28q-.3,1.47-1.47,1.47a2,2,0,0,1-.92-.74q.18-.55.37-.55h.18q.36.55.74.55h.09c.09,0,.17-.07.25-.2a1,1,0,0,0,0-.67,17.9,17.9,0,0,0-.82-2.36h-.09a24.21,24.21,0,0,0-2.09,3,3.26,3.26,0,0,1-.77.66H182v-.09l1.74-2.62L185,52.41Q185.53,50.93,186.1,50.93Z"/><path class="cls-1" d="M188.71,52.81q1,0,1,2v.34q0,1.78-1.4,2.06-1.11-.17-1.2-1.89V54.7A1.9,1.9,0,0,1,188.71,52.81Zm-.63,1a2.42,2.42,0,0,0-.2.78,6.61,6.61,0,0,0,0,1,1,1,0,0,0,.53.88h.09a2.92,2.92,0,0,0,.64-2.3q0-.64-.37-.74h-.18A.52.52,0,0,0,188.08,53.82Z"/><path class="cls-1" d="M192.67,52.58q1.59,0,1.93,2.12,0,1.52-2.48,2.3-.12.37-.83.37H191q.09,1.1.09,2.39.06,2.91.18,4.88-.09,2.49-.64,2.67a.66.66,0,0,1-.55-.71,4.26,4.26,0,0,1,.37-1.5q-.18-6.62-.18-9.39-.09-1.14-.09-1.2,0-.82,2.21-1.93ZM191,54.69v1.38a1.21,1.21,0,0,0,.92.55q1.73,0,2-2,0-1.08-1.66-1.38A1.41,1.41,0,0,0,191,54.69Z"/><path class="cls-1" d="M198.09,52.83a.72.72,0,0,1,.1.3,14.51,14.51,0,0,1-.2,1.61,10.37,10.37,0,0,0,.31,1.41h.2a7.43,7.43,0,0,0,1.2-1.79h.1l.2.1A6.15,6.15,0,0,1,198.3,57h-.21q-.44-.11-.7-1.3h-.11q-1.18,1.81-1.8,1.81t-.54-1.16l0-.85Q195.42,53,197.5,53ZM195.59,56a2,2,0,0,0,.1.83h.2a4.72,4.72,0,0,0,1.4-2.31.62.62,0,0,0-.7-.71Q196,53.83,195.59,56Z"/><path class="cls-1" d="M193.76,280.25a74.59,74.59,0,0,1-9.94,2.91,93.77,93.77,0,0,1-10.22,1.75,98.93,98.93,0,0,1-20.74.31,103.66,103.66,0,0,1-10.29-1.51,90,90,0,0,1-10-2.68,91.87,91.87,0,0,1-18.81-8.8l-.89-.54,1-.23c5.36-1.21,10.72-2.44,16.05-3.75,2.67-.66,5.34-1.31,8-2,1.33-.35,2.65-.72,4-1.11a25.24,25.24,0,0,0,3.88-1.37,24.62,24.62,0,0,1-3.83,1.53c-1.31.44-2.62.84-3.94,1.23-2.64.78-5.28,1.55-7.94,2.24-5.32,1.41-10.65,2.75-16,4.05l.12-.77a91,91,0,0,0,18.67,8.59q4.9,1.58,9.94,2.67a102.75,102.75,0,0,0,10.18,1.56,107.71,107.71,0,0,0,20.59,0A98.63,98.63,0,0,0,193.76,280.25Z"/><path class="cls-1" d="M68.19,223.24a74.59,74.59,0,0,1-7.69-6.94,93.72,93.72,0,0,1-6.85-7.79A98.92,98.92,0,0,1,42.52,191a103.66,103.66,0,0,1-4.1-9.55,90,90,0,0,1-3-10,91.86,91.86,0,0,1-2.37-20.63v-1l.73.74c3.84,3.93,7.69,7.85,11.61,11.71,2,1.93,3.91,3.86,5.9,5.75,1,.94,2,1.88,3,2.8a25.25,25.25,0,0,0,3.2,2.59,24.61,24.61,0,0,1-3.31-2.46c-1.06-.88-2.09-1.79-3.12-2.71-2-1.84-4.08-3.69-6.07-5.59Q39,157,33.19,151.15l.72-.3a91,91,0,0,0,2.47,20.4q1.23,5,2.94,9.86a102.76,102.76,0,0,0,4,9.49,107.71,107.71,0,0,0,10.81,17.52A98.62,98.62,0,0,0,68.19,223.24Z"/><path class="cls-1" d="M57.3,78.27a74.59,74.59,0,0,1,4.05-9.53,93.75,93.75,0,0,1,5.12-9A98.93,98.93,0,0,1,79.38,43.48a103.66,103.66,0,0,1,7.69-7,90,90,0,0,1,8.44-6.07,91.86,91.86,0,0,1,18.72-9l1-.34-.47.93c-2.46,4.91-4.91,9.84-7.27,14.8-1.18,2.48-2.37,5-3.51,7.46-.57,1.25-1.13,2.51-1.66,3.77a25.24,25.24,0,0,0-1.4,3.87A24.61,24.61,0,0,1,102.17,48c.49-1.29,1-2.56,1.54-3.83,1.07-2.54,2.15-5.06,3.3-7.57,2.28-5,4.62-10,7-14.94l.52.58a91,91,0,0,0-18.48,9q-4.33,2.79-8.36,6A102.74,102.74,0,0,0,80,44.11,107.71,107.71,0,0,0,67,60.05,98.62,98.62,0,0,0,57.3,78.27Z"/><path class="cls-1" d="M247.62,21.51a74.57,74.57,0,0,1,9.53,4.05,93.76,93.76,0,0,1,9,5.12,98.93,98.93,0,0,1,16.24,12.91,103.68,103.68,0,0,1,7,7.69,90,90,0,0,1,6.07,8.44,91.86,91.86,0,0,1,9,18.72l.34,1-.93-.46c-4.91-2.46-9.84-4.91-14.8-7.27-2.48-1.18-5-2.37-7.46-3.51-1.25-.57-2.51-1.13-3.77-1.66a25.24,25.24,0,0,0-3.87-1.4,24.61,24.61,0,0,1,3.93,1.24c1.29.49,2.56,1,3.83,1.54,2.54,1.07,5.06,2.15,7.57,3.3,5,2.28,10,4.62,14.94,7l-.58.52a91,91,0,0,0-9-18.48q-2.79-4.33-6-8.36a102.73,102.73,0,0,0-6.88-7.66,107.7,107.7,0,0,0-15.95-13A98.62,98.62,0,0,0,247.62,21.51Z"/><path class="cls-1" d="M316.46,155.29a74.6,74.6,0,0,1,.44,10.35,93.75,93.75,0,0,1-.75,10.35,98.93,98.93,0,0,1-4.66,20.22,103.66,103.66,0,0,1-3.93,9.63,90,90,0,0,1-5,9.12,91.86,91.86,0,0,1-13,16.16l-.74.73,0-1c.11-5.49.2-11,.2-16.49,0-2.75,0-5.5,0-8.24,0-1.37-.06-2.75-.13-4.12a25.25,25.25,0,0,0-.4-4.09,24.62,24.62,0,0,1,.57,4.08c.11,1.37.19,2.75.26,4.12.13,2.75.24,5.5.28,8.25.1,5.5.12,11,.11,16.5l-.72-.31a91,91,0,0,0,12.81-16.07q2.7-4.38,5-9a102.74,102.74,0,0,0,4-9.51,107.71,107.71,0,0,0,4.9-20A98.62,98.62,0,0,0,316.46,155.29Z"/><circle class="cls-1" cx="181.71" cy="143.32" r="58"/><path class="cls-2" d="M168.38,130.07h-.86l-1.46-3.9h-5.9l-1.46,3.9h-.84l4.78-12.5h1Zm-5.24-11.76-2.68,7.1h5.3Z"/><path class="cls-2" d="M173.94,120.81c2.36,0,4.12,1.84,4.12,4.64s-1.86,4.82-4.4,4.82a5.09,5.09,0,0,1-2.48-.7v5.16h-.82V120.85l.82-.24v1.3A4.23,4.23,0,0,1,173.94,120.81Zm-2.76,8a4.56,4.56,0,0,0,2.54.76c2.06,0,3.5-1.62,3.5-4.08,0-2.22-1.32-3.9-3.34-3.9a4,4,0,0,0-2.7,1.16Z"/><path class="cls-2" d="M184.24,130.27a4.4,4.4,0,0,1-4.42-4.74,4.53,4.53,0,0,1,4.5-4.82,4.4,4.4,0,0,1,4.42,4.74A4.53,4.53,0,0,1,184.24,130.27Zm0-8.82a3.74,3.74,0,0,0-3.64,4c0,2.5,1.54,4,3.64,4a3.74,3.74,0,0,0,3.64-4C187.92,123,186.36,121.45,184.28,121.45Z"/><path class="cls-2" d="M191.54,118.73a.61.61,0,0,1-.58-.64.59.59,0,0,1,.58-.6.6.6,0,0,1,.6.6A.62.62,0,0,1,191.54,118.73Zm-.4,11.34V121l.82-.26v9.36Z"/><path class="cls-2" d="M198.78,130.27a4.4,4.4,0,0,1-4.42-4.74,4.53,4.53,0,0,1,4.5-4.82,4.4,4.4,0,0,1,4.42,4.74A4.53,4.53,0,0,1,198.78,130.27Zm0-8.82a3.74,3.74,0,0,0-3.64,4c0,2.5,1.54,4,3.64,4a3.74,3.74,0,0,0,3.64-4C202.46,123,200.9,121.45,198.82,121.45Z"/><path class="cls-2" d="M154.36,154.07h-.86l-1.46-3.9h-5.9l-1.46,3.9h-.84l4.78-12.5h1Zm-5.24-11.76-2.68,7.1h5.3Z"/><path class="cls-2" d="M156.34,154.07V140.59l.82-.26v13.74Z"/><path class="cls-2" d="M160.54,142.73a.61.61,0,0,1-.58-.64.58.58,0,0,1,.58-.6.6.6,0,0,1,.6.6A.62.62,0,0,1,160.54,142.73Zm-.4,11.34V145l.82-.26v9.36Z"/><path class="cls-2" d="M175.4,154.07V148c0-1.62-.68-2.52-2.16-2.52a4.42,4.42,0,0,0-2.84,1.32,5.39,5.39,0,0,1,.1,1.12v6.16h-.82V148c0-1.62-.68-2.52-2.16-2.52a4.35,4.35,0,0,0-2.74,1.2v7.4H164V145l.82-.26V146a4.64,4.64,0,0,1,2.84-1.24,2.58,2.58,0,0,1,2.58,1.52,4.76,4.76,0,0,1,3.14-1.52c1.8,0,2.88,1.08,2.88,3.1v6.26Z"/><path class="cls-2" d="M179.34,149.49c0,2.32,1.28,4,3.38,4a4.73,4.73,0,0,0,2.56-.76l.18.74a5.2,5.2,0,0,1-2.8.78c-2.5,0-4.16-2-4.16-4.74s1.7-4.82,4.1-4.82a3,3,0,0,1,3.18,3.16,6.79,6.79,0,0,1-.2,1.44l-6.24,0Zm5.54-.88a3.82,3.82,0,0,0,.06-.68,2.27,2.27,0,0,0-2.36-2.46c-1.7,0-2.9,1.28-3.18,3.14Z"/><path class="cls-2" d="M194.44,154.07V148c0-1.62-.68-2.52-2.16-2.52a4.7,4.7,0,0,0-3.16,1.58v7h-.82V145l.82-.26v1.6a5,5,0,0,1,3.26-1.6c1.8,0,2.88,1.08,2.88,3.1v6.26Z"/><path class="cls-2" d="M200.38,154.37c-1.7,0-2.32-1.06-2.26-2.92l.16-5.7-1.26-.08.06-.52,1.22-.16.06-2.18h.8l-.06,2.2h3.26l-.06.7h-3.22l-.16,5.76c0,1.5.4,2.16,1.48,2.16a4,4,0,0,0,1.86-.54l.16.7A4.26,4.26,0,0,1,200.38,154.37Z"/><path class="cls-2" d="M209.44,152.83a3.87,3.87,0,0,1-2.86,1.44,2.58,2.58,0,0,1-2.86-2.42c0-1.7,1.4-3,5.64-3.24v-.84a2,2,0,0,0-2.24-2.3,5.63,5.63,0,0,0-3.08,1.18l-.2-.82a6.47,6.47,0,0,1,3.34-1.12,2.68,2.68,0,0,1,3,3v5c0,.56.14,1,1,1l-.06.62a1.38,1.38,0,0,1-1.62-1.4Zm-.08-3.62c-3.58.36-4.82,1.22-4.82,2.56,0,1.14,1,1.78,2.14,1.78a3.64,3.64,0,0,0,2.68-1.42Z"/><path class="cls-2" d="M213.88,154.07h-.82V145l.82-.26V147a3.23,3.23,0,0,1,2.82-2.28,3.32,3.32,0,0,1,1.5.38l-.24.74a2.62,2.62,0,0,0-1.34-.36c-1,0-2,.78-2.74,2.84Z"/><path class="cls-2" d="M163.85,178.07v-.86c3.82-2.94,5.44-4.22,5.44-5.86a2.16,2.16,0,0,0-2.3-2.16,4.72,4.72,0,0,0-2.84,1.18l-.3-.7a5.1,5.1,0,0,1,3.18-1.24,2.87,2.87,0,0,1,3.12,2.8c0,2.22-2.52,3.84-5.3,6.06h5.76v.78Z"/><path class="cls-2" d="M177.09,178.27a4.92,4.92,0,1,1,4.8-4.92A4.78,4.78,0,0,1,177.09,178.27Zm0-9.08a4.16,4.16,0,1,0,4,4.16A4,4,0,0,0,177.09,169.19Z"/><path class="cls-2" d="M186,169.51l-2.32,1-.06-.78,3.18-1.32v9.64H186Z"/><path class="cls-2" d="M196.81,165.31l.22.74a7.93,7.93,0,0,0-6.38,6.14l0,0a5.47,5.47,0,0,1,3.56-1.54,3.34,3.34,0,0,1,3.56,3.52,3.79,3.79,0,0,1-3.94,4.08c-2.56,0-4.08-2.14-4.08-4.8C189.77,170.27,191.91,166.45,196.81,165.31Zm-2.94,12.24a3,3,0,0,0,3.1-3.32,2.68,2.68,0,0,0-2.78-2.84,4.91,4.91,0,0,0-3.58,1.6,3.45,3.45,0,0,0,0,.46C190.59,175.63,191.77,177.55,193.87,177.55Z"/></g></g></svg>