<svg xmlns="http://www.w3.org/2000/svg" viewBox="0 0 57.16 90.32"><title>Asset 9</title><g id="Layer_2" data-name="Layer 2"><g id="Layer_1-2" data-name="Layer 1"><g id="_Group_" data-name="&lt;Group&gt;"><rect x="0.95" y="62.4" width="55.19" height="2.6"/><polygon points="57.16 43.52 53.41 43.52 53.41 26.52 3.75 26.52 3.75 43.52 0 43.52 0 22.76 57.16 22.76 57.16 43.52"/><polygon points="57.16 90.32 0 90.32 0 69.56 3.75 69.56 3.75 86.56 53.41 86.56 53.41 69.56 57.16 69.56 57.16 90.32"/><rect x="0.95" y="48.08" width="55.19" height="2.6"/><rect x="0.95" y="55.24" width="55.19" height="2.6"/><path d="M11.8,11.73A9.86,9.86,0,0,1,2,1.88V0h19.7V1.88A9.86,9.86,0,0,1,11.8,11.73ZM6,3.75a6.1,6.1,0,0,0,11.61,0Z"/><rect x="3.83" width="49.5" height="3.75"/></g></g></g></svg>